<?xml version="1.0" encoding="UTF-8"?>
<!DOCTYPE svg PUBLIC "-//W3C//DTD SVG 1.1//EN" "http://www.w3.org/Graphics/SVG/1.1/DTD/svg11.dtd">
<!-- Creator: CorelDRAW 2019 (64 Bit) -->
<svg xmlns="http://www.w3.org/2000/svg" xml:space="preserve" width="1300px" height="874px" version="1.1" style="shape-rendering:geometricPrecision; text-rendering:geometricPrecision; image-rendering:optimizeQuality; fill-rule:evenodd; clip-rule:evenodd"
viewBox="0 0 1300 874"
 xmlns:xlink="http://www.w3.org/1999/xlink">
 <defs>
  <style type="text/css">
   <![CDATA[
    .fil2 {fill:none;fill-rule:nonzero}
    .fil26 {fill:#99B8D3}
    .fil3 {fill:#00AED6;fill-rule:nonzero}
    .fil4 {fill:#00B6D8;fill-rule:nonzero}
    .fil12 {fill:#161119;fill-rule:nonzero}
    .fil24 {fill:#25476D;fill-rule:nonzero}
    .fil23 {fill:#345C94;fill-rule:nonzero}
    .fil9 {fill:#3E3144;fill-rule:nonzero}
    .fil6 {fill:#4B3C50;fill-rule:nonzero}
    .fil16 {fill:#74DB74;fill-rule:nonzero}
    .fil8 {fill:#999999;fill-rule:nonzero}
    .fil27 {fill:#99B8D3;fill-rule:nonzero}
    .fil7 {fill:#B3B3B3;fill-rule:nonzero}
    .fil25 {fill:#C4E1F8;fill-rule:nonzero}
    .fil21 {fill:#CC0000;fill-rule:nonzero}
    .fil11 {fill:#D88C6C;fill-rule:nonzero}
    .fil15 {fill:#E60000;fill-rule:nonzero}
    .fil10 {fill:#E8A17E;fill-rule:nonzero}
    .fil5 {fill:white;fill-rule:nonzero}
    .fil22 {fill:white;fill-rule:nonzero}
    .fil14 {fill:#25476D;fill-rule:nonzero;fill-opacity:0.070588}
    .fil17 {fill:#345C94;fill-rule:nonzero;fill-opacity:0.109804}
    .fil1 {fill:#E0E0E0;fill-rule:nonzero;fill-opacity:0.309804}
    .fil0 {fill:#E6E6E6;fill-rule:nonzero;fill-opacity:0.309804}
    .fil20 {fill:#00B6D8;fill-rule:nonzero;fill-opacity:0.380392}
    .fil18 {fill:#7ED680;fill-rule:nonzero;fill-opacity:0.380392}
    .fil19 {fill:#8DCC94;fill-rule:nonzero;fill-opacity:0.380392}
    .fil13 {fill:#F17B52;fill-rule:nonzero;fill-opacity:0.450980}
   ]]>
  </style>
 </defs>
 <g id="Camada_x0020_1">
  <metadata id="CorelCorpID_0Corel-Layer"/>
  <g id="_2250801351072">
   <path class="fil0" d="M1079.74 869c72.72,-3.34 144.11,-34.24 179.01,-87.36 32.28,-49.12 38.28,-125.22 23.84,-179.88 -12.13,-45.9 -46.76,-85.62 -86.26,-119.25 -79.8,-67.94 -182.64,-117.23 -250.08,-193.86 -37.49,-42.59 -62.44,-91.96 -98.48,-135.4 -70.09,-84.48 -186.14,-144.42 -309.55,-148.08 -123.4,-3.67 -249.75,54 -301.02,147.34 -44.11,80.29 -32.61,177.6 -86.92,253.46 -24.96,34.87 -62.18,62.56 -89.59,96.13 -48.79,59.74 -63.53,137.82 -39.1,207.1 24.42,69.28 87.55,128.41 167.42,156.82l890.73 2.98z"/>
   <path class="fil1" d="M280.35 862.35c-50.71,-2.2 -100.5,-22.57 -124.84,-57.58 -22.51,-32.37 -26.7,-82.52 -16.63,-118.55 8.46,-30.25 32.61,-56.43 60.16,-78.59 55.66,-44.78 127.38,-77.26 174.42,-127.77 26.15,-28.07 57.43,-92.9 82.57,-121.53 48.88,-55.68 106.91,-92.24 192.53,-101.36 110.39,-11.75 183.67,71.65 219.43,133.17 30.76,52.91 22.74,117.05 60.62,167.04 17.41,22.98 43.36,41.24 62.48,63.36 34.03,39.37 44.31,90.83 27.27,136.49 -17.03,45.66 -61.06,84.63 -116.76,103.36l-621.25 1.96z"/>
   <path class="fil2" d="M1047.14 819.13l1.6 12.4c-4.82,-0.26 -8.34,-1.96 -9.92,-3.91 -0.97,-1.2 -1.2,-2.46 -0.71,-3.86 1.01,-2.9 5.09,-4.15 9.03,-4.63z"/>
   <path class="fil3" d="M980.86 798.03c3.76,-10.75 14.92,-14.87 24.89,-16.39 21.83,34.17 49.09,40.98 64.02,41.88l-4.34 25.6 -49.18 0 -2.63 -20.43c-12.47,-0.23 -23.5,-4.5 -29.41,-11.8 -4.48,-5.54 -5.67,-12.23 -3.35,-18.86zm12.8 11.2l0 0c2.93,3.62 9.45,6.78 18.39,7.26l-2.97 -23.01c-7.3,0.89 -14.87,3.21 -16.75,8.58 -0.91,2.6 -0.48,4.94 1.33,7.17z"/>
   <path class="fil4" d="M1005.75 781.64c0.59,-0.09 1.2,-0.2 1.78,-0.28l-2.97 -23.09c-0.18,-1.36 0.88,-2.57 2.25,-2.57l71.46 0c1.57,0 2.77,1.42 2.5,2.97l-11 64.85c-14.93,-0.9 -42.19,-7.71 -64.02,-41.88z"/>
   <path class="fil5" d="M1038.55 746.11c7.1,-3.78 13.88,-17.41 16.68,-23.71 2.79,-6.3 3.61,-13.85 0.51,-20 -2.62,-5.2 -7.64,-8.79 -10.77,-13.7 -3.23,-5.07 -4.24,-11.49 -2.73,-17.31 2.13,-8.2 8.85,-14.73 10.39,-23.06 1.8,-9.77 -3.87,-19.16 -6.35,-28.77 -2.29,-8.85 -1.84,-18.39 1.27,-26.98 -6.93,4.12 -11.07,11.57 -14.9,18.67 -3.49,6.49 -7.09,13.42 -6.58,20.77 0.32,4.62 2.25,8.95 3.87,13.29 2.93,7.86 4.93,16.47 2.84,24.59 -3.16,12.28 -15.24,21.88 -14.77,34.55 0.28,7.5 5.14,14.16 11,18.86 3.82,3.05 8.23,5.61 10.9,9.7 2.68,4.1 2.77,10.5 -1.36,13.1z"/>
   <path class="fil6" d="M601.77 374.78c5.69,13.21 10.05,25.98 12.17,39.1 2.11,13.13 2.84,26.51 6.1,39.4 2.88,11.38 7.69,22.19 12.86,32.74 0.47,0.96 0.95,1.96 0.95,3.03 -0.01,2.1 -1.81,3.69 -3.49,4.92 -25.63,18.76 -61.16,22.99 -90.47,10.78l61.88 -129.97z"/>
   <path class="fil7" d="M583.34 431.86c0,17.37 11.31,31.44 25.25,31.44 13.95,0 25.26,-14.07 25.26,-31.44 0,-17.36 -11.31,-31.43 -25.26,-31.43 -13.94,0 -25.25,14.07 -25.25,31.43z"/>
   <path class="fil8" d="M571.46 436.31c0,17.37 11.31,31.44 25.25,31.44 13.95,0 25.26,-14.07 25.26,-31.44 0,-17.36 -11.31,-31.43 -25.26,-31.43 -13.94,0 -25.25,14.07 -25.25,31.43z"/>
   <path class="fil9" d="M539.89 504.86l52.7 -110.69c5.83,19.45 11.66,38.9 17.17,58.44 1.83,6.5 3.64,13.06 4.24,19.79 0.53,5.88 0.12,11.85 -1.2,17.61 -1.28,5.61 -3.51,11.15 -7.44,15.35 -0.71,0.76 -1.53,1.4 -2.32,2.06 -20.57,6.26 -43.27,5.72 -63.15,-2.56z"/>
   <path class="fil10" d="M550.97 501.05c-2.38,13.43 -4.36,28.68 3.97,39.48 1.83,2.37 4.21,4.68 4.34,7.67 0.17,3.92 -3.57,6.8 -7.07,8.55 -13.55,6.79 -29.93,7.64 -44.11,2.29 -1.17,-0.44 -2.38,-0.96 -3.17,-1.94 -1.78,-2.21 -0.64,-5.45 0.46,-8.07 10.06,-24.04 9.77,-52.21 -0.78,-76.04l46.36 28.06z"/>
   <path class="fil11" d="M552.16 497.13c-2.33,9.44 -3.86,18.52 -2.83,28.19 0.04,0.33 0.06,0.7 -0.17,0.95 -0.3,0.32 -0.84,0.19 -1.26,0.04 -3.09,-1.12 -6.22,-2.25 -8.94,-4.11 -4.57,-3.12 -9.96,-8.87 -12.32,-13.89 -3.25,-6.94 -4.85,-13.73 -4.26,-21.37l29.78 10.19z"/>
   <path class="fil10" d="M583.19 376.61c9.57,10.69 11.8,25.92 13.06,40.22 1.11,12.6 1.79,25.34 0,37.86 -1.78,12.52 -6.17,24.92 -14.26,34.63 -3.41,4.1 -7.44,7.67 -11.91,10.57 -3.08,1.99 -6.42,3.69 -10,4.46 -6.82,1.46 -13.87,-0.49 -20.51,-2.65 -15.12,-4.91 -30.68,-11.54 -40.02,-24.42 -12.16,-16.78 -20.2,-60.94 -23.36,-81.43l107 -19.24z"/>
   <path class="fil11" d="M602.25 389.63c-14.14,12.24 -31.69,20.48 -50.13,23.52 -10.69,1.76 -21.58,1.81 -32.41,1.58 -4.06,-0.09 -8.15,-0.22 -12.09,-1.18 -5.47,-1.34 -10.67,-4.43 -13.65,-9.21 -2.99,-4.77 -3.39,-11.31 -0.22,-15.96l108.5 1.25z"/>
   <path class="fil6" d="M480.22 333.67c26.95,-13.04 65.98,-10.34 85.59,0.9 19.62,11.24 27.74,21.29 37.98,44.71 0.61,1.4 4.15,10.02 3.62,11.45 -0.53,1.41 -1.22,2.2 -2.63,2.74 -24.23,9.26 -45.53,10.93 -71.43,12.21 -8.62,0.43 -17.37,0.44 -25.76,-1.6 -11.88,39.84 -5.69,68.38 14.09,104.93 -12.88,5.44 -62.94,8.56 -86.76,-9.91 -6.15,-4.77 -11.76,-10.4 -15.49,-17.23 -9.47,-17.31 -5.41,-38.65 -0.26,-57.7 3.84,-14.18 8.18,-28.35 15.14,-41.28 10.69,-19.87 25.21,-40.27 45.91,-49.22z"/>
   <path class="fil5" d="M574.63 464.36c-1.96,6.09 -4.22,11.7 -9.6,15.14 -5.33,3.42 -12.46,3.02 -18.19,0.33 -5.73,-2.68 -11.19,-9.42 -15.2,-14.33 13.92,1.31 29.23,1.3 42.99,-1.14z"/>
   <path class="fil9" d="M462.87 496.38c1.64,-1.3 3.11,-2.89 3.9,-4.82 1.52,-3.77 0.2,-8.02 -0.97,-11.91 -1.98,-6.59 -3.5,-13.42 -3.26,-20.3 0.24,-6.87 2.38,-13.87 6.98,-18.98 6.67,-7.41 17.14,-9.75 26.9,-11.71 2.05,-0.41 4.1,-0.82 6.15,-1.23 -3.65,28.55 3.31,52.59 19,81.58 -12.88,5.44 -62.94,8.56 -86.76,-9.91 -0.87,-0.68 -1.7,-1.41 -2.55,-2.12 1.47,0.82 2.93,1.66 4.5,2.27 8.54,3.33 18.93,2.83 26.11,-2.87z"/>
   <path class="fil12" d="M550.68 428.44c6.71,-3.56 11.86,-0.14 11.93,-0.1l1.29 -1.91c-0.26,-0.17 -6.37,-4.23 -14.3,-0.02l1.08 2.03z"/>
   <polygon class="fil12" points="502.47,427.8 508.49,427.7 508.49,425.39 502.79,425.39 "/>
   <polygon class="fil11" points="558.44,432.6 565.73,454.96 554.26,455.9 "/>
   <path class="fil9" d="M535.67 414.81c-0.46,-0.28 -0.95,-0.53 -1.45,-0.76 -0.29,-0.14 -0.59,-0.27 -0.89,-0.4 0.11,0.05 0.22,0.1 0.33,0.14 -0.75,-0.31 -1.52,-0.59 -2.29,-0.84 -0.96,-0.31 -1.94,-0.56 -2.92,-0.77 -0.64,-0.13 -1.28,-0.23 -1.92,-0.32 0.12,0.02 0.25,0.03 0.37,0.05 -1.84,-0.25 -3.71,-0.31 -5.56,-0.18 -0.58,0.04 -1.15,0.1 -1.72,0.18 0.12,-0.02 0.24,-0.04 0.37,-0.05 -1.88,0.25 -3.73,0.71 -5.52,1.34 -0.55,0.19 -1.09,0.4 -1.62,0.63 0.11,-0.05 0.22,-0.09 0.32,-0.14 -2,0.85 -3.91,1.92 -5.7,3.15 -0.28,0.19 -0.74,0.23 -1.07,0.14 -0.32,-0.09 -0.66,-0.34 -0.82,-0.64 -0.17,-0.32 -0.26,-0.71 -0.14,-1.06 0.11,-0.36 0.32,-0.61 0.63,-0.83 2.82,-1.93 5.94,-3.47 9.22,-4.42 2.68,-0.78 5.5,-1.16 8.29,-1.13 2.29,0.03 4.59,0.34 6.81,0.9 1.65,0.41 3.24,0.98 4.79,1.66 0.63,0.29 1.27,0.59 1.86,0.95 0.01,0.01 0.02,0.01 0.03,0.02 0.3,0.18 0.54,0.48 0.63,0.82 0.09,0.33 0.05,0.78 -0.14,1.07 -0.19,0.29 -0.47,0.55 -0.82,0.63 -0.36,0.08 -0.75,0.06 -1.07,-0.14z"/>
   <path class="fil9" d="M572.83 414.98c0.4,-0.37 0.84,-0.7 1.28,-1.01 0.27,-0.19 0.54,-0.38 0.81,-0.56 -0.1,0.07 -0.2,0.13 -0.3,0.2 0.68,-0.45 1.38,-0.87 2.1,-1.25 0.89,-0.48 1.8,-0.91 2.73,-1.28 0.6,-0.25 1.21,-0.47 1.83,-0.67 -0.12,0.04 -0.24,0.08 -0.35,0.11 1.76,-0.57 3.58,-0.98 5.43,-1.19 0.57,-0.06 1.15,-0.11 1.72,-0.14 -0.12,0.01 -0.24,0.02 -0.37,0.02 1.9,-0.09 3.79,0.02 5.67,0.31 0.57,0.09 1.14,0.2 1.71,0.33 -0.11,-0.03 -0.23,-0.05 -0.35,-0.08 2.13,0.47 -0.7,1.91 3.2,0.89 0.36,-0.09 -2.54,-3.76 -5.95,-4.1 -2.77,-0.27 -5.61,-0.14 -8.35,0.4 -2.24,0.45 -4.45,1.17 -6.54,2.12 -1.54,0.71 -3,1.56 -4.4,2.52 -0.57,0.39 -1.14,0.8 -1.66,1.27 -0.01,0 -0.01,0.01 -0.02,0.02 -0.26,0.24 -0.44,0.57 -0.47,0.92 -0.03,0.35 0.09,0.77 0.33,1.03 0.24,0.25 0.56,0.46 0.93,0.47 0.36,0.02 0.74,-0.08 1.02,-0.33z"/>
   <path class="fil9" d="M534.8 430.2c-0.04,-0.06 -0.08,-0.12 -0.13,-0.18 0.04,0.06 0.08,0.11 0.12,0.16 -0.18,-0.23 -0.37,-0.45 -0.57,-0.67 -0.3,-0.34 -0.63,-0.67 -0.98,-0.98 -0.23,-0.21 -0.48,-0.41 -0.73,-0.6 0.06,0.04 0.11,0.08 0.16,0.12 -0.59,-0.46 -1.23,-0.87 -1.91,-1.21 -0.2,-0.11 -0.41,-0.2 -0.63,-0.29 0.07,0.02 0.13,0.05 0.19,0.08 -0.6,-0.26 -1.22,-0.45 -1.86,-0.58 -0.19,-0.04 -0.38,-0.07 -0.57,-0.1 0.07,0.01 0.14,0.02 0.21,0.03 -0.62,-0.08 -1.24,-0.1 -1.86,-0.05 -0.19,0.01 -0.38,0.03 -0.57,0.05 0.07,0 0.14,-0.01 0.21,-0.02 -0.7,0.09 -1.38,0.26 -2.05,0.5 -0.21,0.08 -0.41,0.16 -0.62,0.24 0.06,-0.02 0.13,-0.05 0.19,-0.08 -0.91,0.39 -1.77,0.88 -2.57,1.44 -0.26,0.18 -0.51,0.36 -0.76,0.56 0.05,-0.04 0.1,-0.09 0.16,-0.13 -0.22,0.17 -0.43,0.34 -0.63,0.51 -0.17,0.14 -0.34,0.23 -0.56,0.23 -0.19,0 -0.42,-0.08 -0.56,-0.23 -0.13,-0.15 -0.24,-0.35 -0.23,-0.56 0.01,-0.19 0.08,-0.42 0.23,-0.55 0.91,-0.77 1.88,-1.47 2.93,-2.05 0.87,-0.47 1.79,-0.87 2.75,-1.14 0.83,-0.22 1.7,-0.36 2.56,-0.37 0.78,-0.02 1.56,0.07 2.33,0.23 0.7,0.16 1.38,0.4 2.04,0.69 0.56,0.25 1.09,0.55 1.6,0.88 0.5,0.33 0.99,0.7 1.44,1.1 0.35,0.29 0.67,0.6 0.98,0.92 0.23,0.23 0.44,0.47 0.64,0.72 0.14,0.17 0.28,0.34 0.4,0.52 0.01,0.01 0.01,0.01 0.01,0.02 0.12,0.16 0.13,0.42 0.08,0.6 -0.05,0.19 -0.19,0.39 -0.36,0.48 -0.18,0.09 -0.4,0.14 -0.61,0.08 -0.2,-0.07 -0.34,-0.19 -0.47,-0.37z"/>
   <path class="fil9" d="M592.01 428.14c-0.04,-0.06 -0.09,-0.12 -0.13,-0.18 0.04,0.05 0.08,0.1 0.12,0.16 -0.18,-0.24 -0.37,-0.46 -0.57,-0.68 -0.31,-0.34 -0.64,-0.66 -0.98,-0.97 -0.24,-0.21 -0.48,-0.42 -0.73,-0.61 0.05,0.04 0.11,0.08 0.16,0.12 -0.6,-0.46 -1.24,-0.87 -1.91,-1.21 -0.21,-0.1 -0.42,-0.2 -0.63,-0.29 0.06,0.03 0.12,0.05 0.19,0.08 -0.6,-0.25 -1.22,-0.45 -1.86,-0.58 -0.19,-0.04 -0.38,-0.07 -0.58,-0.09 0.07,0.01 0.14,0.01 0.21,0.02 -0.61,-0.08 -1.24,-0.1 -1.86,-0.05 -0.19,0.01 -0.37,0.03 -0.56,0.06 0.07,-0.01 0.14,-0.02 0.21,-0.03 -0.7,0.1 -1.39,0.27 -2.05,0.51 -0.21,0.07 -0.42,0.15 -0.62,0.24 0.06,-0.03 0.12,-0.06 0.18,-0.08 -0.9,0.38 -1.76,0.87 -2.57,1.43 -0.26,0.18 -0.51,0.37 -0.76,0.56 0.06,-0.04 0.11,-0.08 0.16,-0.12 -0.21,0.16 -0.42,0.33 -0.63,0.5 -0.16,0.14 -0.33,0.23 -0.55,0.23 -0.2,0 -0.43,-0.08 -0.56,-0.23 -0.14,-0.15 -0.24,-0.34 -0.23,-0.55 0.01,-0.2 0.07,-0.43 0.23,-0.56 0.91,-0.76 1.88,-1.47 2.92,-2.04 0.87,-0.48 1.8,-0.88 2.76,-1.14 0.83,-0.23 1.69,-0.36 2.56,-0.38 0.78,-0.02 1.56,0.07 2.32,0.24 0.71,0.15 1.39,0.4 2.05,0.69 0.55,0.25 1.09,0.54 1.59,0.87 0.51,0.34 0.99,0.71 1.45,1.1 0.34,0.29 0.67,0.6 0.98,0.93 0.22,0.23 0.43,0.47 0.64,0.72 0.14,0.17 0.27,0.34 0.4,0.52 0,0 0.01,0.01 0.01,0.01 0.11,0.16 0.13,0.43 0.08,0.61 -0.05,0.18 -0.19,0.38 -0.36,0.47 -0.19,0.1 -0.41,0.14 -0.61,0.08 -0.2,-0.07 -0.35,-0.19 -0.47,-0.36z"/>
   <path class="fil13" d="M507.53 450.61c0,5.46 4.42,9.88 9.86,9.88 5.45,0 9.87,-4.42 9.87,-9.88 0,-5.45 -4.42,-9.88 -9.87,-9.88 -5.44,0 -9.86,4.43 -9.86,9.88z"/>
   <path class="fil13" d="M580.08 446.77c0,4.6 3.72,8.32 8.32,8.32 4.59,0 8.31,-3.72 8.31,-8.32 0,-4.6 -3.72,-8.33 -8.31,-8.33 -4.6,0 -8.32,3.73 -8.32,8.33z"/>
   <path class="fil12" d="M584.26 450.09c12.02,0 21.81,-9.79 21.81,-21.84 0,-12.04 -9.79,-21.83 -21.81,-21.83 -12.03,0 -21.81,9.79 -21.81,21.83 0,12.05 9.78,21.84 21.81,21.84zm0 -41.15l0 0c10.63,0 19.29,8.67 19.29,19.31 0,10.65 -8.66,19.32 -19.29,19.32 -10.64,0 -19.3,-8.67 -19.3,-19.32 0,-10.64 8.66,-19.31 19.3,-19.31z"/>
   <path class="fil12" d="M529.39 450.09c12.03,0 21.81,-9.79 21.81,-21.84 0,-12.04 -9.78,-21.83 -21.81,-21.83 -12.02,0 -21.8,9.79 -21.8,21.83 0,12.05 9.78,21.84 21.8,21.84zm0 -41.15l0 0c10.64,0 19.3,8.67 19.3,19.31 0,10.65 -8.66,19.32 -19.3,19.32 -10.63,0 -19.29,-8.67 -19.29,-19.32 0,-10.64 8.66,-19.31 19.29,-19.31z"/>
   <path class="fil12" d="M544.34 491.22c-0.31,3.26 2.82,6.24 6.99,6.64 4.17,0.4 7.81,-1.92 8.12,-5.18 0.32,-3.27 -2.81,-6.24 -6.98,-6.65 -4.17,-0.4 -7.81,1.92 -8.13,5.19z"/>
   <path class="fil12" d="M538.16 493.12c3.35,0.33 6.77,0.44 10.27,0.3l-0.13 -3.28c-39.54,1.58 -69.94,-30.39 -70.24,-30.71l-2.39 2.24c0.29,0.31 26.6,27.98 62.49,31.45z"/>
   <path class="fil7" d="M606.59 402.58c-3.16,-22.18 -14.77,-46.61 -33.79,-59.15 -17.04,-11.23 -39.83,-11.95 -58.61,-4.74 -16.17,6.21 -26.88,20.06 -32.16,36.19 -4.5,13.74 -5.1,27.87 -6.14,42.15 -0.35,4.71 -7.73,4.74 -7.38,0 1,-13.59 1.55,-27.13 5.27,-40.35 4.83,-17.2 14.74,-32.99 30.8,-41.63 19.11,-10.29 44.43,-11.38 64.16,-2.32 16.05,7.37 27.78,21.74 35.23,37.44 4.52,9.52 8.24,19.97 9.73,30.45 0.66,4.65 -6.44,6.66 -7.11,1.96z"/>
   <path class="fil7" d="M450.94 440.73c0,17.36 11.3,31.44 25.25,31.44 13.95,0 25.26,-14.08 25.26,-31.44 0,-17.36 -11.31,-31.43 -25.26,-31.43 -13.95,0 -25.25,14.07 -25.25,31.43z"/>
   <path class="fil8" d="M448.22 440.73c0,16.5 10.74,29.87 24,29.87 13.25,0 23.99,-13.37 23.99,-29.87 0,-16.49 -10.74,-29.86 -23.99,-29.86 -13.26,0 -24,13.37 -24,29.86z"/>
   <path class="fil14" d="M291.99 300.73l123.77 0c8.28,0 15,-6.73 15,-15.02l0 -73.11c0,-8.29 -6.72,-15.01 -15,-15.01l-123.77 0c-8.28,0 -14.99,6.72 -14.99,15.01l0 73.11c0,8.29 6.71,15.02 14.99,15.02z"/>
   <path class="fil5" d="M295.61 297.26l123.76 0c8.28,0 15,-6.72 15,-15.01l0 -73.11c0,-8.29 -6.72,-15.01 -15,-15.01l-123.76 0c-8.29,0 -15,6.72 -15,15.01l0 73.11c0,8.29 6.71,15.01 15,15.01z"/>
   <path class="fil15" d="M368.74 213c3.14,1.5 5.61,3.57 7.4,6.23 1.8,2.65 2.7,5.6 2.7,8.83 0,2.44 -0.41,4.59 -1.24,6.45 -0.82,1.86 -1.82,3.45 -3.01,4.76 -1.19,1.31 -2.76,2.79 -4.71,4.44 -2.62,2.25 -4.57,4.27 -5.85,6.04 -1.28,1.77 -1.92,3.96 -1.92,6.59l0 1.28c0,0.67 -0.24,1.25 -0.73,1.74 -0.49,0.49 -1.07,0.73 -1.74,0.73l-3.38 0c-0.67,0 -1.25,-0.24 -1.74,-0.73 -0.48,-0.49 -0.73,-1.07 -0.73,-1.74l0 -1.92c0,-2.44 0.43,-4.59 1.28,-6.46 0.86,-1.86 1.88,-3.43 3.06,-4.71 1.19,-1.28 2.79,-2.83 4.8,-4.67 2.56,-2.19 4.47,-4.13 5.71,-5.81 1.26,-1.68 1.88,-3.67 1.88,-5.99 0,-2.93 -1.22,-5.25 -3.66,-6.96 -2.44,-1.7 -5.36,-2.56 -8.77,-2.56 -3.29,0 -6.03,0.83 -8.23,2.47 -2.19,1.65 -3.72,4.18 -4.57,7.6 -0.12,0.61 -0.41,1.1 -0.87,1.46 -0.45,0.37 -0.96,0.55 -1.5,0.55l-3.94 0c-0.55,0 -1.03,-0.2 -1.46,-0.59 -0.43,-0.4 -0.61,-0.87 -0.55,-1.42 0.19,-2.87 1.08,-5.68 2.7,-8.42 1.62,-2.75 3.99,-5 7.13,-6.77 3.14,-1.77 6.9,-2.66 11.29,-2.66 3.96,0 7.51,0.75 10.65,2.24zm-6.44 62.01l0 0c-0.5,0.48 -1.07,0.73 -1.74,0.73l-5.21 0c-0.68,0 -1.25,-0.25 -1.74,-0.73 -0.49,-0.49 -0.73,-1.07 -0.73,-1.74l0 -5.22c0,-0.67 0.24,-1.25 0.73,-1.74 0.49,-0.49 1.06,-0.73 1.74,-0.73l5.21 0c0.67,0 1.24,0.24 1.74,0.73 0.48,0.49 0.72,1.07 0.72,1.74l0 5.22c0,0.67 -0.24,1.25 -0.72,1.74z"/>
   <path class="fil14" d="M604.97 101.2l122.56 0c8.61,0 15.6,7 15.6,15.63l0 71.89c0,8.63 -6.99,15.62 -15.6,15.62l-86.93 0 -32.93 23.4 0 -23.4 -2.7 0c-8.61,0 -15.6,-6.99 -15.6,-15.62l0 -71.89c0,-8.63 6.99,-15.63 15.6,-15.63z"/>
   <path class="fil5" d="M608.66 97.86l122.55 0c8.61,0 15.6,6.99 15.6,15.62l0 71.89c0,8.63 -6.99,15.62 -15.6,15.62l-86.93 0 -32.93 23.4 0 -23.4 -2.69 0c-8.62,0 -15.61,-6.99 -15.61,-15.62l0 -71.89c0,-8.63 6.99,-15.62 15.61,-15.62z"/>
   <path class="fil15" d="M609.17 124.48c13.68,0 27.37,0 41.06,0 21.81,0 43.63,0 65.44,0 5.01,0 10.02,0 15.03,0 1.58,0 1.58,2.46 0,2.46 -13.69,0 -27.38,0 -41.06,0 -21.82,0 -43.63,0 -65.45,0 -5.01,0 -10.02,0 -15.02,0 -1.59,0 -1.59,-2.46 0,-2.46z"/>
   <path class="fil15" d="M609.17 140.52c13.68,0 27.37,0 41.06,0 21.81,0 43.63,0 65.44,0 5.01,0 10.02,0 15.03,0 1.58,0 1.58,2.46 0,2.46 -13.69,0 -27.38,0 -41.06,0 -21.82,0 -43.63,0 -65.45,0 -5.01,0 -10.02,0 -15.02,0 -1.59,0 -1.59,-2.46 0,-2.46z"/>
   <path class="fil15" d="M645.47 156.55c9.58,0 19.17,0 28.75,0 15.29,0 30.58,0 45.88,0 3.53,0 7.06,0 10.6,0 1.58,0 1.58,2.46 0,2.46 -9.59,0 -19.17,0 -28.76,0 -15.29,0 -30.58,0 -45.87,0 -3.53,0 -7.07,0 -10.6,0 -1.58,0 -1.58,-2.46 0,-2.46z"/>
   <path class="fil15" d="M645.47 172.59c9.58,0 19.17,0 28.75,0 15.29,0 30.58,0 45.88,0 3.53,0 7.06,0 10.6,0 1.58,0 1.58,2.46 0,2.46 -9.59,0 -19.17,0 -28.76,0 -15.29,0 -30.58,0 -45.87,0 -3.53,0 -7.07,0 -10.6,0 -1.58,0 -1.58,-2.46 0,-2.46z"/>
   <path class="fil14" d="M670.61 229.35l79.61 0c5.6,0 10.14,4.54 10.14,10.15l0 46.7c0,5.61 -4.54,10.15 -10.14,10.15l-56.46 0 -21.4 15.2 0 -15.2 -1.75 0c-5.6,0 -10.14,-4.54 -10.14,-10.15l0 -46.7c0,-5.61 4.54,-10.15 10.14,-10.15z"/>
   <path class="fil5" d="M673 227.17l79.62 0c5.59,0 10.13,4.55 10.13,10.15l0 46.71c0,5.6 -4.54,10.14 -10.13,10.14l-56.47 0 -21.4 15.21 0 -15.21 -1.75 0c-5.6,0 -10.14,-4.54 -10.14,-10.14l0 -46.71c0,-5.6 4.54,-10.15 10.14,-10.15z"/>
   <path class="fil15" d="M673.33 244.47c8.89,0 17.79,0 26.68,0 14.17,0 28.34,0 42.51,0 3.26,0 6.51,0 9.76,0 1.03,0 1.03,1.6 0,1.6 -8.89,0 -17.78,0 -26.67,0 -14.17,0 -28.34,0 -42.52,0 -3.25,0 -6.5,0 -9.76,0 -1.02,0 -1.02,-1.6 0,-1.6z"/>
   <path class="fil15" d="M673.33 254.89c8.89,0 17.79,0 26.68,0 14.17,0 28.34,0 42.51,0 3.26,0 6.51,0 9.76,0 1.03,0 1.03,1.6 0,1.6 -8.89,0 -17.78,0 -26.67,0 -14.17,0 -28.34,0 -42.52,0 -3.25,0 -6.5,0 -9.76,0 -1.02,0 -1.02,-1.6 0,-1.6z"/>
   <path class="fil15" d="M696.92 265.31c6.22,0 12.45,0 18.67,0 9.94,0 19.87,0 29.81,0 2.29,0 4.59,0 6.88,0 1.03,0 1.03,1.59 0,1.59 -6.22,0 -12.45,0 -18.67,0 -9.94,0 -19.87,0 -29.81,0 -2.29,0 -4.59,0 -6.88,0 -1.03,0 -1.03,-1.59 0,-1.59z"/>
   <path class="fil15" d="M696.92 275.72c6.22,0 12.45,0 18.67,0 9.94,0 19.87,0 29.81,0 2.29,0 4.59,0 6.88,0 1.03,0 1.03,1.6 0,1.6 -6.22,0 -12.45,0 -18.67,0 -9.94,0 -19.87,0 -29.81,0 -2.29,0 -4.59,0 -6.88,0 -1.03,0 -1.03,-1.6 0,-1.6z"/>
   <path class="fil14" d="M955.39 447.79l-123.77 0c-8.28,0 -15,-6.72 -15,-15.02l0 -73.1c0,-8.3 6.72,-15.02 15,-15.02l123.77 0c8.28,0 14.99,6.72 14.99,15.02l0 73.1c0,8.3 -6.71,15.02 -14.99,15.02z"/>
   <path class="fil5" d="M950.82 443.69l-123.76 0c-8.29,0 -15,-6.72 -15,-15.01l0 -73.11c0,-8.29 6.71,-15.01 15,-15.01l123.76 0c8.28,0 15,6.72 15,15.01l0 73.11c0,8.29 -6.72,15.01 -15,15.01z"/>
   <path class="fil15" d="M901.98 364.92c-1.09,11.67 -13.54,9.83 -13.54,9.83 -7.6,1.11 -6.47,17.77 -6.47,17.77 0,0 0.82,16.68 8.49,16.9 0,0 12.15,-3.29 14.6,8.18 2.45,11.47 -4.46,17.34 -15.72,16.56 0,0 -15.6,-1.51 -17.92,-41.39 -1.29,-40.41 13.03,-42.47 13.03,-42.47 11.09,-2.08 18.63,2.95 17.53,14.62z"/>
   <path class="fil16" d="M411.48 848.23c-36.86,-18.06 -62.37,-52.47 -82.05,-87.85 -35.71,-64.18 -57.25,-138.45 -45.3,-210.55 2.34,-14.14 7.47,-29.95 20.9,-35.74 6.34,-2.73 13.71,-2.68 20.36,-0.75 13.14,3.8 23.31,14.42 29.43,26.39 6.12,11.96 8.74,25.29 11.19,38.45 17.35,93.22 29.6,188.11 62.83,277.13l-17.36 -7.08z"/>
   <path class="fil17" d="M417.88 849.74c-28.52,-13.27 -61.17,-53.98 -77.02,-81.15 -28.75,-49.31 -50.06,-100.49 -42.69,-157.04 1.44,-11.09 4.97,-23.55 15.06,-28.37 4.77,-2.27 10.38,-2.39 15.5,-1.04 10.1,2.67 18.1,10.74 23.05,19.94 4.95,9.2 7.27,19.55 9.45,29.77 15.46,72.39 27.08,146.19 54.53,214.93l2.12 2.96z"/>
   <path class="fil5" d="M317.63 552.92c3.05,22.31 6.23,44.6 10.07,66.8 3.81,22 8.28,43.91 13.9,65.55 5.19,19.98 11.39,39.64 19.3,58.76 7.82,18.89 17.02,37.25 27.49,54.88 10.25,17.25 21.72,33.85 34.61,49.33 1.56,1.88 3.15,3.74 4.76,5.59 0.34,0.39 -0.24,0.96 -0.58,0.56 -13.14,-15.09 -24.86,-31.32 -35.36,-48.26 -10.84,-17.49 -20.39,-35.74 -28.59,-54.55 -8.21,-18.82 -14.82,-38.17 -20.24,-57.93 -5.97,-21.74 -10.7,-43.8 -14.71,-65.97 -4.01,-22.2 -7.3,-44.52 -10.39,-66.86 -0.36,-2.63 -0.72,-5.26 -1.08,-7.9 -0.07,-0.51 0.75,-0.5 0.82,0z"/>
   <path class="fil16" d="M397.1 844.22c-25.56,6.3 -60.89,11.21 -85.94,12.66 -47.2,2.74 -105.05,1.03 -142.53,-27.82 -12.15,-9.36 -22.77,-24.69 -17.8,-39.21 3.16,-9.23 12.08,-15.55 21.5,-18.04 9.42,-2.49 19.36,-1.72 29.04,-0.6 69.85,8.03 137.66,33.33 195.73,73.01z"/>
   <path class="fil17" d="M386.47 841.94c-19.83,4.58 -47.24,8.14 -66.69,9.17 -36.62,1.94 -81.52,0.6 -110.65,-20.64 -9.45,-6.89 -17.71,-18.16 -13.87,-28.81 2.44,-6.77 9.35,-11.4 16.66,-13.21 7.3,-1.82 15.02,-1.24 22.53,-0.41 54.23,6.01 106.89,24.68 152.02,53.9z"/>
   <path class="fil5" d="M189.56 803.04c13.12,2.96 26.24,5.93 39.37,8.86 13.42,2.99 26.85,5.95 40.29,8.81 13.55,2.88 27.12,5.68 40.72,8.34 13.51,2.64 27.04,5.15 40.61,7.47 13.38,2.29 26.8,4.39 40.26,6.24 1.62,0.22 3.25,0.44 4.88,0.66 0.58,0.07 0.56,0.99 -0.03,0.92 -13.39,-1.78 -26.75,-3.81 -40.08,-6.04 -13.52,-2.26 -27.02,-4.72 -40.49,-7.31 -13.6,-2.63 -27.17,-5.4 -40.73,-8.25 -13.54,-2.86 -27.06,-5.81 -40.57,-8.81 -13.24,-2.94 -26.47,-5.93 -39.7,-8.93 -1.61,-0.36 -3.21,-0.72 -4.81,-1.08 -0.58,-0.13 -0.3,-1.01 0.28,-0.88z"/>
   <path class="fil16" d="M408.39 840.37c-53.57,-2.8 -113.34,-34.63 -156.26,-66.86 -28.25,-21.21 -56.15,-43.71 -77.02,-72.24 -17.08,-23.36 -29.07,-50.43 -34.89,-78.79 -3.81,-18.6 -3.15,-41.69 12.87,-51.84 8.64,-5.48 19.94,-5.5 29.59,-2.07 9.64,3.43 17.89,9.93 25.36,16.93 21.31,19.96 37.65,44.53 54.25,68.56 43.23,62.57 96.9,128.33 146.1,186.31z"/>
   <path class="fil17" d="M393.94 832.81c-41.38,-2.06 -87.54,-25.51 -120.69,-49.24 -21.82,-15.62 -43.37,-32.19 -59.49,-53.2 -13.19,-17.2 -22.45,-37.14 -26.94,-58.03 -2.95,-13.69 -2.44,-30.7 9.93,-38.17 6.68,-4.04 15.41,-4.05 22.85,-1.53 7.45,2.53 13.82,7.32 19.59,12.47 16.46,14.7 29.08,32.8 41.91,50.49 33.39,46.08 74.84,94.51 112.84,137.21z"/>
   <path class="fil5" d="M173.92 615.51c15.7,19.21 31.39,38.41 47.09,57.61 13.93,17.05 27.76,34.18 41.99,50.99 13.09,15.47 26.57,30.63 40.92,44.95 14.21,14.18 29.28,27.54 45.59,39.25 16.19,11.63 33.6,21.62 52.13,29.01 2.27,0.91 4.57,1.78 6.87,2.61 0.56,0.2 0.32,1.09 -0.24,0.89 -18.7,-6.74 -36.35,-16.08 -52.8,-27.22 -16.54,-11.21 -31.85,-24.17 -46.23,-38.03 -14.67,-14.14 -28.4,-29.24 -41.68,-44.69 -14,-16.31 -27.52,-33.03 -41.13,-49.68 -15.74,-19.26 -31.49,-38.53 -47.24,-57.79 -1.97,-2.42 -3.95,-4.83 -5.92,-7.25 -0.37,-0.45 0.27,-1.11 0.65,-0.65z"/>
   <path class="fil18" d="M235.56 786.48c-10.77,-3.33 -20.39,-9.39 -29.43,-16.01 -4.79,-3.51 -9.47,-7.16 -14.16,-10.78 -5.14,-3.96 -10.26,-7.94 -15.32,-12 -9.63,-7.71 -19.06,-15.67 -28.27,-23.87 -9.24,-8.24 -18.27,-16.71 -27.08,-25.42 -8.8,-8.71 -17.38,-17.65 -25.71,-26.8 -1.01,-1.11 -2.02,-2.23 -3.02,-3.34 -0.72,-0.79 0.45,-1.97 1.16,-1.18 8.22,9.14 16.67,18.06 25.35,26.76 8.68,8.7 17.58,17.18 26.7,25.42 9.12,8.23 18.45,16.24 27.98,23.99 9.74,7.92 19.67,15.61 29.69,23.17 8.89,6.71 18.2,13.2 28.69,17.14 1.28,0.48 2.56,0.92 3.86,1.32 1.02,0.31 0.59,1.92 -0.44,1.6z"/>
   <path class="fil18" d="M97.22 671.37c-0.62,-7.1 -4.87,-13.83 -11.09,-17.31 -2.5,-1.4 -5.92,-2.18 -8.01,-0.22 -1.54,1.44 -1.71,3.93 -0.91,5.88 0.79,1.96 2.37,3.47 3.99,4.82 4.81,4 10.4,7.06 16.36,8.95l-0.34 -2.12z"/>
   <path class="fil18" d="M104 679.83c2.99,-1.94 4.33,-5.62 4.98,-9.13 0.46,-2.46 0.68,-5.04 0.04,-7.47 -0.64,-2.42 -2.26,-4.69 -4.6,-5.6 -0.36,-0.13 -0.74,-0.24 -1.12,-0.17 -0.36,0.06 -0.69,0.27 -0.97,0.51 -1.41,1.18 -2.14,3.03 -2.29,4.87 -0.15,1.84 0.21,3.68 0.66,5.46 1.02,4.09 2.49,8.07 4.37,11.85l-1.07 -0.32z"/>
   <path class="fil18" d="M119.42 694.49c1.24,-0.41 2.2,-1.38 3.11,-2.31 2.47,-2.54 5.07,-5.34 5.55,-8.86 0.24,-1.77 -0.09,-3.58 -0.59,-5.3 -0.77,-2.7 -2.11,-5.47 -4.59,-6.77 -0.82,-0.43 -1.78,-0.68 -2.69,-0.45 -1.1,0.27 -1.95,1.21 -2.38,2.27 -0.43,1.05 -0.5,2.22 -0.52,3.36 -0.09,6.93 0.36,11.36 2.11,18.06z"/>
   <path class="fil18" d="M136.54 712.17c0.32,0.28 0.81,0.03 1.15,-0.23 3.1,-2.37 5.82,-5.33 7.53,-8.85 1.71,-3.52 2.36,-7.62 1.4,-11.41 -0.44,-1.72 -1.3,-3.47 -2.86,-4.31 -2.01,-1.07 -4.64,-0.26 -6.2,1.41 -1.55,1.66 -2.22,3.97 -2.53,6.23 -0.83,6.07 0.55,12.21 1.93,18.18l-0.42 -1.02z"/>
   <path class="fil18" d="M155.74 729.98c1.74,-0.59 3.06,-2 4.25,-3.4 2.91,-3.44 5.57,-7.22 6.76,-11.56 1.19,-4.35 0.72,-9.35 -2.13,-12.83 -1.15,-1.39 -2.84,-2.56 -4.63,-2.31 -1.35,0.19 -2.47,1.15 -3.32,2.22 -3.5,4.36 -3.61,10.49 -3.05,16.06 0.34,3.48 0.89,6.94 1.63,10.36l0.49 1.46z"/>
   <path class="fil18" d="M180.44 749.7c7.49,-5.88 12.16,-15.2 12.39,-24.73 0.09,-3.66 -0.92,-8 -4.33,-9.35 -2.2,-0.87 -4.81,-0.11 -6.61,1.44 -1.79,1.55 -2.87,3.78 -3.59,6.04 -2.52,7.97 -0.95,16.6 0.63,24.81l1.51 1.79z"/>
   <path class="fil18" d="M118.68 695.45c-5.49,-2.4 -11.78,-1.74 -17.7,-0.86 -1.44,0.22 -3.1,0.6 -3.71,1.93 -0.54,1.18 0.05,2.6 0.92,3.58 1.51,1.71 3.79,2.62 6.06,2.79 2.27,0.17 4.55,-0.36 6.69,-1.16 3.36,-1.25 6.51,-3.24 8.78,-6.02l-1.04 -0.26z"/>
   <path class="fil18" d="M103.67 679.3c-5.49,-2.4 -11.78,-1.74 -17.7,-0.86 -1.44,0.21 -3.1,0.6 -3.71,1.92 -0.55,1.19 0.05,2.6 0.92,3.58 1.51,1.72 3.78,2.63 6.06,2.79 2.27,0.17 4.55,-0.36 6.69,-1.15 3.36,-1.26 6.51,-3.24 8.78,-6.02l-1.04 -0.26z"/>
   <path class="fil18" d="M136.35 711.86c-6.87,-3.32 -15.29,-3.24 -22.1,0.21 -1.52,0.77 -3.07,1.84 -3.49,3.49 -0.37,1.42 0.25,2.98 1.3,4.01 1.06,1.02 2.49,1.58 3.93,1.89 3.32,0.7 6.82,0.15 9.97,-1.11 3.15,-1.27 5.98,-3.21 8.61,-5.35 1.05,-0.85 2.14,-1.83 2.42,-3.15l-0.64 0.01z"/>
   <path class="fil18" d="M155.51 728.84c-6.68,-2.33 -14.04,-0.98 -20.87,0.83 -2.64,0.7 -5.54,1.67 -6.86,4.07 -1.65,2.99 0.16,7.02 3.16,8.64 3.01,1.63 6.72,1.29 9.94,0.17 6.07,-2.12 11.01,-6.82 14.38,-12.31l0.25 -1.4z"/>
   <path class="fil18" d="M179.23 748.1c-5.12,-1.68 -10.78,-1.02 -15.86,0.8 -5.08,1.82 -9.68,4.72 -14.24,7.61 -2.22,1.4 -4.67,3.17 -4.87,5.78 -0.14,1.79 0.89,3.52 2.33,4.59 1.44,1.06 3.23,1.54 5,1.79 9.18,1.25 18.49,-3.64 24.16,-10.98 2.41,-3.13 4.32,-6.95 3.93,-10.88l-0.45 1.29z"/>
   <path class="fil18" d="M208.46 772.11c0.27,0.46 0.99,0.14 1.39,-0.24 6.93,-6.54 10.36,-16.6 8.87,-26.02 -0.29,-1.8 -0.76,-3.61 -1.74,-5.15 -1.51,-2.37 -4.07,-3.85 -6.66,-4.95 -0.61,-0.26 -1.26,-0.51 -1.92,-0.4 -0.85,0.14 -1.5,0.83 -2.02,1.52 -3.68,4.85 -4.88,11.28 -4.15,17.33 0.73,6.04 3.25,11.75 6.4,16.96l-0.17 0.95z"/>
   <path class="fil19" d="M210.14 772.01c-3.97,-1.74 -8.47,-1.99 -12.77,-1.38 -4.29,0.6 -8.43,2.01 -12.5,3.5 -3.01,1.09 -6.11,2.29 -8.29,4.63 -2.18,2.33 -3.14,6.14 -1.32,8.77 1.77,2.56 5.33,3.07 8.45,3 6.11,-0.14 12.31,-1.68 17.31,-5.2 5,-3.52 8.65,-9.2 8.92,-15.31l0.2 1.99z"/>
   <path class="fil18" d="M287.51 698.29c-6.87,-8.96 -11.2,-19.48 -14.74,-30.12 -1.88,-5.63 -3.58,-11.32 -5.32,-17 -1.89,-6.2 -3.77,-12.42 -5.55,-18.66 -3.39,-11.86 -6.47,-23.82 -9.23,-35.85 -2.78,-12.07 -5.24,-24.22 -7.38,-36.42 -2.14,-12.2 -3.97,-24.46 -5.47,-36.76 -0.18,-1.49 -0.36,-2.98 -0.53,-4.47 -0.12,-1.06 1.51,-1.35 1.63,-0.29 1.42,12.22 3.15,24.39 5.19,36.52 2.04,12.12 4.4,24.19 7.07,36.2 2.67,12 5.65,23.93 8.94,35.77 3.36,12.1 7.01,24.14 10.8,36.11 3.37,10.62 7.22,21.31 13.49,30.6 0.76,1.13 1.55,2.23 2.38,3.31 0.65,0.85 -0.63,1.91 -1.28,1.06z"/>
   <path class="fil18" d="M241.29 524.25c3.6,-6.16 4.02,-14.1 0.96,-20.55 -1.22,-2.59 -3.56,-5.21 -6.4,-4.82 -2.09,0.28 -3.67,2.21 -4.15,4.27 -0.47,2.05 -0.07,4.2 0.48,6.24 1.6,6.05 4.39,11.78 8.15,16.78l0.96 -1.92z"/>
   <path class="fil18" d="M241.92 535.07c3.56,0.15 6.78,-2.08 9.34,-4.55 1.81,-1.75 3.47,-3.72 4.35,-6.07 0.88,-2.35 0.87,-5.14 -0.51,-7.23 -0.21,-0.32 -0.47,-0.63 -0.81,-0.8 -0.33,-0.16 -0.72,-0.17 -1.09,-0.14 -1.83,0.14 -3.5,1.23 -4.68,2.64 -1.19,1.41 -1.95,3.13 -2.62,4.84 -1.54,3.93 -2.64,8.02 -3.29,12.19l-0.69 -0.88z"/>
   <path class="fil18" d="M246.02 555.96c1.24,0.39 2.58,0.16 3.86,-0.08 3.49,-0.64 7.23,-1.41 9.65,-4 1.23,-1.31 2,-2.98 2.59,-4.67 0.93,-2.64 1.45,-5.68 0.17,-8.18 -0.42,-0.83 -1.06,-1.58 -1.93,-1.93 -1.05,-0.42 -2.29,-0.14 -3.25,0.47 -0.97,0.61 -1.7,1.52 -2.37,2.44 -4.08,5.6 -6.27,9.47 -8.72,15.95z"/>
   <path class="fil18" d="M249.75 580.3c0.09,0.42 0.64,0.5 1.06,0.48 3.91,-0.14 7.84,-0.98 11.26,-2.85 3.43,-1.88 6.34,-4.85 7.74,-8.5 0.64,-1.65 0.95,-3.58 0.16,-5.17 -1.01,-2.04 -3.63,-2.89 -5.86,-2.44 -2.23,0.45 -4.11,1.95 -5.67,3.61 -4.19,4.47 -6.61,10.28 -8.94,15.95l0.25 -1.08z"/>
   <path class="fil18" d="M255.1 605.95c1.76,0.53 3.65,0.14 5.43,-0.31 4.36,-1.11 8.72,-2.66 12.2,-5.51 3.49,-2.85 5.99,-7.2 5.68,-11.69 -0.12,-1.8 -0.83,-3.74 -2.43,-4.57 -1.21,-0.63 -2.68,-0.49 -4,-0.12 -5.37,1.54 -9.01,6.47 -11.77,11.33 -1.73,3.04 -3.29,6.18 -4.67,9.39l-0.44 1.48z"/>
   <path class="fil18" d="M263.84 636.35c9.5,-0.46 18.7,-5.35 24.4,-12.98 2.19,-2.94 3.87,-7.06 1.88,-10.13 -1.3,-1.99 -3.86,-2.89 -6.22,-2.66 -2.36,0.22 -4.53,1.41 -6.42,2.84 -6.67,5.04 -10.38,12.98 -13.84,20.59l0.2 2.34z"/>
   <path class="fil18" d="M244.85 556.32c-3.08,-5.14 -8.59,-8.25 -13.93,-10.96 -1.3,-0.66 -2.87,-1.31 -4.14,-0.59 -1.13,0.66 -1.46,2.16 -1.32,3.46 0.24,2.27 1.57,4.33 3.33,5.79 1.76,1.45 3.92,2.34 6.12,2.93 3.47,0.93 7.18,1.13 10.64,0.18l-0.7 -0.81z"/>
   <path class="fil18" d="M241.96 534.45c-3.09,-5.14 -8.6,-8.25 -13.94,-10.97 -1.29,-0.66 -2.87,-1.3 -4.13,-0.58 -1.13,0.65 -1.46,2.16 -1.33,3.46 0.25,2.27 1.57,4.33 3.33,5.78 1.76,1.46 3.92,2.35 6.13,2.94 3.47,0.92 7.18,1.13 10.64,0.18l-0.7 -0.81z"/>
   <path class="fil18" d="M249.77 579.94c-3.68,-6.69 -10.59,-11.51 -18.14,-12.64 -1.68,-0.25 -3.56,-0.27 -4.86,0.82 -1.13,0.95 -1.52,2.57 -1.25,4.03 0.26,1.44 1.1,2.73 2.1,3.81 2.3,2.5 5.47,4.07 8.77,4.87 3.3,0.8 6.73,0.85 10.12,0.64 1.34,-0.09 2.79,-0.26 3.79,-1.17l-0.53 -0.36z"/>
   <path class="fil18" d="M255.57 604.88c-4.09,-5.76 -10.87,-8.92 -17.49,-11.41 -2.56,-0.96 -5.49,-1.85 -7.95,-0.66 -3.07,1.48 -3.93,5.82 -2.42,8.88 1.51,3.06 4.73,4.94 8.01,5.89 6.17,1.79 12.92,0.83 18.84,-1.7l1.01 -1z"/>
   <path class="fil18" d="M263.78 634.34c-3.21,-4.34 -8.21,-7.08 -13.4,-8.54 -5.19,-1.46 -10.63,-1.76 -16.01,-2.05 -2.62,-0.15 -5.64,-0.12 -7.32,1.89 -1.15,1.37 -1.3,3.39 -0.75,5.09 0.56,1.7 1.74,3.13 3.05,4.36 6.75,6.34 17.18,7.75 26.04,5.05 3.78,-1.15 7.55,-3.16 9.5,-6.59l-1.11 0.79z"/>
   <path class="fil18" d="M273.72 670.85c-0.05,0.55 0.73,0.7 1.27,0.62 9.43,-1.31 18.05,-7.53 22.28,-16.07 0.81,-1.64 1.47,-3.39 1.56,-5.21 0.14,-2.81 -1.09,-5.5 -2.56,-7.89 -0.35,-0.57 -0.74,-1.15 -1.34,-1.45 -0.77,-0.38 -1.7,-0.18 -2.53,0.08 -5.8,1.82 -10.5,6.36 -13.4,11.71 -2.9,5.36 -4.15,11.47 -4.59,17.54l-0.69 0.67z"/>
   <path class="fil18" d="M275.15 671.75c-2.23,-3.72 -5.76,-6.53 -9.61,-8.53 -3.85,-1.99 -8.04,-3.24 -12.22,-4.39 -3.08,-0.85 -6.31,-1.67 -9.44,-1.03 -3.13,0.64 -6.11,3.19 -6.14,6.38 -0.04,3.13 2.56,5.6 5.15,7.35 5.06,3.42 11,5.77 17.12,5.79 6.11,0.03 12.37,-2.48 16.13,-7.31l-0.99 1.74z"/>
   <path class="fil18" d="M629.2 718.57c1.72,-11.16 6.31,-21.58 11.53,-31.5 2.76,-5.25 5.69,-10.41 8.58,-15.59 3.16,-5.67 6.35,-11.32 9.62,-16.93 6.22,-10.66 12.71,-21.15 19.47,-31.47 6.79,-10.36 13.85,-20.54 21.17,-30.53 7.32,-9.99 14.9,-19.79 22.73,-29.38 0.95,-1.16 1.9,-2.32 2.86,-3.48 0.68,-0.82 2.02,0.16 1.33,0.98 -7.83,9.47 -15.42,19.15 -22.75,29.01 -7.33,9.87 -14.4,19.92 -21.21,30.15 -6.81,10.24 -13.36,20.65 -19.63,31.22 -6.4,10.8 -12.56,21.76 -18.56,32.78 -5.33,9.79 -10.39,19.96 -12.75,30.92 -0.29,1.33 -0.54,2.67 -0.74,4.02 -0.16,1.05 -1.81,0.86 -1.65,-0.2z"/>
   <path class="fil18" d="M722.76 564.76c6.93,-1.66 12.95,-6.85 15.49,-13.52 1.02,-2.68 1.29,-6.18 -0.95,-7.97 -1.65,-1.31 -4.13,-1.12 -5.95,-0.04 -1.81,1.08 -3.08,2.86 -4.18,4.66 -3.25,5.35 -5.45,11.33 -6.45,17.51l2.04 -0.64z"/>
   <path class="fil18" d="M715.39 572.71c2.36,2.67 6.19,3.46 9.75,3.6 2.51,0.09 5.08,-0.07 7.38,-1.06 2.31,-0.99 4.32,-2.92 4.87,-5.37 0.08,-0.38 0.13,-0.77 0.01,-1.13 -0.11,-0.36 -0.37,-0.65 -0.65,-0.89 -1.37,-1.23 -3.31,-1.68 -5.15,-1.56 -1.83,0.12 -3.6,0.75 -5.3,1.45 -3.89,1.61 -7.61,3.65 -11.07,6.06l0.16 -1.1z"/>
   <path class="fil18" d="M703.16 590.12c0.58,1.16 1.68,1.97 2.73,2.73 2.87,2.08 6.02,4.25 9.56,4.21 1.79,-0.02 3.53,-0.62 5.16,-1.36 2.55,-1.15 5.1,-2.88 6.02,-5.53 0.3,-0.88 0.41,-1.87 0.06,-2.73 -0.43,-1.06 -1.49,-1.76 -2.6,-2.03 -1.1,-0.27 -2.26,-0.17 -3.39,-0.02 -6.86,0.92 -11.17,2.01 -17.54,4.73z"/>
   <path class="fil18" d="M688.18 609.65c-0.23,0.35 0.09,0.81 0.39,1.1 2.8,2.73 6.13,4.99 9.85,6.17 3.73,1.18 7.88,1.22 11.48,-0.28 1.64,-0.69 3.24,-1.79 3.84,-3.46 0.77,-2.15 -0.42,-4.63 -2.29,-5.93 -1.87,-1.3 -4.25,-1.62 -6.53,-1.6 -6.12,0.06 -11.98,2.33 -17.69,4.56l0.95 -0.56z"/>
   <path class="fil18" d="M673.39 631.26c0.83,1.64 2.42,2.74 3.98,3.72 3.81,2.38 7.95,4.46 12.41,5 4.47,0.55 9.33,-0.65 12.36,-3.98 1.21,-1.33 2.12,-3.19 1.61,-4.92 -0.38,-1.31 -1.5,-2.28 -2.68,-2.97 -4.82,-2.82 -10.89,-2.04 -16.31,-0.67 -3.39,0.85 -6.73,1.89 -10,3.12l-1.37 0.7z"/>
   <path class="fil20" d="M657.5 658.61c6.91,6.55 16.8,9.82 26.24,8.66 3.64,-0.44 7.78,-2.08 8.61,-5.65 0.54,-2.31 -0.59,-4.79 -2.38,-6.34 -1.8,-1.55 -4.15,-2.3 -6.49,-2.68 -8.25,-1.33 -16.55,1.48 -24.43,4.25l-1.55 1.76z"/>
   <path class="fil18" d="M702.09 589.52c1.57,-5.78 0.01,-11.92 -1.73,-17.66 -0.42,-1.39 -1.04,-2.98 -2.44,-3.39 -1.25,-0.36 -2.57,0.44 -3.41,1.43 -1.47,1.75 -2.04,4.14 -1.87,6.41 0.17,2.28 1.02,4.46 2.12,6.46 1.73,3.15 4.15,5.97 7.23,7.82l0.1 -1.07z"/>
   <path class="fil18" d="M715.87 572.3c1.57,-5.79 0,-11.92 -1.73,-17.66 -0.42,-1.39 -1.05,-2.98 -2.44,-3.39 -1.25,-0.37 -2.57,0.43 -3.41,1.43 -1.47,1.74 -2.04,4.13 -1.87,6.41 0.17,2.28 1.02,4.46 2.12,6.46 1.73,3.14 4.15,5.97 7.23,7.82l0.1 -1.07z"/>
   <path class="fil18" d="M688.46 609.42c2.28,-7.29 0.97,-15.62 -3.44,-21.87 -0.97,-1.38 -2.26,-2.76 -3.95,-2.94 -1.46,-0.16 -2.91,0.68 -3.77,1.88 -0.86,1.19 -1.2,2.69 -1.29,4.16 -0.21,3.39 0.84,6.78 2.55,9.71 1.71,2.93 4.04,5.45 6.54,7.75 0.99,0.92 2.12,1.85 3.46,1.94l-0.1 -0.63z"/>
   <path class="fil18" d="M674.48 630.87c1.33,-6.95 -1.09,-14.04 -3.87,-20.55 -1.08,-2.52 -2.46,-5.24 -5.02,-6.2 -3.2,-1.2 -6.92,1.19 -8.08,4.4 -1.17,3.21 -0.29,6.83 1.29,9.86 2.98,5.7 8.35,9.91 14.26,12.44l1.42 0.05z"/>
   <path class="fil20" d="M658.91 657.18c0.91,-5.32 -0.57,-10.84 -3.11,-15.6 -2.53,-4.76 -6.08,-8.9 -9.59,-13 -1.71,-1.98 -3.82,-4.15 -6.43,-3.97 -1.78,0.12 -3.35,1.39 -4.19,2.98 -0.84,1.58 -1.06,3.42 -1.04,5.21 0.1,9.27 6.3,17.78 14.37,22.32 3.44,1.94 7.5,3.27 11.33,2.31l-1.34 -0.25z"/>
   <path class="fil20" d="M639.45 689.62c-0.42,0.34 0.01,1.01 0.43,1.35 7.48,5.91 17.92,7.84 27.01,4.98 1.74,-0.54 3.46,-1.27 4.84,-2.47 2.12,-1.84 3.21,-4.59 3.92,-7.31 0.16,-0.65 0.31,-1.33 0.11,-1.97 -0.26,-0.82 -1.04,-1.36 -1.8,-1.78 -5.33,-2.93 -11.86,-3.18 -17.72,-1.58 -5.87,1.61 -11.14,4.94 -15.83,8.81l-0.96 -0.03z"/>
   <path class="fil20" d="M639.79 691.27c1.14,-4.18 0.73,-8.68 -0.5,-12.84 -1.22,-4.17 -3.22,-8.06 -5.28,-11.88 -1.52,-2.81 -3.16,-5.71 -5.78,-7.53 -2.63,-1.82 -6.53,-2.21 -8.86,-0.03 -2.28,2.13 -2.26,5.73 -1.74,8.81 1.04,6.03 3.45,11.95 7.66,16.38 4.22,4.44 10.36,7.23 16.44,6.61l-1.94 0.48z"/>
   <path class="fil15" d="M507.99 542.01c-33.07,1.4 -68.86,11.4 -93.07,34 -2.05,1.91 -4.07,4.01 -4.96,6.66 -1.31,3.89 0.03,8.1 1.27,12.01 14.31,45.1 15.08,94.41 2.18,139.94 -3.37,11.92 -7.68,23.69 -8.84,36.03 -1.16,12.33 1.29,25.68 9.8,34.67 3.66,3.87 8.25,6.74 13.01,9.15 26.47,13.39 57.57,12.9 87.21,11.66 18.27,-0.76 36.73,-1.72 54.32,-6.72 17.6,-5 34.49,-14.47 45.18,-29.32 11.04,-15.33 14.48,-34.8 15.89,-53.64 3.18,-42.79 -2.62,-85.7 -3.42,-128.6 -0.24,-12.47 0.03,-25.33 4.89,-36.82 -22.59,-15.64 -49.58,-25.13 -76.51,-30.5 -5.78,7.71 -13.89,11.22 -23.51,11.71 -9.62,0.49 -16.9,-3.15 -23.44,-10.23z"/>
   <path class="fil21" d="M418.58 765.26c1.07,-12.33 -7.68,-26.6 -4.56,-38.52 7.92,-30.29 22.85,-59.74 19.64,-91.03 6.79,3.41 12.95,7.91 16.45,14.63 2.87,5.52 3.62,11.95 3.69,18.21 0.13,12.5 -2.19,24.89 -2.69,37.39 -0.49,12.49 1.07,25.66 8.1,35.88 8.11,11.81 22.09,17.77 35.73,21.42 9.18,2.46 18.54,4.15 27.92,5.63 10.77,1.71 21.73,3.13 32.55,1.74 10.82,-1.39 21.62,-5.9 28.73,-14.37 11.27,-13.41 10.93,-32.89 12.96,-50.46 2.23,-19.3 8.05,-38.17 17.05,-55.28 2.7,-5.13 5.87,-10.3 10.74,-13.31 0.01,-0.01 0.03,-0.01 0.04,-0.02 1.68,31.33 19.79,64.22 17.64,95.48 -1.29,18.84 -20.32,36.72 -30.51,52.05 -9.87,14.86 -25.47,24.32 -41.72,29.33 -16.25,5 -33.29,5.96 -50.17,6.72 -27.37,1.23 -56.08,1.73 -80.53,-11.67 -4.39,-2.4 -8.63,-5.27 -12.01,-9.14 -7.86,-8.99 -10.12,-22.34 -9.05,-34.68z"/>
   <path class="fil15" d="M617.68 562.52c-10.22,45.47 -1.42,99.12 9.93,144.31 3.37,13.43 2.66,28.14 -2.15,34.98 -4.98,7.07 -13.56,11.29 -21.41,14.91 -18.23,8.41 -30.9,18.33 -44.82,32.82 -5.58,5.81 -10.69,12.35 -13.1,20.03 -2.41,7.69 -1.71,16.72 3.42,22.92 4.9,5.94 13.01,8.39 20.7,8.38 7.69,0 15.2,-2.14 22.68,-3.89 12.54,-2.94 25.32,-4.86 38.17,-5.73 11.12,-0.76 22.44,-0.75 33.13,-3.89 15.22,-4.46 28.3,-15.3 36.31,-29.01 8.01,-13.7 11.07,-30.08 9.46,-45.87 -0.86,-8.47 -3,-16.75 -5.2,-24.97 -9.14,-34.04 -21.73,-63.85 -33.27,-97.16 -4.72,-13.63 -13.4,-29.01 -21.72,-40.79 -8.31,-11.78 -17.93,-24.61 -32.13,-27.04z"/>
   <path class="fil5" d="M613.95 649.1c-6.15,-28.09 -3.97,-59.17 2.62,-86.88 0.34,-1.45 2.56,-0.84 2.22,0.61 -4.7,19.75 -6.51,40.11 -5.52,60.39 0.41,8.42 1.09,17.01 2.9,25.27 0.32,1.45 -1.9,2.06 -2.22,0.61z"/>
   <path class="fil10" d="M530.26 809.88c0,0 30.41,-7.56 41.78,-1.03 11.38,6.52 28.65,16.04 28.13,28.16l0.01 4.97c0,0 -81.5,2.38 -88.12,-4.97l18.2 -27.13z"/>
   <path class="fil15" d="M439.44 559.1c-14.92,1.73 -31.23,19.13 -41.55,34.17 -10.32,15.05 -17.35,32.07 -24.29,48.94 -13,31.59 -26,63.18 -39,94.77 -4.03,9.79 -8.08,19.67 -10.04,30.07 -1.63,8.64 -1.77,17.56 -0.43,26.24 1.1,7.12 3.28,14.25 7.72,19.92 6.29,8 16.21,12.08 25.72,15.69 20.06,7.64 40.64,14.79 62.05,16.27 8.44,0.58 16.91,0.28 25.36,-0.03 23.35,-0.86 46.8,-1.72 69.77,-5.98 1.65,-0.31 3.37,-0.66 4.7,-1.69 1.37,-1.07 2.15,-2.72 2.87,-4.3 2.31,-5.06 4.62,-10.11 6.93,-15.17 1.29,-2.82 2.61,-5.8 2.36,-8.89 -0.33,-4.16 -3.38,-7.53 -6.43,-10.36 -8.1,-7.49 -17.42,-13.66 -27.49,-18.18 -20.7,-9.3 -44.34,-11.63 -63.79,-23.33 -2.36,-1.42 -4.65,-2.98 -6.54,-4.98 -7.16,-7.62 -6.74,-19.89 -2.72,-29.55 4.02,-9.67 6.84,-18.89 10.79,-28.58 8.78,-21.56 13.17,-35.62 13.65,-54.04 0.68,-26.24 -1.28,-56.12 -9.64,-80.99z"/>
   <path class="fil22" d="M518.31 793.52c-2.73,3.7 -4.83,7.97 -6.7,12.16 -4.83,10.85 -7.57,22.59 -8.4,34.42 -0.11,1.47 -2.41,1.48 -2.3,0 0.84,-11.93 3.55,-23.66 8.3,-34.64 1.95,-4.51 4.18,-9.13 7.11,-13.11 0.87,-1.18 2.87,-0.03 1.99,1.17z"/>
   <path class="fil5" d="M448.96 650.34c1.91,-30.05 -0.4,-62.51 -10.63,-90.93 -0.51,-1.4 1.72,-2 2.21,-0.61 10.3,28.58 12.64,61.32 10.72,91.54 -0.1,1.47 -2.4,1.48 -2.3,0z"/>
   <path class="fil23" d="M114.85 869l1067.75 0c5.27,0 9.54,-4.28 9.54,-9.55l0 -0.78c0,-5.27 -4.27,-9.55 -9.54,-9.55l-1067.75 0c-5.26,0 -9.54,4.28 -9.54,9.55l0 0.78c0,5.27 4.28,9.55 9.54,9.55z"/>
   <path class="fil24" d="M390.51 849.12l367.56 0c0.87,0 1.58,-0.7 1.58,-1.58l0 -6.07c0,-0.87 -0.71,-1.58 -1.58,-1.58l-367.56 0c-0.87,0 -1.58,0.71 -1.58,1.58l0 6.07c0,0.88 0.71,1.58 1.58,1.58z"/>
   <polygon class="fil24" points="596.97,849.12 913.25,849.12 928.53,629.28 618.59,629.28 "/>
   <polygon class="fil25" points="607.73,849.12 924.01,849.12 939.29,629.28 629.34,629.28 "/>
   <path class="fil14" d="M936.63 667.29l-12.62 181.65 -316.28 0 4.22 -42.94c166.47,-21.54 281.14,-102.84 324.68,-138.71z"/>
   <path class="fil26" d="M702.68 727.66c9.67,0 19.37,0 29.07,0 2.81,0 5.36,1.16 7.2,3 1.84,1.85 3,4.4 3,7.2 0,4.88 0,9.76 0,14.63 0,4.87 0,9.74 0,14.61 -9.61,0 -19.21,0 -28.81,0 -2.89,0 -5.52,-1.18 -7.4,-3.08 -1.89,-1.9 -3.06,-4.52 -3.06,-7.42 0,-4.82 0,-9.64 0,-14.46 0,-4.82 0,-9.65 0,-14.48zm24.78 3.47c2.28,0 4.4,0.79 5.93,2.1 2.68,2.28 3.97,6.05 3.27,9.42 -0.71,3.36 -3.42,6.33 -8.75,7.02 1.16,2.33 2.31,4.66 3.47,6.99 1.15,2.33 2.31,4.67 3.46,6.99 -2.64,0 -5.28,0 -7.91,0 -1.67,-3.34 -3.32,-6.69 -4.97,-10.03 -1.65,-3.33 -3.3,-6.68 -4.95,-10.03 3.47,0 6.93,0 10.39,0 4.31,0 4.67,-6.11 -0.28,-6.11 -5.19,0 -10.36,0 -15.54,0 -1.99,0 -3.64,-1.08 -3.64,-2.62 0,-1.24 0,-2.49 0,-3.73 6.51,0 13.02,0 19.52,0z"/>
   <path class="fil27" d="M765.2 739.57c0,4.19 -2,6.48 -6,6.87 0.97,1.71 1.96,3.43 2.94,5.14 0.97,1.7 1.98,3.42 2.97,5.12 -2.12,0 -4.22,0 -6.32,0 -0.99,-1.7 -1.98,-3.4 -2.95,-5.1 -0.98,-1.7 -1.95,-3.4 -2.93,-5.11 -0.16,0 -0.31,0 -0.46,0 0,1.71 0,3.41 0,5.11 0,1.7 0,3.4 0,5.1 -1.83,0 -3.65,0 -5.46,0 0,-4.25 0,-8.5 0,-12.75 0,-4.26 0,-8.51 0,-12.77 3.64,0 7.29,0 10.93,0 4.85,0 7.28,2.31 7.28,6.93 0,0.49 0,0.97 0,1.46zm-7.28 1.82c1.22,0 1.82,-0.61 1.82,-1.82 0,-0.49 0,-0.97 0,-1.46 0,-1.22 -0.6,-1.82 -1.82,-1.82 -1.83,0 -3.66,0 -5.47,0 0,1.7 0,3.4 0,5.1 1.81,0 3.64,0 5.47,0zm17.94 0c3.03,0 6.06,0 9.1,0 0,1.7 0,3.4 0,5.1 -3.04,0 -6.07,0 -9.1,0 0,1.71 0,3.41 0,5.11 3.64,0 7.29,0 10.93,0 0,1.7 0,3.4 0,5.1 -5.47,0 -10.93,0 -16.39,0 0,-4.25 0,-8.5 0,-12.75 0,-4.26 0,-8.51 0,-12.77 5.46,0 10.92,0 16.39,0 0,1.7 0,3.41 0,5.11 -3.64,0 -7.29,0 -10.93,0 0,1.7 0,3.4 0,5.1zm22.94 5.47c1.52,0 3.05,0 4.58,0 -0.77,-2.67 -1.53,-5.34 -2.3,-8.02 -0.76,2.68 -1.53,5.35 -2.28,8.02zm6.03 5.1c-2.5,0 -5.01,0 -7.5,0 -0.45,1.58 -0.9,3.17 -1.33,4.74 -1.83,0 -3.66,0 -5.48,0 1.22,-4.25 2.43,-8.5 3.65,-12.75 1.21,-4.26 2.43,-8.51 3.64,-12.77 2.18,0 4.37,0 6.56,0 1.21,4.26 2.42,8.51 3.64,12.77 1.21,4.25 2.43,8.5 3.64,12.75 -1.83,0 -3.66,0 -5.47,0 -0.45,-1.57 -0.9,-3.16 -1.35,-4.74zm17.1 -0.36c3.03,0 6.06,0 9.1,0 0,1.7 0,3.4 0,5.1 -3.04,0 -6.07,0 -9.1,0 -4.86,0 -7.29,-2.3 -7.29,-6.92 0,-1.95 0,-3.89 0,-5.83 0,-1.95 0,-3.89 0,-5.84 0,-4.61 2.43,-6.93 7.29,-6.93 3.03,0 6.06,0 9.1,0 0,1.7 0,3.41 0,5.11 -3.04,0 -6.07,0 -9.1,0 -1.22,0 -1.82,0.61 -1.82,1.82 0,1.95 0,3.89 0,5.84 0,1.94 0,3.88 0,5.83 0,1.21 0.6,1.82 1.82,1.82zm19.76 -15.31c-1.83,0 -3.64,0 -5.46,0 0,-1.7 0,-3.4 0,-5.11 5.46,0 10.92,0 16.41,0 0,1.71 0,3.41 0,5.11 -1.85,0 -3.68,0 -5.49,0 0,3.4 0,6.81 0,10.21 0,3.4 0,6.8 0,10.2 -1.83,0 -3.64,0 -5.46,0 0,-3.4 0,-6.8 0,-10.2 0,-3.4 0,-6.81 0,-10.21z"/>
   <path class="fil27" d="M757.26 764.2c-0.09,-0.75 -0.18,-1.51 -0.27,-2.26 -0.21,0.75 -0.4,1.51 -0.6,2.26 -0.22,0 -0.43,0 -0.64,0 -0.21,-0.74 -0.41,-1.49 -0.6,-2.23 -0.09,0.74 -0.18,1.49 -0.26,2.23 -0.22,0 -0.45,0 -0.67,0 0.13,-1.15 0.27,-2.3 0.4,-3.45 0.21,0 0.44,0 0.66,0 0.26,0.88 0.53,1.76 0.8,2.64 0.25,-0.88 0.52,-1.76 0.79,-2.64 0.21,0 0.44,0 0.66,0 0.14,1.15 0.27,2.3 0.41,3.45 -0.23,0 -0.45,0 -0.68,0zm5 -3.45c0.28,0 0.57,0 0.86,0 0.37,1.15 0.73,2.3 1.09,3.45 -0.24,0 -0.49,0 -0.71,0 -0.07,-0.24 -0.15,-0.48 -0.22,-0.72 -0.41,0 -0.8,0 -1.19,0 -0.07,0.24 -0.15,0.48 -0.21,0.72 -0.24,0 -0.48,0 -0.7,0 0.36,-1.15 0.72,-2.3 1.08,-3.45zm0.85 2.11c-0.15,-0.51 -0.28,-1.01 -0.42,-1.52 -0.15,0.51 -0.3,1.01 -0.43,1.52 0.28,0 0.57,0 0.85,0zm4.44 -2.12c0.46,0 0.94,0 1.42,0 0.3,0 0.54,0.09 0.72,0.26 0.18,0.15 0.27,0.44 0.27,0.85 0,0.29 -0.04,0.51 -0.15,0.65 -0.1,0.14 -0.22,0.24 -0.4,0.31 0.21,0.47 0.42,0.93 0.64,1.39 -0.24,0 -0.48,0 -0.7,0 -0.2,-0.42 -0.38,-0.85 -0.56,-1.28 -0.15,0 -0.33,0 -0.55,-0.01 0,0.43 0,0.86 0,1.29 -0.24,0 -0.47,0 -0.69,0 0,-1.15 0,-2.3 0,-3.46zm1.3 1.62c0.14,0 0.25,-0.03 0.32,-0.11 0.06,-0.07 0.1,-0.21 0.1,-0.4 0,-0.18 -0.04,-0.31 -0.1,-0.38 -0.07,-0.07 -0.18,-0.1 -0.32,-0.1 -0.21,0 -0.42,0 -0.61,0 0,0.33 0,0.66 0,0.99 0.19,0 0.4,0 0.61,0zm4.58 -1.62c0.22,0 0.45,0 0.69,0 0,0.48 0,0.96 0,1.43 0.15,0 0.3,0 0.46,0 0.23,-0.47 0.47,-0.95 0.71,-1.43 0.24,0 0.48,0 0.73,0 -0.3,0.58 -0.6,1.16 -0.88,1.74 0.3,0.58 0.6,1.15 0.91,1.72 -0.25,0 -0.49,0 -0.73,0 -0.26,-0.46 -0.5,-0.93 -0.74,-1.4 -0.16,0 -0.31,0 -0.46,0 0,0.47 0,0.94 0,1.4 -0.24,0 -0.47,0 -0.69,0 0,-1.15 0,-2.3 0,-3.46zm6.72 3.49c-0.23,0 -0.42,-0.06 -0.59,-0.15 -0.16,-0.1 -0.25,-0.31 -0.25,-0.62 0,-0.64 0,-1.28 0,-1.92 0,-0.28 0.07,-0.49 0.22,-0.61 0.16,-0.13 0.35,-0.19 0.56,-0.19 0.48,0 0.97,0.02 1.5,0.07 0,0.19 0,0.38 0,0.58 -0.44,0 -0.87,0 -1.29,0 -0.2,0 -0.3,0.09 -0.3,0.28 0,0.17 0,0.34 0,0.5 0.45,0.01 0.9,0.02 1.36,0.04 0,0.18 0,0.36 0,0.54 -0.46,0.02 -0.91,0.03 -1.36,0.04 0,0.16 0,0.32 0,0.48 0,0.2 0.09,0.3 0.28,0.3 0.44,0 0.87,0 1.31,0 0,0.2 0,0.39 0,0.58 -0.41,0.05 -0.9,0.08 -1.44,0.08zm5.62 -2.86c-0.32,0 -0.63,0 -0.94,0 0,-0.21 0,-0.42 0,-0.63 0.85,0 1.72,0 2.59,0 0,0.21 0,0.42 0,0.63 -0.33,0 -0.64,0 -0.96,0 0,0.94 0,1.89 0,2.83 -0.24,0 -0.47,0 -0.69,0 0,-0.94 0,-1.89 0,-2.83zm4.98 -0.63c0.22,0 0.45,0 0.69,0 0,1.16 0,2.31 0,3.46 -0.24,0 -0.47,0 -0.69,0 0,-1.15 0,-2.3 0,-3.46zm4.27 0c0.18,0 0.36,0 0.56,0 0.48,0.76 0.96,1.53 1.44,2.28 0,-0.75 0,-1.52 0,-2.28 0.22,0 0.45,0 0.69,0 0,1.16 0,2.31 0,3.46 -0.2,0 -0.38,0 -0.56,0 -0.48,-0.76 -0.96,-1.52 -1.44,-2.28 0,0.76 0,1.52 0,2.28 -0.24,0 -0.46,0 -0.69,0 0,-1.15 0,-2.3 0,-3.46zm7.19 3.49c-0.27,0 -0.49,-0.07 -0.65,-0.21 -0.15,-0.14 -0.26,-0.34 -0.33,-0.6 -0.07,-0.25 -0.09,-0.57 -0.09,-0.95 0,-0.4 0.04,-0.72 0.11,-0.97 0.06,-0.26 0.21,-0.45 0.39,-0.58 0.18,-0.14 0.45,-0.21 0.78,-0.21 0.22,0 0.42,0.01 0.6,0.04 0.18,0.03 0.37,0.06 0.57,0.11 0,0.18 0,0.36 0,0.54 -0.12,-0.02 -0.27,-0.03 -0.47,-0.05 -0.18,-0.01 -0.37,-0.02 -0.57,-0.02 -0.19,0 -0.34,0.04 -0.45,0.11 -0.1,0.07 -0.17,0.18 -0.21,0.34 -0.03,0.16 -0.06,0.39 -0.06,0.7 0,0.3 0.03,0.53 0.06,0.69 0.04,0.16 0.1,0.27 0.18,0.33 0.09,0.06 0.21,0.09 0.36,0.09 0.12,0 0.24,-0.01 0.36,-0.03 0.11,-0.02 0.21,-0.04 0.3,-0.07 0,-0.22 0,-0.45 0,-0.67 -0.21,0 -0.42,0 -0.63,0 0,-0.18 0,-0.36 0,-0.55 0.09,-0.01 0.23,-0.02 0.38,-0.03 0.14,-0.01 0.28,-0.02 0.42,-0.02 0.19,0 0.36,0.01 0.49,0.02 0,0.65 0,1.31 0,1.96 -0.18,0 -0.36,0 -0.52,0 -0.03,-0.07 -0.06,-0.15 -0.09,-0.23 -0.12,0.07 -0.26,0.13 -0.42,0.18 -0.17,0.05 -0.33,0.08 -0.51,0.08zm7.49 -3.49c0.48,0 0.98,0 1.47,0 0.44,0 0.75,0.15 0.93,0.45 0.18,0.3 0.27,0.73 0.27,1.28 0,0.58 -0.09,1.02 -0.3,1.31 -0.2,0.28 -0.49,0.42 -0.9,0.42 -0.49,0 -0.99,0 -1.47,0 0,-1.15 0,-2.3 0,-3.46zm1.4 2.84c0.21,0 0.36,-0.09 0.45,-0.27 0.09,-0.18 0.13,-0.47 0.13,-0.84 0,-0.29 -0.01,-0.52 -0.06,-0.68 -0.04,-0.16 -0.11,-0.27 -0.19,-0.33 -0.08,-0.06 -0.2,-0.09 -0.33,-0.09 -0.24,0 -0.48,0 -0.71,0 0,0.74 0,1.47 0,2.21 0.23,0 0.47,0 0.71,0zm4.74 -2.84c0.22,0 0.45,0 0.69,0 0,1.16 0,2.31 0,3.46 -0.24,0 -0.47,0 -0.69,0 0,-1.15 0,-2.3 0,-3.46zm5.22 3.49c-0.27,0 -0.49,-0.07 -0.65,-0.21 -0.15,-0.14 -0.25,-0.34 -0.31,-0.6 -0.06,-0.25 -0.11,-0.57 -0.11,-0.95 0,-0.4 0.05,-0.72 0.12,-0.97 0.07,-0.25 0.2,-0.45 0.38,-0.58 0.18,-0.14 0.45,-0.21 0.78,-0.21 0.22,0 0.43,0.01 0.6,0.04 0.18,0.03 0.37,0.06 0.57,0.11 0,0.18 0,0.36 0,0.54 -0.12,-0.02 -0.27,-0.03 -0.47,-0.05 -0.18,-0.01 -0.37,-0.02 -0.57,-0.02 -0.19,0 -0.34,0.04 -0.45,0.11 -0.1,0.07 -0.17,0.18 -0.21,0.34 -0.04,0.16 -0.04,0.39 -0.04,0.7 0,0.3 0,0.53 0.04,0.69 0.04,0.16 0.1,0.27 0.18,0.33 0.09,0.06 0.21,0.09 0.36,0.09 0.12,0 0.24,-0.01 0.36,-0.03 0.11,-0.02 0.21,-0.04 0.3,-0.07 0,-0.22 0,-0.45 0,-0.67 -0.21,0 -0.42,0 -0.63,0 0,-0.18 0,-0.36 0,-0.55 0.11,-0.01 0.23,-0.02 0.38,-0.03 0.15,-0.01 0.28,-0.02 0.43,-0.02 0.18,0 0.35,0.01 0.48,0.02 0,0.65 0,1.31 0,1.96 -0.18,0 -0.36,0 -0.52,0 -0.03,-0.07 -0.06,-0.15 -0.09,-0.23 -0.12,0.07 -0.26,0.13 -0.42,0.18 -0.17,0.05 -0.33,0.08 -0.51,0.08zm5.1 -3.49c0.22,0 0.44,0 0.69,0 0,1.16 0,2.31 0,3.46 -0.25,0 -0.47,0 -0.69,0 0,-1.15 0,-2.3 0,-3.46zm4.96 0.63c-0.32,0 -0.63,0 -0.95,0 0,-0.21 0,-0.42 0,-0.63 0.86,0 1.73,0 2.6,0 0,0.21 0,0.42 0,0.63 -0.33,0 -0.65,0 -0.96,0 0,0.94 0,1.89 0,2.83 -0.24,0 -0.47,0 -0.69,0 0,-0.94 0,-1.89 0,-2.83zm5.61 -0.63c0.28,0 0.57,0 0.87,0 0.36,1.16 0.72,2.31 1.08,3.46 -0.24,0 -0.48,0 -0.71,0 -0.07,-0.24 -0.15,-0.48 -0.22,-0.72 -0.41,0 -0.8,0 -1.19,0 -0.07,0.24 -0.15,0.48 -0.21,0.72 -0.24,0 -0.48,0 -0.7,0 0.36,-1.15 0.72,-2.3 1.08,-3.46zm0.85 2.12c-0.15,-0.51 -0.28,-1.01 -0.42,-1.52 -0.15,0.51 -0.3,1.01 -0.43,1.52 0.28,0 0.57,0 0.85,0zm5.25 1.34c-0.27,0 -0.48,-0.06 -0.61,-0.19 -0.14,-0.13 -0.2,-0.34 -0.2,-0.63 0,-0.88 0,-1.75 0,-2.64 0.23,0 0.45,0 0.69,0 0,0.85 0,1.69 0,2.53 0,0.21 0.11,0.3 0.3,0.3 0.36,0 0.72,0 1.1,0 0,0.21 0,0.42 0,0.63 -0.44,0 -0.86,0 -1.28,0z"/>
  </g>
 </g>
</svg>
