<?xml version="1.0" encoding="UTF-8"?>
<!DOCTYPE svg PUBLIC "-//W3C//DTD SVG 1.1//EN" "http://www.w3.org/Graphics/SVG/1.1/DTD/svg11.dtd">
<!-- Creator: CorelDRAW 2020 (64 Bit) -->
<svg xmlns="http://www.w3.org/2000/svg" xml:space="preserve" width="25.6538mm" height="23.7066mm" version="1.1" style="shape-rendering:geometricPrecision; text-rendering:geometricPrecision; image-rendering:optimizeQuality; fill-rule:evenodd; clip-rule:evenodd"
viewBox="0 0 2565.38 2370.66"
 xmlns:xlink="http://www.w3.org/1999/xlink"
 xmlns:xodm="http://www.corel.com/coreldraw/odm/2003">
 <defs>
  <style type="text/css">
   <![CDATA[
    .fil0 {fill:#E60000}
   ]]>
  </style>
 </defs>
 <g id="Camada_x0020_1">
  <metadata id="CorelCorpID_0Corel-Layer"/>
  <g id="_1779171188096">
   <path class="fil0" d="M597.2 1787.73l121.58 -70.32c17.42,-9.57 26.13,-19.15 46.33,-20.84l126.77 223.47c22.3,37.93 122.71,199.7 122.71,232.31 0,90.5 -111.43,127.07 -166.66,65.92l-250.73 -430.54zm249.47 -143.93l81.56 -47.98c11.12,21.01 41.88,70.7 43.18,86.36 -29.86,6.96 -51.54,35.88 -81.56,38.38 -14,-26.46 -29.46,-50.84 -43.18,-76.76zm-455.77 115.14c-219.02,0 -330.04,-263.64 -162.15,-416.42 10.63,-9.68 11.56,-10.98 23.87,-19.31 18.87,-12.77 33.81,-20.1 54.02,-32.34l276.41 -160.17c22.1,-12.72 41.76,-27.34 62.12,-29.03 4.64,19.92 15.59,32.73 25.64,51.12 10.06,18.42 18.89,33.64 29.84,51.72 21.1,34.85 41.01,68.96 59.67,103.46 9.04,16.72 19.44,32.31 28.54,48.21 15.53,27.13 81.67,136.9 86.6,158.08l-347.52 199.41c-35.61,21.57 -82.65,45.27 -137.04,45.27zm326.24 -724.44l15.11 -18.47c6.98,-9.18 9.55,-12.29 16.98,-21.4 12.65,-15.5 20.85,-27.53 33.57,-43.2 24.13,-29.73 43.45,-56.59 67.57,-85.95 87.5,-106.49 178.52,-230.8 268.28,-341.02 24.06,-29.54 43.06,-56.7 67.15,-86.37l68.67 -84.85 412.87 719.37c23.39,38.78 44.16,78.34 68.41,118.7l70.45 121.45c-31.61,0 -372.21,72.3 -418.71,80.25l-416.08 82.87c-10.13,-19.15 -20.94,-34.23 -31.94,-54.42l-157.92 -273.86c-11.81,-19.96 -20.2,-36.3 -31.07,-55.29 -11.16,-19.51 -22.24,-36.84 -33.34,-57.81zm1017.1 -431.79c25.25,0 26.23,-3.64 47.95,-4.82 18.01,-0.97 39.22,0.03 57.59,0.03 4.72,20.26 19.26,39.14 29.74,56.61l32.63 53.73c-13,19.42 -46.45,75.7 -62.37,86.36 -5.08,-19.05 -83.2,-141.9 -105.54,-191.91zm-364.62 -374.21c32.23,0 35.98,4.71 59.08,46.46l257.81 447.45c30.04,52.19 292.4,499.72 292.4,513.59 0,42.43 -33.99,52.77 -76.76,52.77 -5.18,-22.25 -57.56,-105.71 -69.94,-126.76l-147.43 -255.56c-12.88,-23.14 -24.46,-42.92 -36.65,-64.1 -12.65,-21.97 -24.58,-40.99 -36.99,-63.77 -24.1,-44.24 -47.95,-80.78 -71.96,-124.74l-222.34 -382.16c4.23,-6.32 14.9,-21.34 20.38,-27.6 8.4,-9.59 15.87,-15.58 32.4,-15.58zm-1319.35 1271.37c0,83.23 4.87,118.16 46.39,193.49 63.55,115.28 194.89,172.39 332.24,161.22 33.55,-2.73 55.26,-16.66 81.94,-18.88 54.15,80.87 207.4,372.12 254.9,435.96 135.28,181.83 442.34,13.9 314.44,-223.28 -14.63,-27.14 -29.73,-53.07 -45.48,-79.26 -16.13,-26.84 -30.51,-51.09 -45.74,-78.99l-46.33 -83.21c16.5,-3.85 25.58,-12.08 41.53,-20.84 130.62,-71.69 122.98,-72.49 75.09,-158.15 -9.82,-17.56 -30.95,-48.05 -35.06,-65.69 31.15,0 797.84,-154.21 851.97,-165.12 53.21,-10.72 91.95,-10.9 133.23,-34.69 55.96,-32.27 65.48,-84.9 65.48,-140.82 0,-36.4 -63.71,-135.12 -84.32,-169.96l-93.19 -161.08c4.67,-5.37 -0.91,1.93 6.53,-7.86 4.25,-5.6 4.68,-6.43 7.93,-11.26l44.06 -66.28c71.67,-107.51 75.77,-73.54 -37.23,-262.13 -33.43,-55.79 -29.23,-50.54 -141.49,-41.33l-100.5 5.05c-46.85,-69.96 -147.99,-266.18 -185.58,-318.16 -59.81,-82.69 -174.87,-75.01 -227.81,-8.87l-592.73 755.4c-42.41,57.18 -36.4,53.85 -86.26,81.66l-373.8 216.3 -69.75 55c-5.05,5.52 -13.85,17.37 -19.17,24.01 -38.53,48.14 -71.29,121.98 -71.29,187.77z"/>
   <path class="fil0" d="M2142.03 415.61c0,43.05 35.69,57.57 43.18,57.57 15.32,0 34.75,-9.52 46.47,-15.91l209.42 -116.81c34.93,-17.7 65.55,-31.6 65.55,-68.78 0,-24.56 -25.23,-47.98 -47.97,-47.98 -19.74,0 -213.31,112.7 -247.88,131.13 -19.16,10.22 -68.77,34.17 -68.77,60.78z"/>
   <path class="fil0" d="M381.3 1567.04c-27.57,0 -44.38,-47.98 -71.96,-47.98 -107.43,0 -38.19,143.93 57.57,143.93 69.82,0 72.78,-4.47 132.24,-40.47 22.08,-13.38 96.73,-42.14 56.77,-95.54 -7.31,-9.76 -11.16,-13.27 -21.94,-17.11 -47.33,-16.86 -103.33,57.17 -152.68,57.17z"/>
   <path class="fil0" d="M2161.23 722.65c0,25.72 13.97,42.85 35.54,50.82 9.32,3.44 20.55,5.06 30.62,7.76 33.66,9.01 144.36,42.17 168.92,42.17 42.32,0 65.69,-53.1 31.05,-83.82 -9.45,-8.38 -25,-12.88 -36.34,-16.43l-171.72 -44.75c-16.59,-2.49 -22.21,-2.86 -37.09,7.45 -12,8.3 -20.98,18.6 -20.98,36.8z"/>
   <path class="fil0" d="M1935.74 305.26c26.69,0 40.14,-14.32 48.13,-33.43l52.62 -201.65c0,-29.28 -21.41,-47.98 -52.78,-47.98 -48.42,0 -51.81,73.75 -71.39,139.71l-22.29 83.82c-2.86,17.52 -0.09,26.53 8.96,38.64 6.35,8.47 24.81,20.89 36.75,20.89z"/>
   <path class="fil0" d="M635.58 1456.69c0,70.68 95.95,68.1 95.95,0 0,-59.29 -95.95,-60.85 -95.95,0z"/>
  </g>
 </g>
</svg>
