<?xml version="1.0" encoding="UTF-8"?>
<!DOCTYPE svg PUBLIC "-//W3C//DTD SVG 1.1//EN" "http://www.w3.org/Graphics/SVG/1.1/DTD/svg11.dtd">
<!-- Creator: CorelDRAW 2019 (64 Bit) -->
<svg xmlns="http://www.w3.org/2000/svg" xml:space="preserve" width="1250px" height="850px" version="1.1" style="shape-rendering:geometricPrecision; text-rendering:geometricPrecision; image-rendering:optimizeQuality; fill-rule:evenodd; clip-rule:evenodd"
viewBox="0 0 1250 850"
 xmlns:xlink="http://www.w3.org/1999/xlink">
 <defs>
  <style type="text/css">
   <![CDATA[
    .fil1 {fill:none;fill-rule:nonzero}
    .fil22 {fill:#99B8D3}
    .fil2 {fill:#00AED6;fill-rule:nonzero}
    .fil3 {fill:#00B6D8;fill-rule:nonzero}
    .fil11 {fill:#161119;fill-rule:nonzero}
    .fil20 {fill:#25476D;fill-rule:nonzero}
    .fil19 {fill:#345C94;fill-rule:nonzero}
    .fil8 {fill:#3E3144;fill-rule:nonzero}
    .fil5 {fill:#4B3C50;fill-rule:nonzero}
    .fil7 {fill:#6E06B8;fill-rule:nonzero}
    .fil6 {fill:#7808C8;fill-rule:nonzero}
    .fil23 {fill:#99B8D3;fill-rule:nonzero}
    .fil21 {fill:#C4E1F8;fill-rule:nonzero}
    .fil10 {fill:#D88C6C;fill-rule:nonzero}
    .fil9 {fill:#E8A17E;fill-rule:nonzero}
    .fil17 {fill:#FFA748;fill-rule:nonzero}
    .fil14 {fill:#FFCE45;fill-rule:nonzero}
    .fil4 {fill:white;fill-rule:nonzero}
    .fil18 {fill:white;fill-rule:nonzero}
    .fil13 {fill:#25476D;fill-rule:nonzero;fill-opacity:0.070588}
    .fil15 {fill:#345C94;fill-rule:nonzero;fill-opacity:0.109804}
    .fil0 {fill:#C4E1F8;fill-rule:nonzero;fill-opacity:0.309804}
    .fil16 {fill:#00B6D8;fill-rule:nonzero;fill-opacity:0.380392}
    .fil12 {fill:#F17B52;fill-rule:nonzero;fill-opacity:0.450980}
   ]]>
  </style>
 </defs>
 <g id="Camada_x0020_1">
  <metadata id="CorelCorpID_0Corel-Layer"/>
  <g id="_3112137378224">
   <g>
    <path class="fil0" d="M930.28 732.25c51.74,-2.38 102.54,-24.36 127.37,-62.13 22.97,-34.94 27.23,-89.06 16.96,-127.94 -8.63,-32.64 -33.27,-60.89 -61.38,-84.81 -56.78,-48.32 -129.95,-83.38 -177.94,-137.88 -26.67,-30.29 -44.42,-65.4 -70.07,-96.3 -49.87,-60.08 -132.45,-102.71 -220.25,-105.32 -87.81,-2.61 -177.71,38.41 -214.19,104.79 -31.39,57.11 -23.21,126.32 -61.85,180.27 -17.76,24.8 -44.24,44.5 -63.75,68.37 -34.71,42.49 -45.2,98.02 -27.82,147.29 17.39,49.28 62.3,91.33 119.13,111.54l633.79 2.12z"/>
    <path class="fil0" d="M361.49 727.52c-36.09,-1.57 -71.52,-16.05 -88.84,-40.95 -16.02,-23.03 -18.99,-58.7 -11.83,-84.32 6.02,-21.51 23.21,-40.13 42.81,-55.89 39.6,-31.85 90.63,-54.95 124.11,-90.88 18.6,-19.96 40.86,-66.07 58.74,-86.43 34.78,-39.6 76.08,-65.6 137,-72.09 78.54,-8.36 130.68,50.96 156.13,94.71 21.89,37.64 16.18,83.25 43.13,118.81 12.39,16.34 30.86,29.32 44.46,45.06 24.21,28 31.53,64.6 19.41,97.07 -12.13,32.48 -43.45,60.19 -83.09,73.51l-442.03 1.4z"/>
    <g>
     <path class="fil1" d="M907.08 696.78l1.14 8.82c-3.43,-0.18 -5.93,-1.4 -7.06,-2.78 -0.69,-0.86 -0.85,-1.76 -0.5,-2.75 0.71,-2.06 3.62,-2.95 6.42,-3.29z"/>
     <path class="fil2" d="M859.92 681.77c2.68,-7.64 10.61,-10.58 17.71,-11.65 15.53,24.3 34.93,29.14 45.55,29.78l-3.09 18.21 -34.99 0 -1.87 -14.54c-8.87,-0.16 -16.72,-3.19 -20.93,-8.39 -3.19,-3.93 -4.03,-8.7 -2.38,-13.41zm9.1 7.97l0 0c2.09,2.57 6.73,4.82 13.09,5.16l-2.11 -16.37c-5.19,0.64 -10.58,2.29 -11.92,6.11 -0.65,1.84 -0.34,3.51 0.94,5.1z"/>
     <path class="fil3" d="M877.63 670.12c0.42,-0.07 0.85,-0.15 1.26,-0.2l-2.11 -16.42c-0.13,-0.97 0.63,-1.83 1.61,-1.83l50.84 0c1.12,0 1.97,1 1.78,2.11l-7.83 46.12c-10.62,-0.64 -30.02,-5.48 -45.55,-29.78z"/>
     <path class="fil4" d="M900.96 644.84c5.06,-2.68 9.88,-12.37 11.87,-16.86 2,-4.48 2.57,-9.84 0.37,-14.22 -1.87,-3.7 -5.44,-6.25 -7.66,-9.74 -2.3,-3.61 -3.02,-8.18 -1.94,-12.32 1.51,-5.83 6.29,-10.47 7.38,-16.4 1.29,-6.94 -2.75,-13.62 -4.51,-20.46 -1.63,-6.29 -1.31,-13.08 0.9,-19.19 -4.93,2.93 -7.88,8.23 -10.6,13.28 -2.48,4.61 -5.04,9.55 -4.68,14.77 0.22,3.29 1.6,6.37 2.75,9.46 2.09,5.58 3.51,11.71 2.02,17.49 -2.25,8.73 -10.84,15.55 -10.5,24.56 0.2,5.34 3.65,10.08 7.82,13.42 2.72,2.17 5.85,3.99 7.76,6.9 1.9,2.91 1.97,7.46 -0.98,9.31z"/>
    </g>
    <path class="fil5" d="M590.19 380.75c4.04,9.39 7.15,18.48 8.65,27.81 1.51,9.34 2.03,18.85 4.35,28.02 2.05,8.1 5.47,15.78 9.14,23.28 0.34,0.69 0.68,1.4 0.68,2.16 -0.01,1.49 -1.29,2.62 -2.49,3.5 -18.23,13.34 -43.51,16.35 -64.36,7.67l44.03 -92.44z"/>
    <path class="fil6" d="M577.07 421.35c0,12.35 8.05,22.36 17.97,22.36 9.92,0 17.97,-10.01 17.97,-22.36 0,-12.35 -8.05,-22.36 -17.97,-22.36 -9.92,0 -17.97,10.01 -17.97,22.36z"/>
    <path class="fil7" d="M568.62 424.51c0,12.35 8.04,22.36 17.97,22.36 9.92,0 17.97,-10.01 17.97,-22.36 0,-12.34 -8.05,-22.35 -17.97,-22.35 -9.93,0 -17.97,10.01 -17.97,22.35z"/>
    <path class="fil8" d="M546.16 473.26l37.49 -78.72c4.15,13.83 8.3,27.66 12.22,41.56 1.3,4.63 2.59,9.29 3.02,14.08 0.37,4.18 0.08,8.43 -0.85,12.52 -0.92,3.99 -2.51,7.93 -5.3,10.92 -0.51,0.54 -1.09,0.99 -1.65,1.47 -14.64,4.45 -30.79,4.06 -44.93,-1.83z"/>
    <path class="fil9" d="M554.04 470.55c-1.7,9.56 -3.1,20.4 2.82,28.08 1.3,1.69 3,3.33 3.09,5.46 0.12,2.79 -2.54,4.83 -5.03,6.08 -9.64,4.83 -21.3,5.43 -31.38,1.63 -0.84,-0.32 -1.7,-0.69 -2.26,-1.38 -1.27,-1.57 -0.46,-3.88 0.32,-5.74 7.16,-17.1 6.96,-37.14 -0.55,-54.08l32.99 19.95z"/>
    <path class="fil10" d="M554.88 467.77c-1.65,6.71 -2.74,13.17 -2.01,20.04 0.03,0.24 0.04,0.51 -0.12,0.68 -0.22,0.23 -0.59,0.14 -0.89,0.03 -2.2,-0.79 -4.43,-1.6 -6.36,-2.92 -3.26,-2.22 -7.1,-6.31 -8.77,-9.88 -2.32,-4.94 -3.46,-9.77 -3.04,-15.2l21.19 7.25z"/>
    <path class="fil9" d="M576.97 382.05c6.8,7.6 8.39,18.44 9.29,28.61 0.79,8.96 1.27,18.02 0,26.92 -1.27,8.91 -4.4,17.72 -10.15,24.63 -2.43,2.91 -5.3,5.46 -8.48,7.52 -2.19,1.42 -4.56,2.62 -7.11,3.17 -4.85,1.04 -9.87,-0.35 -14.59,-1.88 -10.76,-3.49 -21.84,-8.21 -28.48,-17.37 -8.65,-11.94 -14.37,-43.35 -16.62,-57.92l76.14 -13.68z"/>
    <path class="fil10" d="M590.52 391.31c-10.05,8.71 -22.54,14.56 -35.66,16.73 -7.61,1.25 -15.36,1.28 -23.07,1.12 -2.88,-0.06 -5.79,-0.15 -8.6,-0.84 -3.89,-0.95 -7.59,-3.15 -9.71,-6.55 -2.13,-3.39 -2.41,-8.04 -0.16,-11.35l77.2 0.89z"/>
    <path class="fil5" d="M503.7 351.51c19.18,-9.27 46.94,-7.35 60.9,0.64 13.96,7.99 19.74,15.14 27.02,31.8 0.44,0.99 2.96,7.12 2.58,8.14 -0.38,1.01 -0.87,1.57 -1.88,1.95 -17.23,6.59 -32.39,7.77 -50.82,8.68 -6.13,0.31 -12.36,0.32 -18.33,-1.13 -8.45,28.33 -4.05,48.63 10.03,74.63 -9.17,3.86 -44.79,6.08 -61.74,-7.05 -4.37,-3.39 -8.36,-7.4 -11.02,-12.26 -6.74,-12.31 -3.84,-27.49 -0.18,-41.04 2.73,-10.08 5.82,-20.16 10.77,-29.35 7.61,-14.13 17.94,-28.65 32.67,-35.01z"/>
    <path class="fil4" d="M570.87 444.46c-1.39,4.33 -3,8.32 -6.83,10.77 -3.79,2.43 -8.86,2.15 -12.94,0.24 -4.08,-1.92 -7.96,-6.71 -10.81,-10.2 9.9,0.93 20.79,0.92 30.58,-0.81z"/>
    <path class="fil8" d="M491.35 467.23c1.17,-0.92 2.22,-2.05 2.78,-3.43 1.08,-2.68 0.14,-5.7 -0.69,-8.47 -1.41,-4.68 -2.5,-9.54 -2.33,-14.43 0.18,-4.89 1.7,-9.86 4.97,-13.5 4.75,-5.27 12.2,-6.94 19.14,-8.33 1.46,-0.29 2.92,-0.59 4.38,-0.88 -2.6,20.31 2.35,37.4 13.52,58.03 -9.16,3.86 -44.78,6.08 -61.73,-7.05 -0.62,-0.48 -1.21,-1.01 -1.81,-1.51 1.04,0.58 2.07,1.18 3.2,1.61 6.07,2.37 13.46,2.02 18.57,-2.04z"/>
    <path class="fil11" d="M553.83 418.92c4.78,-2.54 8.44,-0.11 8.49,-0.08l0.92 -1.36c-0.18,-0.12 -4.53,-3.01 -10.17,-0.01l0.76 1.45z"/>
    <polygon class="fil11" points="519.53,418.46 523.81,418.38 523.81,416.75 519.75,416.75 "/>
    <polygon class="fil10" points="559.36,421.87 564.54,437.78 556.38,438.44 "/>
    <path class="fil8" d="M543.15 409.22c-0.33,-0.2 -0.68,-0.37 -1.03,-0.54 -0.21,-0.1 -0.42,-0.19 -0.63,-0.28 0.07,0.03 0.15,0.06 0.23,0.1 -0.53,-0.23 -1.08,-0.43 -1.63,-0.61 -0.68,-0.21 -1.38,-0.39 -2.08,-0.54 -0.45,-0.09 -0.9,-0.17 -1.36,-0.23 0.09,0.01 0.17,0.02 0.26,0.04 -1.31,-0.18 -2.64,-0.22 -3.96,-0.13 -0.41,0.03 -0.81,0.07 -1.22,0.12 0.09,-0.01 0.18,-0.02 0.26,-0.03 -1.33,0.18 -2.65,0.5 -3.92,0.95 -0.39,0.14 -0.78,0.29 -1.16,0.45 0.08,-0.03 0.16,-0.06 0.24,-0.1 -1.43,0.61 -2.79,1.37 -4.07,2.24 -0.2,0.14 -0.52,0.16 -0.75,0.1 -0.23,-0.06 -0.48,-0.24 -0.59,-0.45 -0.12,-0.23 -0.18,-0.5 -0.1,-0.76 0.08,-0.25 0.23,-0.43 0.45,-0.58 2.01,-1.38 4.23,-2.47 6.56,-3.15 1.91,-0.55 3.91,-0.83 5.9,-0.8 1.63,0.02 3.27,0.24 4.85,0.63 1.17,0.3 2.3,0.7 3.4,1.19 0.45,0.2 0.91,0.41 1.33,0.67 0,0.01 0.01,0.01 0.02,0.01 0.21,0.14 0.38,0.35 0.45,0.59 0.06,0.24 0.03,0.55 -0.1,0.76 -0.14,0.21 -0.34,0.39 -0.59,0.45 -0.25,0.06 -0.53,0.04 -0.76,-0.1z"/>
    <path class="fil8" d="M569.59 409.34c0.29,-0.26 0.6,-0.49 0.92,-0.72 0.18,-0.14 0.38,-0.27 0.57,-0.4 -0.07,0.05 -0.14,0.1 -0.21,0.14 0.48,-0.31 0.98,-0.61 1.49,-0.88 0.63,-0.34 1.28,-0.65 1.94,-0.92 0.43,-0.17 0.87,-0.33 1.3,-0.47 -0.08,0.03 -0.16,0.05 -0.25,0.08 1.26,-0.41 2.56,-0.7 3.87,-0.85 0.41,-0.04 0.82,-0.07 1.22,-0.1 -0.08,0.01 -0.17,0.01 -0.26,0.02 1.35,-0.07 2.7,0.01 4.03,0.22 0.41,0.06 0.82,0.14 1.22,0.23 -0.08,-0.02 -0.16,-0.04 -0.25,-0.05 1.52,0.33 -0.49,1.36 2.28,0.63 0.26,-0.07 -1.81,-2.68 -4.23,-2.92 -1.98,-0.19 -4,-0.1 -5.94,0.29 -1.6,0.31 -3.17,0.83 -4.66,1.51 -1.09,0.5 -2.13,1.1 -3.13,1.78 -0.4,0.28 -0.81,0.58 -1.18,0.91 0,0 -0.01,0.01 -0.01,0.01 -0.19,0.17 -0.32,0.41 -0.34,0.66 -0.02,0.24 0.06,0.55 0.23,0.73 0.17,0.18 0.41,0.32 0.66,0.33 0.26,0.02 0.53,-0.05 0.73,-0.23z"/>
    <path class="fil8" d="M542.54 420.17c-0.04,-0.05 -0.07,-0.09 -0.1,-0.13 0.03,0.04 0.06,0.07 0.09,0.11 -0.13,-0.16 -0.27,-0.32 -0.41,-0.48 -0.22,-0.24 -0.45,-0.47 -0.69,-0.69 -0.17,-0.15 -0.35,-0.3 -0.52,-0.43 0.03,0.03 0.07,0.06 0.11,0.09 -0.43,-0.33 -0.88,-0.63 -1.36,-0.87 -0.15,-0.07 -0.3,-0.14 -0.45,-0.2 0.05,0.01 0.09,0.03 0.14,0.05 -0.43,-0.18 -0.87,-0.32 -1.33,-0.41 -0.13,-0.03 -0.27,-0.05 -0.41,-0.07 0.05,0.01 0.1,0.02 0.15,0.02 -0.43,-0.05 -0.88,-0.07 -1.32,-0.04 -0.13,0.01 -0.27,0.03 -0.4,0.05 0.05,-0.01 0.1,-0.02 0.15,-0.02 -0.5,0.06 -0.99,0.19 -1.46,0.36 -0.15,0.05 -0.3,0.11 -0.44,0.17 0.04,-0.02 0.09,-0.04 0.13,-0.06 -0.64,0.27 -1.26,0.62 -1.83,1.02 -0.18,0.13 -0.36,0.26 -0.54,0.4 0.04,-0.03 0.08,-0.06 0.11,-0.09 -0.15,0.12 -0.3,0.24 -0.44,0.36 -0.12,0.1 -0.24,0.17 -0.4,0.17 -0.14,0 -0.3,-0.07 -0.4,-0.17 -0.1,-0.11 -0.17,-0.25 -0.16,-0.39 0.01,-0.15 0.05,-0.31 0.16,-0.4 0.65,-0.55 1.34,-1.05 2.08,-1.45 0.62,-0.34 1.28,-0.63 1.96,-0.81 0.59,-0.17 1.21,-0.26 1.82,-0.27 0.56,-0.01 1.12,0.05 1.66,0.16 0.5,0.11 0.98,0.29 1.46,0.5 0.39,0.17 0.77,0.38 1.13,0.62 0.36,0.24 0.7,0.5 1.03,0.78 0.24,0.21 0.48,0.43 0.7,0.66 0.15,0.16 0.31,0.33 0.45,0.51 0.1,0.12 0.2,0.24 0.28,0.37 0.01,0 0.01,0.01 0.01,0.01 0.08,0.11 0.09,0.3 0.06,0.43 -0.04,0.13 -0.14,0.27 -0.26,0.34 -0.13,0.07 -0.29,0.1 -0.43,0.05 -0.14,-0.04 -0.25,-0.13 -0.33,-0.25z"/>
    <path class="fil8" d="M583.24 418.7c-0.03,-0.05 -0.06,-0.09 -0.1,-0.13 0.03,0.04 0.06,0.07 0.09,0.11 -0.13,-0.16 -0.26,-0.32 -0.4,-0.48 -0.22,-0.24 -0.46,-0.47 -0.7,-0.69 -0.17,-0.15 -0.34,-0.29 -0.52,-0.43 0.04,0.03 0.08,0.06 0.11,0.08 -0.42,-0.32 -0.88,-0.62 -1.36,-0.86 -0.14,-0.07 -0.29,-0.14 -0.44,-0.2 0.04,0.01 0.09,0.03 0.13,0.05 -0.43,-0.18 -0.87,-0.32 -1.32,-0.41 -0.14,-0.02 -0.27,-0.05 -0.41,-0.07 0.05,0.01 0.1,0.02 0.15,0.02 -0.44,-0.05 -0.88,-0.07 -1.33,-0.03 -0.13,0 -0.26,0.02 -0.4,0.04 0.05,-0.01 0.1,-0.02 0.15,-0.02 -0.5,0.07 -0.98,0.19 -1.46,0.36 -0.15,0.05 -0.29,0.11 -0.44,0.17 0.04,-0.02 0.09,-0.04 0.13,-0.06 -0.64,0.27 -1.25,0.62 -1.83,1.02 -0.18,0.13 -0.36,0.26 -0.54,0.4 0.04,-0.03 0.08,-0.06 0.12,-0.09 -0.15,0.12 -0.3,0.24 -0.45,0.36 -0.12,0.1 -0.24,0.17 -0.4,0.17 -0.13,0 -0.3,-0.06 -0.39,-0.17 -0.1,-0.1 -0.17,-0.25 -0.17,-0.39 0.01,-0.15 0.05,-0.31 0.17,-0.4 0.65,-0.54 1.33,-1.05 2.08,-1.45 0.62,-0.34 1.27,-0.63 1.96,-0.81 0.59,-0.17 1.2,-0.26 1.82,-0.27 0.55,-0.01 1.11,0.05 1.65,0.17 0.51,0.11 0.99,0.28 1.46,0.49 0.39,0.17 0.77,0.38 1.13,0.62 0.36,0.24 0.71,0.5 1.03,0.78 0.25,0.21 0.48,0.43 0.7,0.66 0.16,0.16 0.31,0.33 0.45,0.51 0.1,0.12 0.2,0.24 0.29,0.37 0,0 0,0.01 0.01,0.01 0.08,0.12 0.09,0.3 0.05,0.43 -0.03,0.13 -0.13,0.27 -0.25,0.34 -0.13,0.07 -0.29,0.1 -0.44,0.06 -0.14,-0.05 -0.24,-0.14 -0.33,-0.26z"/>
    <path class="fil12" d="M523.13 434.68c0,3.88 3.14,7.03 7.02,7.03 3.88,0 7.02,-3.15 7.02,-7.03 0,-3.88 -3.14,-7.02 -7.02,-7.02 -3.88,0 -7.02,3.14 -7.02,7.02z"/>
    <path class="fil12" d="M574.75 431.95c0,3.27 2.65,5.92 5.92,5.92 3.27,0 5.92,-2.65 5.92,-5.92 0,-3.27 -2.65,-5.92 -5.92,-5.92 -3.27,0 -5.92,2.65 -5.92,5.92z"/>
    <path class="fil11" d="M577.72 434.31c8.56,0 15.52,-6.97 15.52,-15.53 0,-8.56 -6.96,-15.53 -15.52,-15.53 -8.55,0 -15.51,6.97 -15.51,15.53 0,8.56 6.96,15.53 15.51,15.53zm0 -29.27l0 0c7.57,0 13.73,6.17 13.73,13.74 0,7.57 -6.16,13.74 -13.73,13.74 -7.57,0 -13.73,-6.17 -13.73,-13.74 0,-7.57 6.16,-13.74 13.73,-13.74z"/>
    <path class="fil11" d="M538.69 434.31c8.55,0 15.51,-6.97 15.51,-15.53 0,-8.56 -6.96,-15.53 -15.51,-15.53 -8.56,0 -15.52,6.97 -15.52,15.53 0,8.56 6.96,15.53 15.52,15.53zm0 -29.27l0 0c7.56,0 13.73,6.17 13.73,13.74 0,7.57 -6.17,13.74 -13.73,13.74 -7.57,0 -13.73,-6.17 -13.73,-13.74 0,-7.57 6.16,-13.74 13.73,-13.74z"/>
    <path class="fil11" d="M549.32 463.56c-0.22,2.32 2,4.44 4.97,4.73 2.97,0.28 5.56,-1.37 5.78,-3.69 0.23,-2.32 -2,-4.44 -4.97,-4.73 -2.96,-0.28 -5.55,1.37 -5.78,3.69z"/>
    <path class="fil11" d="M544.92 464.92c2.38,0.23 4.82,0.31 7.31,0.21l-0.09 -2.33c-28.13,1.12 -49.77,-21.62 -49.98,-21.85l-1.7 1.6c0.2,0.21 18.92,19.9 44.46,22.37z"/>
    <path class="fil6" d="M593.62 400.52c-2.25,-15.77 -10.51,-33.15 -24.05,-42.07 -12.12,-7.99 -28.34,-8.49 -41.7,-3.37 -11.51,4.42 -19.13,14.27 -22.89,25.74 -3.19,9.78 -3.62,19.82 -4.37,29.98 -0.24,3.34 -5.49,3.37 -5.24,0 0.7,-9.67 1.1,-19.3 3.74,-28.7 3.44,-12.23 10.5,-23.46 21.92,-29.61 13.59,-7.31 31.61,-8.09 45.65,-1.65 11.42,5.25 19.77,15.46 25.07,26.63 3.21,6.77 5.86,14.2 6.93,21.66 0.47,3.3 -4.59,4.73 -5.06,1.39z"/>
    <path class="fil6" d="M482.86 427.66c0,12.34 8.05,22.35 17.97,22.35 9.93,0 17.97,-10.01 17.97,-22.35 0,-12.35 -8.04,-22.36 -17.97,-22.36 -9.92,0 -17.97,10.01 -17.97,22.36z"/>
    <path class="fil7" d="M480.93 427.66c0,11.72 7.64,21.24 17.07,21.24 9.43,0 17.07,-9.52 17.07,-21.24 0,-11.74 -7.64,-21.25 -17.07,-21.25 -9.43,0 -17.07,9.51 -17.07,21.25z"/>
    <path class="fil13" d="M369.77 328.08l88.06 0c5.9,0 10.67,-4.78 10.67,-10.68l0 -51.99c0,-5.9 -4.77,-10.68 -10.67,-10.68l-88.06 0c-5.9,0 -10.67,4.78 -10.67,10.68l0 51.99c0,5.9 4.77,10.68 10.67,10.68z"/>
    <path class="fil4" d="M372.34 325.62l88.06 0c5.9,0 10.67,-4.78 10.67,-10.68l0 -52c0,-5.9 -4.77,-10.68 -10.67,-10.68l-88.06 0c-5.9,0 -10.67,4.78 -10.67,10.68l0 52c0,5.9 4.77,10.68 10.67,10.68z"/>
    <path class="fil14" d="M424.38 265.69c2.23,1.06 3.98,2.54 5.26,4.43 1.28,1.88 1.92,3.98 1.92,6.28 0,1.73 -0.29,3.26 -0.88,4.59 -0.58,1.32 -1.3,2.45 -2.14,3.38 -0.85,0.94 -1.97,1.99 -3.35,3.16 -1.87,1.6 -3.25,3.03 -4.17,4.29 -0.91,1.26 -1.36,2.82 -1.36,4.69l0 0.91c0,0.48 -0.18,0.89 -0.52,1.24 -0.35,0.34 -0.76,0.52 -1.24,0.52l-2.4 0c-0.48,0 -0.89,-0.18 -1.24,-0.52 -0.35,-0.35 -0.52,-0.76 -0.52,-1.24l0 -1.37c0,-1.73 0.3,-3.26 0.91,-4.58 0.61,-1.33 1.33,-2.45 2.18,-3.36 0.84,-0.91 1.98,-2.01 3.41,-3.32 1.83,-1.56 3.18,-2.93 4.07,-4.13 0.89,-1.19 1.33,-2.61 1.33,-4.26 0,-2.09 -0.87,-3.73 -2.6,-4.95 -1.74,-1.21 -3.82,-1.82 -6.24,-1.82 -2.35,0 -4.3,0.59 -5.86,1.76 -1.56,1.17 -2.64,2.97 -3.25,5.4 -0.09,0.43 -0.29,0.78 -0.62,1.04 -0.32,0.26 -0.68,0.39 -1.07,0.39l-2.8 0c-0.39,0 -0.74,-0.14 -1.04,-0.42 -0.3,-0.28 -0.43,-0.62 -0.39,-1.01 0.13,-2.04 0.77,-4.04 1.92,-5.99 1.15,-1.95 2.84,-3.56 5.07,-4.82 2.24,-1.25 4.91,-1.88 8.04,-1.88 2.81,0 5.34,0.53 7.58,1.59zm-4.59 44.1l0 0c-0.35,0.34 -0.76,0.52 -1.24,0.52l-3.7 0c-0.48,0 -0.89,-0.18 -1.24,-0.52 -0.35,-0.35 -0.52,-0.76 -0.52,-1.24l0 -3.71c0,-0.48 0.17,-0.89 0.52,-1.24 0.35,-0.34 0.76,-0.52 1.24,-0.52l3.7 0c0.48,0 0.89,0.18 1.24,0.52 0.35,0.35 0.52,0.76 0.52,1.24l0 3.71c0,0.48 -0.17,0.89 -0.52,1.24z"/>
    <g>
     <path class="fil13" d="M592.46 186.18l87.2 0c6.13,0 11.11,4.97 11.11,11.11l0 51.13c0,6.13 -4.98,11.11 -11.11,11.11l-61.85 0 -23.43 16.64 0 -16.64 -1.92 0c-6.13,0 -11.1,-4.98 -11.1,-11.11l0 -51.13c0,-6.14 4.97,-11.11 11.1,-11.11z"/>
     <path class="fil4" d="M595.08 183.8l87.2 0c6.13,0 11.11,4.97 11.11,11.11l0 51.13c0,6.13 -4.98,11.11 -11.11,11.11l-61.85 0 -23.43 16.64 0 -16.64 -1.92 0c-6.13,0 -11.1,-4.98 -11.1,-11.11l0 -51.13c0,-6.14 4.97,-11.11 11.1,-11.11z"/>
     <path class="fil14" d="M595.45 202.73c9.73,0 19.47,0 29.21,0 15.52,0 31.05,0 46.57,0 3.56,0 7.13,0 10.69,0 1.13,0 1.13,1.75 0,1.75 -9.74,0 -19.48,0 -29.22,0 -15.52,0 -31.04,0 -46.56,0 -3.57,0 -7.13,0 -10.69,0 -1.13,0 -1.13,-1.75 0,-1.75z"/>
     <path class="fil14" d="M595.45 214.14c9.73,0 19.47,0 29.21,0 15.52,0 31.05,0 46.57,0 3.56,0 7.13,0 10.69,0 1.13,0 1.13,1.75 0,1.75 -9.74,0 -19.48,0 -29.22,0 -15.52,0 -31.04,0 -46.56,0 -3.57,0 -7.13,0 -10.69,0 -1.13,0 -1.13,-1.75 0,-1.75z"/>
     <path class="fil14" d="M621.28 225.54c6.82,0 13.64,0 20.46,0 10.88,0 21.76,0 32.64,0 2.51,0 5.03,0 7.54,0 1.13,0 1.13,1.75 0,1.75 -6.82,0 -13.64,0 -20.46,0 -10.88,0 -21.76,0 -32.64,0 -2.51,0 -5.03,0 -7.54,0 -1.13,0 -1.13,-1.75 0,-1.75z"/>
     <path class="fil14" d="M621.28 236.95c6.82,0 13.64,0 20.46,0 10.88,0 21.76,0 32.64,0 2.51,0 5.03,0 7.54,0 1.13,0 1.13,1.75 0,1.75 -6.82,0 -13.64,0 -20.46,0 -10.88,0 -21.76,0 -32.64,0 -2.51,0 -5.03,0 -7.54,0 -1.13,0 -1.13,-1.75 0,-1.75z"/>
    </g>
    <path class="fil13" d="M639.17 277.31l56.64 0c3.99,0 7.22,3.24 7.22,7.22l0 33.22c0,3.99 -3.23,7.22 -7.22,7.22l-40.18 0 -15.22 10.81 0 -10.81 -1.24 0c-3.99,0 -7.22,-3.23 -7.22,-7.22l0 -33.22c0,-3.98 3.23,-7.22 7.22,-7.22z"/>
    <path class="fil4" d="M640.87 275.77l56.65 0c3.98,0 7.21,3.23 7.21,7.22l0 33.21c0,3.99 -3.23,7.22 -7.21,7.22l-40.18 0 -15.23 10.81 0 -10.81 -1.24 0c-3.98,0 -7.21,-3.23 -7.21,-7.22l0 -33.21c0,-3.99 3.23,-7.22 7.21,-7.22z"/>
    <path class="fil14" d="M641.1 288.07c6.33,0 12.66,0 18.98,0 10.09,0 20.17,0 30.26,0 2.31,0 4.63,0 6.94,0 0.73,0 0.73,1.14 0,1.14 -6.33,0 -12.65,0 -18.98,0 -10.08,0 -20.17,0 -30.25,0 -2.32,0 -4.63,0 -6.95,0 -0.73,0 -0.73,-1.14 0,-1.14z"/>
    <path class="fil14" d="M641.1 295.48c6.33,0 12.66,0 18.98,0 10.09,0 20.17,0 30.26,0 2.31,0 4.63,0 6.94,0 0.73,0 0.73,1.14 0,1.14 -6.33,0 -12.65,0 -18.98,0 -10.08,0 -20.17,0 -30.25,0 -2.32,0 -4.63,0 -6.95,0 -0.73,0 -0.73,-1.14 0,-1.14z"/>
    <path class="fil14" d="M657.89 302.89c4.42,0 8.85,0 13.29,0 7.06,0 14.13,0 21.2,0 1.63,0 3.27,0 4.9,0 0.73,0 0.73,1.14 0,1.14 -4.43,0 -8.86,0 -13.29,0 -7.07,0 -14.14,0 -21.21,0 -1.63,0 -3.26,0 -4.89,0 -0.74,0 -0.74,-1.14 0,-1.14z"/>
    <path class="fil14" d="M657.89 310.3c4.42,0 8.85,0 13.29,0 7.06,0 14.13,0 21.2,0 1.63,0 3.27,0 4.9,0 0.73,0 0.73,1.13 0,1.13 -4.43,0 -8.86,0 -13.29,0 -7.07,0 -14.14,0 -21.21,0 -1.63,0 -3.26,0 -4.89,0 -0.74,0 -0.74,-1.13 0,-1.13z"/>
    <path class="fil13" d="M841.79 432.67l-88.06 0c-5.89,0 -10.67,-4.78 -10.67,-10.67l0 -52c0,-5.9 4.78,-10.68 10.67,-10.68l88.06 0c5.9,0 10.68,4.78 10.68,10.68l0 52c0,5.89 -4.78,10.67 -10.68,10.67z"/>
    <path class="fil4" d="M838.55 429.76l-88.07 0c-5.89,0 -10.67,-4.78 -10.67,-10.67l0 -52c0,-5.9 4.78,-10.68 10.67,-10.68l88.07 0c5.89,0 10.67,4.78 10.67,10.68l0 52c0,5.89 -4.78,10.67 -10.67,10.67z"/>
    <path class="fil14" d="M803.8 373.73c-0.78,8.31 -9.64,7 -9.64,7 -5.41,0.79 -4.6,12.64 -4.6,12.64 0,0 0.58,11.86 6.04,12.01 0,0 8.65,-2.33 10.39,5.82 1.74,8.16 -3.18,12.33 -11.19,11.78 0,0 -11.1,-1.08 -12.75,-29.43 -0.92,-28.74 9.27,-30.21 9.27,-30.21 7.89,-1.48 13.26,2.09 12.48,10.39z"/>
    <path class="fil3" d="M454.79 717.47c-26.23,-12.84 -44.38,-37.31 -58.39,-62.48 -25.41,-45.64 -40.73,-98.46 -32.23,-149.74 1.67,-10.06 5.32,-21.3 14.87,-25.42 4.52,-1.94 9.76,-1.91 14.49,-0.54 9.35,2.71 16.58,10.26 20.94,18.77 4.36,8.51 6.22,17.99 7.96,27.35 12.34,66.3 21.06,133.79 44.71,197.1l-12.35 -5.04z"/>
    <path class="fil15" d="M459.34 718.55c-20.29,-9.44 -43.53,-38.39 -54.8,-57.72 -20.46,-35.06 -35.63,-71.47 -30.38,-111.68 1.03,-7.89 3.54,-16.75 10.72,-20.18 3.39,-1.62 7.39,-1.71 11.02,-0.74 7.19,1.9 12.88,7.63 16.41,14.18 3.52,6.54 5.17,13.91 6.72,21.17 11,51.48 19.27,103.97 38.8,152.87l1.51 2.1z"/>
    <path class="fil4" d="M388.01 507.45c2.17,15.86 4.43,31.72 7.17,47.5 2.71,15.65 5.88,31.24 9.88,46.63 3.7,14.2 8.11,28.19 13.74,41.78 5.56,13.44 12.11,26.5 19.56,39.04 7.29,12.27 15.45,24.07 24.62,35.08 1.11,1.34 2.24,2.66 3.39,3.97 0.24,0.28 -0.17,0.69 -0.42,0.41 -9.34,-10.73 -17.68,-22.28 -25.15,-34.33 -7.72,-12.43 -14.51,-25.42 -20.35,-38.79 -5.84,-13.39 -10.54,-27.15 -14.4,-41.2 -4.25,-15.47 -7.61,-31.16 -10.46,-46.92 -2.86,-15.79 -5.2,-31.67 -7.39,-47.55 -0.26,-1.88 -0.52,-3.75 -0.78,-5.62 -0.05,-0.37 0.54,-0.36 0.59,0z"/>
    <path class="fil3" d="M444.55 714.63c-18.18,4.47 -43.32,7.96 -61.15,9 -33.58,1.95 -74.74,0.73 -101.41,-19.79 -8.65,-6.66 -16.2,-17.56 -12.66,-27.89 2.24,-6.56 8.59,-11.06 15.29,-12.83 6.71,-1.77 13.78,-1.22 20.66,-0.43 49.71,5.72 97.95,23.71 139.27,51.94z"/>
    <path class="fil15" d="M436.99 713c-14.11,3.26 -33.61,5.79 -47.45,6.52 -26.06,1.38 -58.01,0.43 -78.73,-14.68 -6.73,-4.9 -12.6,-12.91 -9.87,-20.49 1.73,-4.81 6.65,-8.11 11.85,-9.4 5.2,-1.28 10.69,-0.87 16.04,-0.28 38.58,4.27 76.05,17.55 108.16,38.33z"/>
    <path class="fil4" d="M296.88 685.33c9.34,2.11 18.67,4.23 28.01,6.31 9.55,2.13 19.11,4.23 28.68,6.26 9.64,2.05 19.29,4.04 28.96,5.93 9.62,1.88 19.25,3.67 28.9,5.32 9.53,1.63 19.07,3.12 28.65,4.43 1.15,0.16 2.31,0.32 3.47,0.47 0.42,0.06 0.4,0.71 -0.02,0.66 -9.53,-1.27 -19.04,-2.71 -28.52,-4.3 -9.62,-1.6 -19.22,-3.35 -28.81,-5.2 -9.67,-1.87 -19.33,-3.83 -28.98,-5.87 -9.63,-2.03 -19.25,-4.13 -28.87,-6.26 -9.42,-2.09 -18.83,-4.22 -28.25,-6.35 -1.14,-0.26 -2.28,-0.51 -3.42,-0.77 -0.41,-0.09 -0.21,-0.72 0.2,-0.63z"/>
    <path class="fil3" d="M452.59 711.89c-38.12,-2 -80.65,-24.64 -111.19,-47.56 -20.1,-15.08 -39.95,-31.09 -54.8,-51.37 -12.16,-16.62 -20.69,-35.87 -24.82,-56.04 -2.72,-13.23 -2.25,-29.65 9.15,-36.87 6.15,-3.9 14.19,-3.91 21.05,-1.47 6.87,2.44 12.73,7.06 18.05,12.04 15.17,14.19 26.79,31.67 38.6,48.76 30.76,44.5 68.95,91.27 103.96,132.51z"/>
    <path class="fil15" d="M442.3 706.51c-29.44,-1.47 -62.28,-18.14 -85.87,-35.02 -15.53,-11.11 -30.86,-22.9 -42.33,-37.84 -9.39,-12.23 -15.98,-26.41 -19.17,-41.27 -2.1,-9.74 -1.74,-21.83 7.07,-27.15 4.75,-2.87 10.96,-2.88 16.26,-1.08 5.3,1.79 9.83,5.2 13.94,8.86 11.71,10.46 20.69,23.33 29.81,35.91 23.76,32.77 53.26,67.22 80.29,97.59z"/>
    <path class="fil4" d="M285.75 551.96c11.17,13.66 22.34,27.32 33.51,40.98 9.91,12.12 19.75,24.31 29.88,36.26 9.31,11 18.9,21.79 29.11,31.97 10.11,10.08 20.84,19.58 32.44,27.92 11.52,8.27 23.91,15.37 37.09,20.63 1.62,0.64 3.25,1.26 4.9,1.85 0.39,0.14 0.22,0.78 -0.18,0.63 -13.3,-4.79 -25.87,-11.43 -37.56,-19.36 -11.77,-7.97 -22.67,-17.18 -32.9,-27.04 -10.44,-10.06 -20.21,-20.79 -29.66,-31.79 -9.96,-11.6 -19.58,-23.49 -29.26,-35.33 -11.21,-13.7 -22.41,-27.4 -33.62,-41.1 -1.4,-1.72 -2.8,-3.44 -4.21,-5.16 -0.26,-0.32 0.2,-0.79 0.46,-0.46z"/>
    <path class="fil16" d="M329.62 673.56c-7.67,-2.37 -14.52,-6.68 -20.95,-11.39 -3.41,-2.49 -6.73,-5.09 -10.08,-7.66 -3.65,-2.82 -7.29,-5.65 -10.9,-8.54 -6.85,-5.48 -13.55,-11.14 -20.11,-16.98 -6.57,-5.85 -13,-11.88 -19.27,-18.08 -6.26,-6.19 -12.36,-12.55 -18.29,-19.06 -0.72,-0.79 -1.44,-1.58 -2.15,-2.37 -0.51,-0.57 0.32,-1.41 0.83,-0.84 5.84,6.5 11.86,12.85 18.03,19.03 6.18,6.19 12.51,12.22 19,18.08 6.49,5.86 13.13,11.55 19.91,17.06 6.93,5.63 14,11.11 21.12,16.48 6.33,4.77 12.96,9.38 20.42,12.19 0.91,0.34 1.82,0.65 2.75,0.94 0.72,0.22 0.41,1.36 -0.31,1.14z"/>
    <path class="fil16" d="M231.18 591.69c-0.44,-5.05 -3.47,-9.83 -7.89,-12.31 -1.78,-1 -4.22,-1.55 -5.7,-0.16 -1.1,1.03 -1.22,2.79 -0.65,4.18 0.57,1.39 1.69,2.47 2.84,3.43 3.43,2.85 7.4,5.02 11.64,6.37l-0.24 -1.51z"/>
    <path class="fil16" d="M236.01 597.7c2.12,-1.38 3.07,-3.99 3.54,-6.49 0.33,-1.75 0.48,-3.58 0.03,-5.31 -0.46,-1.72 -1.61,-3.34 -3.28,-3.98 -0.25,-0.1 -0.53,-0.17 -0.79,-0.13 -0.26,0.05 -0.49,0.2 -0.69,0.37 -1.01,0.84 -1.53,2.16 -1.63,3.46 -0.11,1.31 0.15,2.62 0.47,3.89 0.72,2.91 1.77,5.74 3.1,8.42l-0.75 -0.23z"/>
    <path class="fil16" d="M246.98 608.13c0.88,-0.29 1.56,-0.98 2.21,-1.64 1.76,-1.81 3.61,-3.8 3.95,-6.3 0.17,-1.26 -0.07,-2.55 -0.42,-3.77 -0.55,-1.92 -1.5,-3.89 -3.27,-4.82 -0.58,-0.3 -1.27,-0.48 -1.91,-0.32 -0.79,0.19 -1.39,0.86 -1.7,1.62 -0.3,0.75 -0.35,1.58 -0.37,2.39 -0.06,4.93 0.26,8.07 1.51,12.84z"/>
    <path class="fil16" d="M259.16 620.71c0.22,0.2 0.57,0.02 0.81,-0.16 2.21,-1.69 4.14,-3.8 5.36,-6.3 1.22,-2.5 1.68,-5.42 1,-8.12 -0.31,-1.22 -0.93,-2.47 -2.04,-3.06 -1.43,-0.77 -3.3,-0.18 -4.41,1 -1.1,1.18 -1.58,2.82 -1.8,4.43 -0.59,4.32 0.4,8.68 1.37,12.94l-0.29 -0.73z"/>
    <path class="fil16" d="M272.82 633.37c1.24,-0.41 2.18,-1.42 3.02,-2.42 2.07,-2.44 3.96,-5.13 4.81,-8.22 0.85,-3.09 0.51,-6.64 -1.52,-9.12 -0.81,-0.99 -2.02,-1.82 -3.29,-1.65 -0.96,0.14 -1.76,0.82 -2.36,1.58 -2.49,3.11 -2.57,7.47 -2.17,11.43 0.24,2.47 0.63,4.93 1.16,7.36l0.35 1.04z"/>
    <path class="fil16" d="M290.4 647.4c5.32,-4.18 8.64,-10.81 8.81,-17.59 0.07,-2.6 -0.66,-5.69 -3.08,-6.65 -1.57,-0.62 -3.43,-0.08 -4.7,1.03 -1.28,1.1 -2.05,2.68 -2.56,4.29 -1.79,5.67 -0.68,11.8 0.45,17.65l1.08 1.27z"/>
    <path class="fil16" d="M246.45 608.82c-3.91,-1.71 -8.38,-1.24 -12.6,-0.62 -1.02,0.16 -2.2,0.43 -2.64,1.37 -0.38,0.85 0.04,1.86 0.66,2.55 1.07,1.22 2.69,1.87 4.31,1.99 1.62,0.11 3.24,-0.26 4.76,-0.83 2.39,-0.89 4.63,-2.3 6.25,-4.28l-0.74 -0.18z"/>
    <path class="fil16" d="M235.77 597.33c-3.91,-1.71 -8.38,-1.24 -12.6,-0.62 -1.02,0.16 -2.2,0.43 -2.64,1.37 -0.38,0.85 0.04,1.86 0.66,2.55 1.07,1.22 2.69,1.87 4.31,1.99 1.62,0.11 3.24,-0.26 4.76,-0.83 2.39,-0.89 4.63,-2.3 6.25,-4.28l-0.74 -0.18z"/>
    <path class="fil16" d="M259.02 620.49c-4.89,-2.36 -10.88,-2.31 -15.73,0.15 -1.07,0.54 -2.17,1.31 -2.48,2.47 -0.26,1.02 0.18,2.13 0.93,2.86 0.75,0.73 1.77,1.13 2.8,1.34 2.36,0.5 4.85,0.11 7.09,-0.79 2.24,-0.9 4.25,-2.28 6.13,-3.8 0.74,-0.6 1.51,-1.3 1.71,-2.24l-0.45 0.01z"/>
    <path class="fil16" d="M272.65 632.56c-4.75,-1.65 -9.98,-0.69 -14.84,0.59 -1.89,0.5 -3.95,1.19 -4.89,2.9 -1.17,2.13 0.12,4.99 2.26,6.15 2.13,1.15 4.77,0.91 7.06,0.11 4.32,-1.51 7.84,-4.85 10.23,-8.75l0.18 -1z"/>
    <path class="fil16" d="M289.54 646.26c-3.65,-1.2 -7.68,-0.72 -11.29,0.57 -3.62,1.29 -6.89,3.36 -10.14,5.41 -1.57,1 -3.31,2.26 -3.46,4.11 -0.1,1.27 0.63,2.51 1.66,3.27 1.02,0.75 2.29,1.1 3.56,1.27 6.53,0.89 13.15,-2.59 17.18,-7.81 1.72,-2.22 3.08,-4.94 2.8,-7.74l-0.31 0.92z"/>
    <path class="fil16" d="M310.33 663.34c0.2,0.33 0.71,0.09 0.99,-0.17 4.93,-4.65 7.37,-11.81 6.31,-18.51 -0.21,-1.28 -0.54,-2.57 -1.24,-3.66 -1.07,-1.69 -2.9,-2.74 -4.73,-3.52 -0.44,-0.19 -0.91,-0.36 -1.37,-0.29 -0.61,0.1 -1.07,0.6 -1.44,1.09 -2.62,3.44 -3.47,8.02 -2.95,12.32 0.52,4.3 2.31,8.35 4.55,12.06l-0.12 0.68z"/>
    <path class="fil16" d="M311.53 663.27c-2.83,-1.24 -6.04,-1.42 -9.09,-0.99 -3.05,0.43 -6,1.44 -8.9,2.49 -2.13,0.78 -4.34,1.63 -5.89,3.29 -1.55,1.66 -2.24,4.37 -0.94,6.24 1.26,1.83 3.79,2.19 6.01,2.13 4.35,-0.09 8.76,-1.18 12.31,-3.69 3.56,-2.51 6.16,-6.54 6.35,-10.89l0.15 1.42z"/>
    <path class="fil16" d="M366.58 610.83c-4.89,-6.37 -7.97,-13.85 -10.49,-21.42 -1.34,-4 -2.55,-8.05 -3.78,-12.08 -1.35,-4.42 -2.69,-8.84 -3.95,-13.28 -2.41,-8.44 -4.61,-16.94 -6.57,-25.49 -1.98,-8.59 -3.73,-17.23 -5.25,-25.91 -1.53,-8.68 -2.83,-17.39 -3.89,-26.14 -0.13,-1.06 -0.26,-2.12 -0.38,-3.18 -0.09,-0.76 1.07,-0.96 1.16,-0.21 1.01,8.69 2.23,17.35 3.69,25.97 1.45,8.63 3.13,17.21 5.03,25.75 1.9,8.53 4.02,17.02 6.36,25.44 2.39,8.61 4.99,17.17 7.69,25.68 2.4,7.56 5.13,15.16 9.59,21.77 0.54,0.8 1.11,1.59 1.7,2.36 0.46,0.6 -0.45,1.35 -0.91,0.74z"/>
    <path class="fil16" d="M333.69 487.05c2.56,-4.38 2.86,-10.03 0.69,-14.61 -0.88,-1.84 -2.54,-3.7 -4.56,-3.43 -1.49,0.2 -2.61,1.57 -2.95,3.03 -0.34,1.47 -0.05,3 0.33,4.45 1.15,4.3 3.13,8.38 5.81,11.93l0.68 -1.37z"/>
    <path class="fil16" d="M334.14 494.75c2.53,0.11 4.82,-1.48 6.65,-3.24 1.28,-1.24 2.46,-2.64 3.09,-4.31 0.63,-1.67 0.62,-3.66 -0.37,-5.15 -0.15,-0.22 -0.32,-0.44 -0.57,-0.56 -0.24,-0.12 -0.51,-0.13 -0.77,-0.11 -1.31,0.11 -2.49,0.88 -3.34,1.89 -0.84,1 -1.39,2.22 -1.86,3.44 -1.09,2.79 -1.88,5.7 -2.34,8.67l-0.49 -0.63z"/>
    <path class="fil16" d="M337.05 509.61c0.89,0.27 1.84,0.11 2.75,-0.06 2.49,-0.45 5.15,-1 6.87,-2.85 0.87,-0.93 1.42,-2.11 1.84,-3.31 0.66,-1.89 1.03,-4.04 0.12,-5.82 -0.3,-0.59 -0.75,-1.13 -1.37,-1.38 -0.75,-0.29 -1.63,-0.1 -2.32,0.34 -0.68,0.43 -1.2,1.08 -1.68,1.74 -2.9,3.98 -4.47,6.73 -6.21,11.34z"/>
    <path class="fil16" d="M339.71 526.92c0.07,0.29 0.45,0.35 0.76,0.34 2.78,-0.1 5.57,-0.7 8.01,-2.03 2.44,-1.33 4.5,-3.45 5.51,-6.04 0.45,-1.18 0.67,-2.55 0.11,-3.68 -0.72,-1.45 -2.58,-2.06 -4.17,-1.74 -1.59,0.33 -2.93,1.39 -4.04,2.57 -2.98,3.18 -4.7,7.31 -6.36,11.34l0.18 -0.76z"/>
    <path class="fil16" d="M343.52 545.16c1.25,0.38 2.6,0.1 3.86,-0.22 3.1,-0.79 6.2,-1.89 8.68,-3.92 2.48,-2.02 4.26,-5.12 4.04,-8.31 -0.09,-1.28 -0.59,-2.66 -1.73,-3.25 -0.86,-0.45 -1.91,-0.35 -2.84,-0.08 -3.82,1.09 -6.41,4.59 -8.38,8.05 -1.23,2.16 -2.34,4.39 -3.32,6.68l-0.31 1.05z"/>
    <path class="fil16" d="M349.73 566.78c6.77,-0.32 13.31,-3.8 17.37,-9.23 1.56,-2.09 2.75,-5.02 1.33,-7.21 -0.92,-1.41 -2.74,-2.05 -4.42,-1.89 -1.68,0.16 -3.23,1.01 -4.57,2.02 -4.75,3.59 -7.39,9.23 -9.85,14.65l0.14 1.66z"/>
    <path class="fil16" d="M336.23 509.86c-2.2,-3.65 -6.12,-5.86 -9.92,-7.8 -0.92,-0.46 -2.05,-0.92 -2.94,-0.41 -0.81,0.47 -1.04,1.54 -0.95,2.46 0.18,1.61 1.12,3.08 2.37,4.12 1.26,1.03 2.79,1.66 4.36,2.08 2.47,0.66 5.11,0.81 7.57,0.13l-0.49 -0.58z"/>
    <path class="fil16" d="M334.17 494.31c-2.2,-3.66 -6.12,-5.87 -9.92,-7.8 -0.92,-0.47 -2.04,-0.93 -2.94,-0.41 -0.81,0.46 -1.04,1.53 -0.95,2.45 0.18,1.62 1.12,3.09 2.37,4.12 1.26,1.03 2.79,1.67 4.36,2.09 2.47,0.65 5.11,0.8 7.57,0.12l-0.49 -0.57z"/>
    <path class="fil16" d="M339.73 526.66c-2.63,-4.76 -7.54,-8.18 -12.92,-8.99 -1.19,-0.18 -2.53,-0.19 -3.45,0.58 -0.8,0.68 -1.09,1.84 -0.9,2.87 0.2,1.03 0.8,1.94 1.51,2.71 1.63,1.78 3.89,2.9 6.23,3.47 2.35,0.56 4.79,0.6 7.2,0.45 0.96,-0.06 1.99,-0.18 2.7,-0.83l-0.37 -0.26z"/>
    <path class="fil16" d="M343.85 544.4c-2.91,-4.1 -7.74,-6.35 -12.45,-8.12 -1.82,-0.68 -3.9,-1.31 -5.65,-0.47 -2.19,1.06 -2.8,4.14 -1.72,6.32 1.07,2.18 3.36,3.52 5.69,4.19 4.4,1.28 9.2,0.59 13.41,-1.21l0.72 -0.71z"/>
    <path class="fil16" d="M349.69 565.35c-2.28,-3.08 -5.84,-5.03 -9.53,-6.07 -3.7,-1.04 -7.56,-1.26 -11.4,-1.46 -1.86,-0.1 -4,-0.09 -5.2,1.34 -0.82,0.98 -0.93,2.41 -0.53,3.63 0.39,1.21 1.23,2.22 2.16,3.09 4.81,4.51 12.23,5.52 18.53,3.6 2.69,-0.82 5.37,-2.25 6.76,-4.69l-0.79 0.56z"/>
    <path class="fil16" d="M356.76 591.32c-0.03,0.39 0.53,0.49 0.91,0.44 6.71,-0.93 12.84,-5.35 15.85,-11.43 0.58,-1.17 1.05,-2.41 1.11,-3.7 0.1,-2 -0.77,-3.92 -1.82,-5.62 -0.25,-0.4 -0.53,-0.82 -0.95,-1.03 -0.55,-0.27 -1.21,-0.13 -1.8,0.06 -4.13,1.29 -7.47,4.52 -9.54,8.33 -2.06,3.81 -2.95,8.16 -3.26,12.47l-0.5 0.48z"/>
    <path class="fil16" d="M357.78 591.96c-1.59,-2.65 -4.1,-4.65 -6.84,-6.07 -2.74,-1.42 -5.72,-2.3 -8.69,-3.12 -2.19,-0.61 -4.49,-1.19 -6.71,-0.73 -2.23,0.45 -4.35,2.27 -4.38,4.54 -0.03,2.22 1.83,3.98 3.67,5.22 3.6,2.44 7.83,4.11 12.18,4.12 4.35,0.02 8.8,-1.76 11.47,-5.2l-0.7 1.24z"/>
    <path class="fil16" d="M609.7 625.26c1.22,-7.94 4.49,-15.35 8.2,-22.4 1.97,-3.74 4.05,-7.41 6.11,-11.09 2.25,-4.03 4.52,-8.05 6.85,-12.04 4.42,-7.58 9.04,-15.05 13.85,-22.39 4.83,-7.36 9.85,-14.61 15.06,-21.71 5.21,-7.1 10.6,-14.07 16.18,-20.9 0.67,-0.82 1.35,-1.65 2.03,-2.47 0.48,-0.58 1.43,0.11 0.95,0.7 -5.57,6.74 -10.97,13.62 -16.19,20.63 -5.21,7.02 -10.25,14.17 -15.09,21.45 -4.85,7.27 -9.51,14.68 -13.97,22.2 -4.55,7.68 -8.94,15.47 -13.21,23.31 -3.79,6.96 -7.38,14.19 -9.07,21.99 -0.2,0.95 -0.38,1.9 -0.53,2.86 -0.11,0.75 -1.28,0.61 -1.17,-0.14z"/>
    <path class="fil16" d="M676.27 515.86c4.94,-1.17 9.22,-4.87 11.03,-9.61 0.72,-1.9 0.91,-4.4 -0.68,-5.67 -1.18,-0.93 -2.94,-0.79 -4.23,-0.03 -1.29,0.77 -2.2,2.04 -2.98,3.32 -2.31,3.8 -3.88,8.05 -4.59,12.45l1.45 -0.46z"/>
    <path class="fil16" d="M671.03 521.52c1.68,1.9 4.4,2.46 6.94,2.56 1.78,0.07 3.61,-0.05 5.25,-0.75 1.64,-0.7 3.07,-2.08 3.46,-3.83 0.06,-0.26 0.09,-0.54 0.01,-0.8 -0.08,-0.25 -0.26,-0.46 -0.46,-0.63 -0.98,-0.87 -2.36,-1.19 -3.67,-1.11 -1.3,0.09 -2.56,0.53 -3.77,1.03 -2.77,1.15 -5.41,2.6 -7.87,4.31l0.11 -0.78z"/>
    <path class="fil16" d="M662.32 533.9c0.42,0.83 1.2,1.4 1.95,1.95 2.05,1.48 4.28,3.02 6.8,2.99 1.28,-0.02 2.51,-0.44 3.67,-0.97 1.82,-0.82 3.63,-2.05 4.28,-3.93 0.22,-0.63 0.3,-1.33 0.05,-1.94 -0.31,-0.75 -1.06,-1.25 -1.85,-1.45 -0.79,-0.19 -1.61,-0.12 -2.42,-0.01 -4.88,0.65 -7.94,1.43 -12.48,3.36z"/>
    <path class="fil16" d="M651.67 547.79c-0.17,0.26 0.06,0.58 0.28,0.79 1.99,1.94 4.36,3.54 7.01,4.38 2.65,0.84 5.6,0.87 8.16,-0.2 1.17,-0.48 2.31,-1.27 2.74,-2.46 0.54,-1.52 -0.3,-3.29 -1.64,-4.22 -1.33,-0.92 -3.02,-1.15 -4.64,-1.13 -4.36,0.04 -8.53,1.65 -12.59,3.24l0.68 -0.4z"/>
    <path class="fil16" d="M641.14 563.16c0.59,1.17 1.72,1.95 2.83,2.64 2.72,1.7 5.66,3.18 8.84,3.57 3.17,0.39 6.64,-0.47 8.79,-2.84 0.86,-0.95 1.51,-2.26 1.15,-3.5 -0.27,-0.93 -1.07,-1.62 -1.91,-2.11 -3.43,-2 -7.75,-1.45 -11.61,-0.48 -2.41,0.61 -4.79,1.35 -7.11,2.22l-0.98 0.5z"/>
    <path class="fil16" d="M629.84 582.61c4.91,4.66 11.95,6.99 18.67,6.16 2.59,-0.31 5.53,-1.48 6.13,-4.02 0.38,-1.64 -0.42,-3.4 -1.7,-4.5 -1.28,-1.11 -2.95,-1.64 -4.62,-1.91 -5.87,-0.95 -11.77,1.05 -17.38,3.02l-1.1 1.25z"/>
    <path class="fil16" d="M661.57 533.48c1.12,-4.12 0,-8.48 -1.23,-12.56 -0.3,-0.99 -0.75,-2.12 -1.74,-2.41 -0.89,-0.27 -1.83,0.3 -2.43,1.01 -1.04,1.25 -1.45,2.94 -1.33,4.56 0.12,1.62 0.73,3.17 1.51,4.6 1.23,2.23 2.96,4.24 5.15,5.56l0.07 -0.76z"/>
    <path class="fil16" d="M671.37 521.23c1.12,-4.12 0,-8.48 -1.23,-12.56 -0.3,-0.99 -0.74,-2.12 -1.74,-2.41 -0.89,-0.27 -1.83,0.3 -2.42,1.01 -1.05,1.24 -1.46,2.94 -1.34,4.56 0.12,1.62 0.73,3.17 1.51,4.6 1.24,2.23 2.96,4.24 5.15,5.56l0.07 -0.76z"/>
    <path class="fil16" d="M651.87 547.63c1.62,-5.19 0.69,-11.11 -2.45,-15.55 -0.69,-0.99 -1.61,-1.97 -2.81,-2.1 -1.04,-0.11 -2.07,0.49 -2.68,1.34 -0.61,0.85 -0.86,1.92 -0.92,2.96 -0.15,2.41 0.6,4.82 1.81,6.91 1.22,2.08 2.88,3.87 4.65,5.51 0.71,0.65 1.51,1.31 2.47,1.37l-0.07 -0.44z"/>
    <path class="fil16" d="M641.92 562.88c0.94,-4.94 -0.77,-9.98 -2.75,-14.61 -0.77,-1.79 -1.75,-3.73 -3.58,-4.41 -2.27,-0.85 -4.92,0.84 -5.75,3.13 -0.82,2.28 -0.2,4.86 0.92,7.01 2.12,4.06 5.94,7.05 10.15,8.85l1.01 0.03z"/>
    <path class="fil16" d="M630.84 581.59c0.65,-3.78 -0.4,-7.7 -2.21,-11.09 -1.81,-3.39 -4.33,-6.33 -6.83,-9.24 -1.21,-1.41 -2.71,-2.96 -4.57,-2.83 -1.27,0.09 -2.38,0.99 -2.98,2.12 -0.6,1.12 -0.76,2.43 -0.74,3.71 0.07,6.59 4.48,12.64 10.22,15.87 2.45,1.38 5.34,2.33 8.06,1.64l-0.95 -0.18z"/>
    <path class="fil16" d="M616.99 604.67c-0.3,0.24 0.01,0.72 0.31,0.96 5.32,4.2 12.75,5.57 19.22,3.54 1.24,-0.39 2.46,-0.91 3.44,-1.76 1.51,-1.31 2.29,-3.26 2.79,-5.2 0.12,-0.46 0.23,-0.94 0.08,-1.4 -0.18,-0.58 -0.74,-0.96 -1.28,-1.26 -3.79,-2.09 -8.44,-2.27 -12.61,-1.12 -4.18,1.14 -7.93,3.5 -11.26,6.26l-0.69 -0.02z"/>
    <path class="fil16" d="M617.24 605.85c0.81,-2.98 0.51,-6.18 -0.36,-9.14 -0.87,-2.96 -2.29,-5.73 -3.75,-8.45 -1.08,-2 -2.25,-4.06 -4.12,-5.35 -1.87,-1.3 -4.65,-1.58 -6.3,-0.02 -1.62,1.51 -1.61,4.07 -1.24,6.26 0.74,4.29 2.46,8.5 5.45,11.65 3,3.16 7.37,5.14 11.69,4.7l-1.37 0.35z"/>
    <path class="fil14" d="M523.46 499.68c-23.53,1 -49,8.11 -66.23,24.19 -1.45,1.35 -2.89,2.85 -3.53,4.74 -0.93,2.76 0.03,5.76 0.91,8.54 10.18,32.07 10.73,67.14 1.55,99.52 -2.4,8.48 -5.46,16.85 -6.29,25.63 -0.83,8.77 0.92,18.26 6.97,24.66 2.61,2.75 5.88,4.79 9.26,6.5 18.84,9.53 40.96,9.18 62.05,8.3 13,-0.54 26.13,-1.22 38.65,-4.78 12.52,-3.56 24.55,-10.29 32.15,-20.86 7.85,-10.9 10.31,-24.75 11.3,-38.15 2.27,-30.43 -1.86,-60.94 -2.43,-91.45 -0.16,-8.88 0.02,-18.02 3.48,-26.2 -16.07,-11.11 -35.27,-17.87 -54.44,-21.69 -4.11,5.49 -9.88,7.98 -16.72,8.33 -6.85,0.35 -12.03,-2.24 -16.68,-7.28z"/>
    <path class="fil17" d="M459.84 658.47c0.76,-8.77 -5.46,-18.92 -3.25,-27.4 5.64,-21.54 16.27,-42.49 13.98,-64.74 4.83,2.42 9.21,5.62 11.7,10.4 2.05,3.93 2.58,8.5 2.63,12.95 0.09,8.89 -1.56,17.71 -1.91,26.59 -0.36,8.89 0.76,18.25 5.76,25.53 5.77,8.39 15.72,12.63 25.42,15.23 6.53,1.75 13.19,2.95 19.86,4.01 7.67,1.2 15.47,2.22 23.17,1.23 7.7,-0.99 15.38,-4.2 20.44,-10.22 8.02,-9.54 7.78,-23.39 9.22,-35.89 1.59,-13.73 5.73,-27.14 12.13,-39.32 1.92,-3.64 4.18,-7.32 7.65,-9.46 0,-0.01 0.02,-0.01 0.03,-0.02 1.19,22.28 14.08,45.68 12.55,67.91 -0.92,13.4 -14.46,26.12 -21.71,37.02 -7.03,10.57 -18.13,17.3 -29.69,20.86 -11.56,3.56 -23.69,4.24 -35.69,4.78 -19.48,0.88 -39.91,1.23 -57.31,-8.3 -3.12,-1.71 -6.14,-3.75 -8.54,-6.5 -5.6,-6.4 -7.21,-15.89 -6.44,-24.66z"/>
    <path class="fil14" d="M601.5 514.27c-7.27,32.34 -1,70.49 7.07,102.64 2.4,9.55 1.89,20.02 -1.53,24.88 -3.54,5.02 -9.65,8.03 -15.23,10.6 -12.98,5.98 -21.99,13.04 -31.89,23.34 -3.97,4.13 -7.61,8.79 -9.33,14.25 -1.71,5.47 -1.21,11.89 2.44,16.3 3.49,4.22 9.25,5.97 14.73,5.96 5.47,0 10.81,-1.52 16.14,-2.77 8.92,-2.09 18.01,-3.45 27.16,-4.07 7.91,-0.54 15.96,-0.53 23.57,-2.76 10.83,-3.18 20.13,-10.89 25.83,-20.64 5.71,-9.74 7.88,-21.39 6.74,-32.63 -0.61,-6.02 -2.14,-11.91 -3.71,-17.75 -6.5,-24.22 -15.46,-45.42 -23.67,-69.1 -3.36,-9.7 -9.53,-20.64 -15.45,-29.02 -5.92,-8.37 -12.76,-17.5 -22.87,-19.23z"/>
    <path class="fil4" d="M598.85 575.85c-4.38,-19.98 -2.82,-42.08 1.87,-61.79 0.24,-1.03 1.82,-0.6 1.57,0.43 -3.34,14.05 -4.63,28.53 -3.93,42.96 0.3,5.98 0.78,12.09 2.07,17.97 0.23,1.02 -1.35,1.46 -1.58,0.43z"/>
    <path class="fil9" d="M539.3 690.2c0,0 21.64,-5.37 29.73,-0.74 8.1,4.64 20.39,11.42 20.02,20.03l0.01 3.54c0,0 -58,1.69 -62.71,-3.54l12.95 -19.29z"/>
    <path class="fil14" d="M474.68 511.84c-10.62,1.23 -22.22,13.61 -29.57,24.31 -7.34,10.7 -12.34,22.8 -17.28,34.8 -9.25,22.47 -18.5,44.93 -27.75,67.4 -2.86,6.96 -5.75,13.99 -7.14,21.39 -1.16,6.15 -1.26,12.49 -0.31,18.66 0.78,5.06 2.34,10.14 5.5,14.17 4.47,5.69 11.53,8.59 18.3,11.16 14.27,5.43 28.91,10.52 44.15,11.57 6,0.41 12.03,0.19 18.05,-0.02 16.61,-0.61 33.29,-1.22 49.64,-4.26 1.17,-0.21 2.39,-0.47 3.34,-1.2 0.98,-0.76 1.53,-1.93 2.04,-3.06 1.65,-3.59 3.29,-7.19 4.93,-10.78 0.92,-2.01 1.86,-4.13 1.69,-6.33 -0.24,-2.95 -2.41,-5.35 -4.59,-7.36 -5.76,-5.34 -12.39,-9.72 -19.55,-12.94 -14.73,-6.61 -31.55,-8.27 -45.39,-16.59 -1.68,-1.01 -3.31,-2.12 -4.65,-3.54 -5.1,-5.42 -4.8,-14.15 -1.94,-21.02 2.86,-6.87 4.87,-13.43 7.68,-20.32 6.24,-15.33 9.37,-25.34 9.71,-38.44 0.49,-18.66 -0.91,-39.91 -6.86,-57.6z"/>
    <path class="fil18" d="M530.8 678.56c-1.95,2.63 -3.44,5.67 -4.77,8.65 -3.43,7.72 -5.38,16.07 -5.98,24.48 -0.07,1.05 -1.71,1.06 -1.63,0 0.59,-8.48 2.52,-16.82 5.9,-24.63 1.39,-3.21 2.98,-6.5 5.06,-9.32 0.62,-0.84 2.04,-0.03 1.42,0.82z"/>
    <path class="fil4" d="M481.45 576.73c1.36,-21.37 -0.28,-44.45 -7.56,-64.67 -0.36,-0.99 1.22,-1.42 1.58,-0.44 7.32,20.34 8.99,43.62 7.62,65.11 -0.07,1.05 -1.7,1.06 -1.64,0z"/>
    <path class="fil19" d="M243.73 732.25l759.74 0c3.74,0 6.78,-3.04 6.78,-6.8l0 -0.55c0,-3.75 -3.04,-6.79 -6.78,-6.79l-759.74 0c-3.75,0 -6.79,3.04 -6.79,6.79l0 0.55c0,3.76 3.04,6.8 6.79,6.8z"/>
    <path class="fil20" d="M439.86 718.11l261.54 0c0.62,0 1.12,-0.5 1.12,-1.12l0 -4.32c0,-0.62 -0.5,-1.12 -1.12,-1.12l-261.54 0c-0.62,0 -1.12,0.5 -1.12,1.12l0 4.32c0,0.62 0.5,1.12 1.12,1.12z"/>
    <polygon class="fil20" points="586.77,718.11 811.82,718.11 822.69,561.76 602.15,561.76 "/>
    <polygon class="fil21" points="594.42,718.11 819.47,718.11 830.34,561.76 609.8,561.76 "/>
    <path class="fil13" d="M828.45 588.78l-8.98 129.2 -225.05 0 3.01 -30.54c118.45,-15.32 200.04,-73.14 231.02,-98.66z"/>
   </g>
   <g>
    <path class="fil22" d="M661.98 631.73c6.88,0 13.79,0 20.69,0 2,0 3.81,0.82 5.12,2.13 1.32,1.31 2.14,3.13 2.14,5.12 0,3.47 0,6.94 0,10.4 0,3.47 0,6.93 0,10.39 -6.84,0 -13.67,0 -20.5,0 -2.06,0 -3.93,-0.84 -5.27,-2.19 -1.34,-1.35 -2.18,-3.21 -2.18,-5.27 0,-3.43 0,-6.86 0,-10.29 0,-3.43 0,-6.86 0,-10.29zm17.64 2.46c1.62,0 3.13,0.56 4.21,1.49 1.92,1.63 2.83,4.31 2.33,6.7 -0.5,2.4 -2.43,4.51 -6.22,5 0.82,1.65 1.64,3.31 2.47,4.97 0.82,1.66 1.64,3.32 2.46,4.97 -1.88,0 -3.76,0 -5.63,0 -1.19,-2.37 -2.36,-4.75 -3.54,-7.13 -1.17,-2.38 -2.34,-4.75 -3.52,-7.13 2.47,0 4.93,0 7.4,0 3.06,0 3.32,-4.35 -0.21,-4.35 -3.69,0 -7.37,0 -11.05,0 -1.42,0 -2.59,-0.77 -2.59,-1.86 0,-0.89 0,-1.77 0,-2.66 4.63,0 9.26,0 13.89,0z"/>
    <path class="fil23" d="M706.47 640.19c0,2.98 -1.42,4.61 -4.27,4.89 0.69,1.22 1.4,2.44 2.09,3.65 0.69,1.22 1.41,2.43 2.11,3.65 -1.5,0 -2.99,0 -4.49,0 -0.7,-1.21 -1.41,-2.42 -2.1,-3.63 -0.69,-1.21 -1.39,-2.42 -2.08,-3.63 -0.12,0 -0.23,0 -0.33,0 0,1.21 0,2.42 0,3.63 0,1.21 0,2.42 0,3.63 -1.3,0 -2.6,0 -3.89,0 0,-3.02 0,-6.05 0,-9.07 0,-3.03 0,-6.06 0,-9.08 2.6,0 5.19,0 7.78,0 3.45,0 5.18,1.64 5.18,4.93 0,0.34 0,0.69 0,1.03zm-5.18 1.3c0.87,0 1.29,-0.43 1.29,-1.3 0,-0.34 0,-0.69 0,-1.03 0,-0.87 -0.42,-1.3 -1.29,-1.3 -1.3,0 -2.6,0 -3.89,0 0,1.21 0,2.42 0,3.63 1.29,0 2.59,0 3.89,0zm12.76 0c2.16,0 4.32,0 6.48,0 0,1.21 0,2.42 0,3.63 -2.16,0 -4.32,0 -6.48,0 0,1.21 0,2.42 0,3.63 2.6,0 5.19,0 7.78,0 0,1.21 0,2.42 0,3.63 -3.89,0 -7.78,0 -11.66,0 0,-3.02 0,-6.05 0,-9.07 0,-3.03 0,-6.06 0,-9.08 3.88,0 7.77,0 11.66,0 0,1.21 0,2.42 0,3.63 -2.59,0 -5.18,0 -7.78,0 0,1.21 0,2.42 0,3.63zm16.33 3.89c1.08,0 2.17,0 3.25,0 -0.54,-1.9 -1.08,-3.8 -1.63,-5.7 -0.54,1.9 -1.09,3.8 -1.62,5.7zm4.29 3.63c-1.78,0 -3.57,0 -5.34,0 -0.32,1.12 -0.64,2.25 -0.95,3.37 -1.3,0 -2.6,0 -3.89,0 0.86,-3.02 1.73,-6.05 2.59,-9.07 0.87,-3.03 1.73,-6.06 2.6,-9.08 1.54,0 3.1,0 4.66,0 0.86,3.02 1.73,6.05 2.59,9.08 0.87,3.02 1.73,6.05 2.59,9.07 -1.3,0 -2.6,0 -3.89,0 -0.32,-1.12 -0.64,-2.25 -0.96,-3.37zm12.16 -0.26c2.16,0 4.31,0 6.48,0 0,1.21 0,2.42 0,3.63 -2.17,0 -4.32,0 -6.48,0 -3.45,0 -5.18,-1.64 -5.18,-4.92 0,-1.39 0,-2.77 0,-4.15 0,-1.39 0,-2.77 0,-4.15 0,-3.28 1.73,-4.93 5.18,-4.93 2.16,0 4.31,0 6.48,0 0,1.21 0,2.42 0,3.63 -2.17,0 -4.32,0 -6.48,0 -0.86,0 -1.29,0.43 -1.29,1.3 0,1.38 0,2.76 0,4.15 0,1.38 0,2.76 0,4.15 0,0.86 0.43,1.29 1.29,1.29zm14.07 -10.89c-1.3,0 -2.6,0 -3.89,0 0,-1.21 0,-2.42 0,-3.63 3.89,0 7.77,0 11.68,0 0,1.21 0,2.42 0,3.63 -1.32,0 -2.62,0 -3.91,0 0,2.42 0,4.85 0,7.26 0,2.42 0,4.84 0,7.26 -1.3,0 -2.59,0 -3.88,0 0,-2.42 0,-4.84 0,-7.26 0,-2.41 0,-4.84 0,-7.26z"/>
    <path class="fil23" d="M700.82 657.71c-0.06,-0.53 -0.13,-1.07 -0.19,-1.61 -0.15,0.54 -0.29,1.08 -0.43,1.61 -0.16,0 -0.31,0 -0.46,0 -0.15,-0.52 -0.28,-1.06 -0.42,-1.59 -0.07,0.53 -0.13,1.07 -0.18,1.59 -0.16,0 -0.32,0 -0.48,0 0.09,-0.82 0.19,-1.64 0.28,-2.45 0.15,0 0.31,0 0.47,0 0.18,0.62 0.38,1.25 0.57,1.88 0.18,-0.63 0.37,-1.26 0.56,-1.88 0.15,0 0.31,0 0.47,0 0.1,0.81 0.2,1.63 0.29,2.45 -0.16,0 -0.32,0 -0.48,0zm3.56 -2.45c0.2,0 0.4,0 0.61,0 0.26,0.81 0.52,1.63 0.77,2.45 -0.17,0 -0.34,0 -0.5,0 -0.05,-0.17 -0.11,-0.34 -0.16,-0.51 -0.29,0 -0.56,0 -0.84,0 -0.06,0.17 -0.11,0.34 -0.15,0.51 -0.17,0 -0.34,0 -0.5,0 0.25,-0.82 0.51,-1.64 0.77,-2.45zm0.6 1.5c-0.1,-0.36 -0.2,-0.72 -0.29,-1.08 -0.11,0.36 -0.22,0.72 -0.31,1.08 0.2,0 0.4,0 0.6,0zm3.16 -1.51c0.33,0 0.67,0 1.02,0 0.21,0 0.38,0.07 0.51,0.18 0.12,0.12 0.19,0.32 0.19,0.61 0,0.21 -0.03,0.36 -0.11,0.46 -0.07,0.1 -0.16,0.17 -0.28,0.23 0.14,0.33 0.29,0.65 0.45,0.98 -0.17,0 -0.34,0 -0.5,0 -0.14,-0.3 -0.26,-0.6 -0.39,-0.91 -0.11,0 -0.24,0 -0.4,0 0,0.3 0,0.61 0,0.91 -0.17,0 -0.33,0 -0.49,0 0,-0.82 0,-1.64 0,-2.46zm0.93 1.16c0.1,0 0.17,-0.03 0.22,-0.08 0.05,-0.06 0.08,-0.15 0.08,-0.29 0,-0.13 -0.03,-0.22 -0.08,-0.27 -0.05,-0.05 -0.12,-0.07 -0.22,-0.07 -0.15,0 -0.3,0 -0.44,0 0,0.23 0,0.47 0,0.71 0.14,0 0.29,0 0.44,0zm3.25 -1.16c0.17,0 0.32,0 0.5,0 0,0.34 0,0.68 0,1.02 0.1,0 0.21,0 0.33,0 0.16,-0.34 0.33,-0.68 0.5,-1.02 0.17,0 0.34,0 0.52,0 -0.21,0.41 -0.43,0.83 -0.63,1.24 0.22,0.41 0.43,0.82 0.65,1.22 -0.18,0 -0.35,0 -0.52,0 -0.18,-0.33 -0.35,-0.66 -0.52,-0.99 -0.12,0 -0.23,0 -0.33,0 0,0.33 0,0.66 0,0.99 -0.18,0 -0.33,0 -0.5,0 0,-0.82 0,-1.64 0,-2.46zm4.79 2.48c-0.16,0 -0.3,-0.04 -0.42,-0.11 -0.12,-0.07 -0.18,-0.21 -0.18,-0.43 0,-0.46 0,-0.92 0,-1.37 0,-0.2 0.05,-0.35 0.16,-0.44 0.11,-0.08 0.24,-0.13 0.39,-0.13 0.34,0 0.7,0.02 1.07,0.05 0,0.13 0,0.27 0,0.41 -0.31,0 -0.62,0 -0.92,0 -0.14,0 -0.21,0.07 -0.21,0.2 0,0.12 0,0.24 0,0.36 0.32,0.01 0.64,0.02 0.97,0.02 0,0.13 0,0.26 0,0.39 -0.33,0.01 -0.65,0.02 -0.97,0.03 0,0.11 0,0.22 0,0.34 0,0.14 0.06,0.22 0.2,0.22 0.31,0 0.62,0 0.93,0 0,0.13 0,0.27 0,0.41 -0.29,0.03 -0.64,0.05 -1.02,0.05zm4 -2.03c-0.23,0 -0.45,0 -0.68,0 0,-0.15 0,-0.3 0,-0.45 0.61,0 1.23,0 1.85,0 0,0.15 0,0.3 0,0.45 -0.23,0 -0.46,0 -0.68,0 0,0.67 0,1.34 0,2.01 -0.17,0 -0.33,0 -0.49,0 0,-0.67 0,-1.34 0,-2.01zm3.54 -0.45c0.16,0 0.32,0 0.49,0 0,0.82 0,1.64 0,2.46 -0.17,0 -0.33,0 -0.49,0 0,-0.82 0,-1.64 0,-2.46zm3.04 0c0.13,0 0.26,0 0.4,0 0.34,0.54 0.68,1.09 1.02,1.62 0,-0.53 0,-1.08 0,-1.62 0.16,0 0.32,0 0.49,0 0,0.82 0,1.64 0,2.46 -0.14,0 -0.27,0 -0.39,0 -0.35,-0.54 -0.69,-1.08 -1.03,-1.62 0,0.54 0,1.08 0,1.62 -0.17,0 -0.33,0 -0.49,0 0,-0.82 0,-1.64 0,-2.46zm5.11 2.48c-0.19,0 -0.34,-0.05 -0.46,-0.15 -0.11,-0.1 -0.18,-0.24 -0.23,-0.42 -0.05,-0.18 -0.07,-0.41 -0.07,-0.68 0,-0.28 0.03,-0.51 0.08,-0.69 0.05,-0.18 0.15,-0.32 0.28,-0.41 0.12,-0.1 0.32,-0.15 0.55,-0.15 0.16,0 0.3,0.01 0.43,0.03 0.13,0.02 0.27,0.04 0.4,0.08 0,0.13 0,0.25 0,0.38 -0.08,-0.01 -0.19,-0.02 -0.33,-0.03 -0.13,-0.01 -0.26,-0.02 -0.4,-0.02 -0.14,0 -0.25,0.03 -0.32,0.08 -0.08,0.05 -0.13,0.13 -0.15,0.24 -0.03,0.12 -0.05,0.28 -0.05,0.5 0,0.21 0.02,0.38 0.05,0.49 0.02,0.11 0.07,0.19 0.13,0.23 0.06,0.05 0.14,0.07 0.25,0.07 0.09,0 0.17,-0.01 0.26,-0.02 0.07,-0.02 0.15,-0.03 0.21,-0.05 0,-0.16 0,-0.32 0,-0.48 -0.15,0 -0.3,0 -0.45,0 0,-0.13 0,-0.26 0,-0.39 0.07,-0.01 0.16,-0.02 0.27,-0.02 0.11,-0.01 0.2,-0.01 0.3,-0.01 0.14,0 0.25,0 0.35,0.01 0,0.46 0,0.93 0,1.39 -0.13,0 -0.25,0 -0.37,0 -0.02,-0.05 -0.05,-0.11 -0.07,-0.16 -0.08,0.04 -0.18,0.09 -0.3,0.13 -0.11,0.03 -0.23,0.05 -0.36,0.05zm5.34 -2.48c0.34,0 0.69,0 1.04,0 0.31,0 0.54,0.11 0.66,0.32 0.13,0.22 0.2,0.52 0.2,0.91 0,0.42 -0.07,0.72 -0.22,0.93 -0.14,0.2 -0.35,0.3 -0.64,0.3 -0.35,0 -0.7,0 -1.04,0 0,-0.82 0,-1.64 0,-2.46zm0.99 2.02c0.15,0 0.26,-0.06 0.32,-0.19 0.06,-0.13 0.1,-0.33 0.1,-0.6 0,-0.21 -0.01,-0.37 -0.05,-0.48 -0.03,-0.12 -0.07,-0.19 -0.14,-0.24 -0.05,-0.04 -0.13,-0.06 -0.23,-0.06 -0.17,0 -0.34,0 -0.5,0 0,0.52 0,1.05 0,1.57 0.16,0 0.33,0 0.5,0zm3.37 -2.02c0.16,0 0.32,0 0.49,0 0,0.82 0,1.64 0,2.46 -0.17,0 -0.33,0 -0.49,0 0,-0.82 0,-1.64 0,-2.46zm3.71 2.48c-0.19,0 -0.34,-0.05 -0.46,-0.15 -0.1,-0.1 -0.18,-0.24 -0.22,-0.42 -0.04,-0.18 -0.07,-0.41 -0.07,-0.68 0,-0.28 0.03,-0.51 0.08,-0.69 0.05,-0.18 0.14,-0.32 0.27,-0.41 0.13,-0.1 0.32,-0.15 0.55,-0.15 0.16,0 0.31,0.01 0.43,0.03 0.13,0.02 0.27,0.04 0.41,0.08 0,0.13 0,0.25 0,0.38 -0.09,-0.01 -0.2,-0.02 -0.33,-0.03 -0.13,-0.01 -0.27,-0.02 -0.41,-0.02 -0.14,0 -0.25,0.03 -0.32,0.08 -0.07,0.05 -0.12,0.13 -0.15,0.24 -0.03,0.12 -0.03,0.28 -0.03,0.5 0,0.21 0,0.38 0.03,0.49 0.03,0.11 0.07,0.19 0.13,0.23 0.06,0.05 0.15,0.07 0.25,0.07 0.09,0 0.18,-0.01 0.26,-0.02 0.07,-0.02 0.15,-0.03 0.21,-0.05 0,-0.16 0,-0.32 0,-0.48 -0.15,0 -0.29,0 -0.44,0 0,-0.13 0,-0.26 0,-0.39 0.07,-0.01 0.16,-0.02 0.26,-0.02 0.11,-0.01 0.21,-0.01 0.31,-0.01 0.13,0 0.25,0 0.34,0.01 0,0.46 0,0.93 0,1.39 -0.12,0 -0.25,0 -0.37,0 -0.02,-0.05 -0.04,-0.11 -0.06,-0.16 -0.09,0.04 -0.19,0.09 -0.3,0.13 -0.12,0.03 -0.24,0.05 -0.37,0.05zm3.63 -2.48c0.16,0 0.32,0 0.49,0 0,0.82 0,1.64 0,2.46 -0.17,0 -0.33,0 -0.49,0 0,-0.82 0,-1.64 0,-2.46zm3.53 0.45c-0.22,0 -0.44,0 -0.67,0 0,-0.15 0,-0.3 0,-0.45 0.61,0 1.23,0 1.85,0 0,0.15 0,0.3 0,0.45 -0.24,0 -0.46,0 -0.68,0 0,0.67 0,1.34 0,2.01 -0.18,0 -0.34,0 -0.5,0 0,-0.67 0,-1.34 0,-2.01zm4 -0.45c0.2,0 0.4,0 0.61,0 0.26,0.82 0.52,1.64 0.77,2.46 -0.17,0 -0.34,0 -0.5,0 -0.05,-0.17 -0.11,-0.34 -0.16,-0.51 -0.29,0 -0.56,0 -0.84,0 -0.06,0.17 -0.11,0.34 -0.15,0.51 -0.17,0 -0.34,0 -0.5,0 0.25,-0.82 0.51,-1.64 0.77,-2.46zm0.6 1.51c-0.1,-0.36 -0.2,-0.72 -0.3,-1.08 -0.1,0.36 -0.21,0.72 -0.3,1.08 0.2,0 0.4,0 0.6,0zm3.74 0.95c-0.19,0 -0.34,-0.04 -0.44,-0.14 -0.09,-0.09 -0.14,-0.23 -0.14,-0.44 0,-0.62 0,-1.25 0,-1.88 0.16,0 0.32,0 0.49,0 0,0.6 0,1.2 0,1.8 0,0.15 0.08,0.22 0.22,0.22 0.25,0 0.51,0 0.78,0 0,0.15 0,0.29 0,0.44 -0.31,0 -0.61,0 -0.91,0z"/>
   </g>
  </g>
 </g>
</svg>
