<?xml version="1.0" encoding="UTF-8"?>
<!DOCTYPE svg PUBLIC "-//W3C//DTD SVG 1.1//EN" "http://www.w3.org/Graphics/SVG/1.1/DTD/svg11.dtd">
<!-- Creator: CorelDRAW 2019 (64 Bit) -->
<svg xmlns="http://www.w3.org/2000/svg" xml:space="preserve" width="1465px" height="1205px" version="1.1" style="shape-rendering:geometricPrecision; text-rendering:geometricPrecision; image-rendering:optimizeQuality; fill-rule:evenodd; clip-rule:evenodd"
viewBox="0 0 1465 1205"
 xmlns:xlink="http://www.w3.org/1999/xlink">
 <defs>
  <style type="text/css">
   <![CDATA[
    .fil3 {fill:#999999}
    .fil8 {fill:#B3B3B3}
    .fil5 {fill:#FC2D2D}
    .fil10 {fill:#1487E3;fill-rule:nonzero}
    .fil20 {fill:#202338;fill-rule:nonzero}
    .fil25 {fill:#252E3B;fill-rule:nonzero}
    .fil13 {fill:#323657;fill-rule:nonzero}
    .fil28 {fill:#3A3F47;fill-rule:nonzero}
    .fil33 {fill:#441E9E;fill-rule:nonzero}
    .fil21 {fill:#44248E;fill-rule:nonzero}
    .fil34 {fill:#4C5285;fill-rule:nonzero}
    .fil7 {fill:#4D4D4D;fill-rule:nonzero}
    .fil30 {fill:#666666;fill-rule:nonzero}
    .fil11 {fill:#78C2FF;fill-rule:nonzero}
    .fil29 {fill:gray;fill-rule:nonzero}
    .fil27 {fill:#999999;fill-rule:nonzero}
    .fil26 {fill:#A77860;fill-rule:nonzero}
    .fil36 {fill:#ADADAD;fill-rule:nonzero}
    .fil4 {fill:#B3B3B3;fill-rule:nonzero}
    .fil0 {fill:#BABABA;fill-rule:nonzero}
    .fil22 {fill:#C70000;fill-rule:nonzero}
    .fil32 {fill:#D4D4D4;fill-rule:nonzero}
    .fil31 {fill:#DE9673;fill-rule:nonzero}
    .fil9 {fill:#E0E0E0;fill-rule:nonzero}
    .fil35 {fill:#E8734D;fill-rule:nonzero}
    .fil37 {fill:#EDDAD3;fill-rule:nonzero}
    .fil14 {fill:#EEA886;fill-rule:nonzero}
    .fil24 {fill:#EEA987;fill-rule:nonzero}
    .fil23 {fill:red;fill-rule:nonzero}
    .fil12 {fill:#FF8761;fill-rule:nonzero}
    .fil18 {fill:#FFC055;fill-rule:nonzero}
    .fil19 {fill:#FFC455;fill-rule:nonzero}
    .fil2 {fill:white;fill-rule:nonzero}
    .fil6 {fill:url(#id2)}
    .fil1 {fill:url(#id3)}
    .fil17 {fill:url(#id4)}
    .fil15 {fill:url(#id5)}
    .fil16 {fill:url(#id6)}
   ]]>
  </style>
    <clipPath id="id0">
     <path d="M1161.75 722.02l-28.09 0 0 -97.86 28.09 0 0 97.86 0 0z"/>
    </clipPath>
    <clipPath id="id1">
     <path d="M1133.67 722.02l-106.74 0c-8.77,0 -15.89,-7.11 -15.89,-15.87l0 -66.12c0,-8.76 7.12,-15.87 15.89,-15.87l106.74 0 0 97.86 0 0z"/>
    </clipPath>
  <linearGradient id="id2" gradientUnits="userSpaceOnUse" x1="431.89" y1="556.6" x2="1133.67" y2="556.6">
   <stop offset="0" style="stop-opacity:1; stop-color:#404B61"/>
   <stop offset="0.729412" style="stop-opacity:1; stop-color:#38455F"/>
   <stop offset="1" style="stop-opacity:1; stop-color:#2F3E5C"/>
  </linearGradient>
  <linearGradient id="id3" gradientUnits="userSpaceOnUse" x1="463.21" y1="1120.49" x2="1099.88" y2="1120.49">
   <stop offset="0" style="stop-opacity:1; stop-color:#ABABAB"/>
   <stop offset="1" style="stop-opacity:1; stop-color:#D1D1D1"/>
  </linearGradient>
  <linearGradient id="id4" gradientUnits="userSpaceOnUse" x1="1019.58" y1="673.09" x2="1450.22" y2="673.09">
   <stop offset="0" style="stop-opacity:1; stop-color:#705F61"/>
   <stop offset="0.729412" style="stop-opacity:1; stop-color:#6A595C"/>
   <stop offset="1" style="stop-opacity:1; stop-color:#635357"/>
  </linearGradient>
  <linearGradient id="id5" gradientUnits="userSpaceOnUse" x1="1011.06" y1="673.09" x2="1462.79" y2="673.09">
   <stop offset="0" style="stop-opacity:1; stop-color:#757B88"/>
   <stop offset="0.729412" style="stop-opacity:1; stop-color:#6F7583"/>
   <stop offset="1" style="stop-opacity:1; stop-color:#686F7D"/>
  </linearGradient>
  <linearGradient id="id6" gradientUnits="userSpaceOnUse" xlink:href="#id4" x1="1019.91" y1="673.09" x2="1447.76" y2="673.09">
  </linearGradient>
 </defs>
 <g id="Camada_x0020_1">
  <metadata id="CorelCorpID_0Corel-Layer"/>
  <g id="_2157029895200">
   <polygon class="fil0" points="573.2,20.6 687,20.6 687,120.46 669.62,103.08 573.2,103.08 "/>
   <path class="fil0" d="M180.93 374.06l172.99 0c-3.37,-16.89 -18.54,-29.44 -35.91,-29.44 -3.95,0 -7.83,0.62 -11.54,1.86l-0.94 0.31 -0.58 -0.81c-9.6,-13.62 -25.25,-21.75 -41.87,-21.75 -19.48,0 -37,10.81 -45.75,28.22l-0.47 0.95 -1.04 -0.25c-2.24,-0.55 -4.55,-0.83 -6.87,-0.83 -13.26,0 -24.79,9.05 -28.02,21.74zm176.16 2.68l-179.47 0 0.32 -1.6c2.88,-14.78 15.92,-25.51 31.01,-25.51 2.18,0 4.35,0.23 6.47,0.67 9.35,-17.76 27.52,-28.75 47.66,-28.75 17.16,0 33.35,8.23 43.49,22.08 3.7,-1.12 7.54,-1.69 11.44,-1.69 19.53,0 35.86,13.99 38.84,33.26l0.24 1.54z"/>
   <polygon class="fil1" points="1060.04,1046.05 503.04,1046.05 463.21,1194.94 1099.87,1194.94 "/>
   <path class="fil2" d="M507.43 1085.59l36.45 0c1.52,0 2.67,1.19 2.39,2.46l-3.54 15.85c-0.21,0.99 -1.22,1.69 -2.38,1.69l-37.07 0c-1.56,0 -2.71,-1.23 -2.37,-2.52l4.15 -15.86c0.25,-0.94 1.23,-1.62 2.37,-1.62z"/>
   <polygon class="fil2" points="560.59,1085.59 588.14,1085.59 584.47,1105.59 556.4,1105.59 "/>
   <polygon class="fil2" points="601.92,1085.59 629.47,1085.59 626.59,1105.59 598.51,1105.62 "/>
   <polygon class="fil2" points="643.24,1085.59 670.8,1085.59 668.7,1105.59 640.62,1105.59 "/>
   <polygon class="fil2" points="684.57,1085.59 712.12,1085.59 710.81,1105.59 682.74,1105.59 "/>
   <polygon class="fil2" points="725.9,1085.59 753.45,1085.59 752.92,1105.59 724.85,1105.62 "/>
   <polygon class="fil2" points="1056.6,1085.59 1015.28,1085.59 1019.73,1105.59 1061.84,1105.59 "/>
   <polygon class="fil2" points="1001.5,1085.59 973.95,1085.59 977.62,1105.59 1005.69,1105.59 "/>
   <polygon class="fil2" points="960.18,1085.59 932.62,1085.59 935.5,1105.59 963.59,1105.62 "/>
   <polygon class="fil2" points="918.85,1085.59 891.3,1085.59 893.39,1105.59 921.47,1105.59 "/>
   <polygon class="fil2" points="877.52,1085.59 849.97,1085.59 851.28,1105.59 879.35,1105.59 "/>
   <polygon class="fil2" points="836.19,1085.59 808.64,1085.59 809.17,1105.59 837.24,1105.62 "/>
   <polygon class="fil2" points="767.22,1085.59 794.78,1085.59 795.23,1105.59 767.22,1105.59 "/>
   <polygon class="fil2" points="495.31,1120.49 552.88,1120.49 549.6,1141.12 490.94,1141.12 "/>
   <polygon class="fil2" points="1065.59,1120.49 994.43,1120.49 998.49,1141.12 1071,1141.12 "/>
   <polygon class="fil2" points="980.2,1120.49 951.73,1120.49 954.97,1141.12 983.98,1141.12 "/>
   <polygon class="fil2" points="937.5,1120.49 909.03,1120.49 911.46,1141.12 940.47,1141.12 "/>
   <polygon class="fil2" points="894.8,1120.49 866.33,1120.49 867.96,1141.12 896.96,1141.12 "/>
   <polygon class="fil2" points="852.1,1120.49 823.64,1120.49 824.45,1141.12 853.45,1141.12 "/>
   <polygon class="fil2" points="486.71,1157.27 545.57,1157.27 541.27,1177.76 481.34,1177.76 "/>
   <polygon class="fil2" points="560.28,1157.27 589.71,1157.27 586.23,1177.76 556.26,1177.76 "/>
   <polygon class="fil2" points="604.43,1157.27 825.13,1157.27 825.95,1177.76 601.21,1177.76 "/>
   <polygon class="fil2" points="839.86,1157.27 869.29,1157.27 870.9,1177.76 840.93,1177.76 "/>
   <polygon class="fil2" points="884,1157.27 913.43,1157.27 915.85,1177.76 885.88,1177.76 "/>
   <polygon class="fil2" points="928.14,1157.27 957.57,1157.27 960.79,1177.76 930.83,1177.76 "/>
   <polygon class="fil2" points="972.29,1157.27 1001.72,1157.27 1005.74,1177.76 975.78,1177.76 "/>
   <polygon class="fil2" points="1016.43,1157.27 1075.29,1157.27 1080.65,1177.76 1020.73,1177.76 "/>
   <polygon class="fil2" points="809.46,1120.49 781.23,1120.49 781.23,1141.12 810.01,1141.12 "/>
   <polygon class="fil2" points="766.76,1120.49 738.3,1120.49 737.49,1141.12 766.5,1141.12 "/>
   <polygon class="fil2" points="724.07,1120.49 695.6,1120.49 693.98,1141.12 722.99,1141.12 "/>
   <polygon class="fil2" points="681.37,1120.49 652.9,1120.49 650.47,1141.12 679.48,1141.12 "/>
   <polygon class="fil2" points="638.67,1120.49 610.2,1120.49 606.97,1141.12 635.97,1141.12 "/>
   <polygon class="fil2" points="595.98,1120.49 567.51,1120.49 563.46,1141.12 592.46,1141.12 "/>
   <polygon class="fil2" points="508.78,1073.02 513.46,1055.17 526.83,1055.17 522.46,1073.02 "/>
   <polygon class="fil2" points="540.21,1055.17 566.96,1055.17 563.22,1073.02 536,1073.02 "/>
   <polygon class="fil2" points="580.34,1055.17 607.1,1055.17 604.06,1073.02 576.83,1073.02 "/>
   <polygon class="fil2" points="620.47,1055.17 647.23,1055.17 644.89,1073.02 617.66,1073.02 "/>
   <polygon class="fil2" points="660.61,1055.17 687.36,1055.17 685.72,1073.02 658.5,1073.02 "/>
   <polygon class="fil2" points="700.74,1055.17 727.49,1055.17 726.55,1073.02 699.33,1073.02 "/>
   <polygon class="fil2" points="740.87,1055.17 767.62,1055.17 767.39,1073.02 740.16,1073.02 "/>
   <polygon class="fil2" points="781,1055.17 807.76,1055.17 808.22,1073.02 781,1073.02 "/>
   <polygon class="fil2" points="821.13,1055.17 847.88,1055.17 849.05,1073.02 821.84,1073.02 "/>
   <polygon class="fil2" points="861.26,1055.17 888.02,1055.17 889.89,1073.02 862.67,1073.02 "/>
   <polygon class="fil2" points="901.39,1055.17 928.15,1055.17 930.72,1073.02 903.5,1073.02 "/>
   <polygon class="fil2" points="941.52,1055.17 968.28,1055.17 971.56,1073.02 944.33,1073.02 "/>
   <polygon class="fil2" points="981.66,1055.17 1008.41,1055.17 1012.39,1073.02 985.17,1073.02 "/>
   <polygon class="fil2" points="1021.79,1055.17 1048.54,1055.17 1053.22,1073.02 1026,1073.02 "/>
   <polygon class="fil3" points="463.21,1203.72 1099.87,1203.72 1099.87,1194.94 463.21,1194.94 "/>
   <polygon class="fil4" points="739.64,996.85 827.26,996.85 827.26,730.71 739.64,730.71 "/>
   <path class="fil5" d="M1135.12 858.91l-703.34 0c-14.71,0 -26.64,-11.92 -26.64,-26.63l0 -480.48c0,-14.71 11.93,-26.64 26.64,-26.64l703.34 0c14.71,0 26.63,11.93 26.63,26.64l0 272.35 -28.08 0 0 -272.84 -701.78 0 0 410.59 701.78 0 0 -39.87 28.08 0 0 110.25c0,14.71 -11.92,26.63 -26.63,26.63z"/>
   <path class="fil6" d="M1133.67 761.9l-701.78 0 0 -410.59 701.78 0 0 272.84 -106.74 0c-8.77,0 -15.87,7.11 -15.87,15.87l0 66.13c0,8.77 7.1,15.88 15.87,15.88l106.74 0 0 39.87z"/>
   <path class="fil7" d="M759.04 813.55c0,13.47 10.93,24.4 24.41,24.4 13.48,0 24.41,-10.93 24.41,-24.4 0,-13.49 -10.93,-24.41 -24.41,-24.41 -13.48,0 -24.41,10.92 -24.41,24.41z"/>
   <polygon class="fil8" points="586.35,1006.9 980.55,1006.9 980.55,986.8 586.35,986.8 "/>
   <path class="fil0" d="M962.15 51.96c-0.8,8.53 -3.48,62.58 53.13,91.88 56.66,-29.32 53.94,-83.36 53.12,-91.88 -35.16,-0.22 -49.46,-10.01 -53.12,-13.12 -3.66,3.11 -17.97,12.9 -53.13,13.12zm53.13 94.89l-0.61 -0.31c-63.69,-32.51 -55.13,-95.49 -55.04,-96.12l0.17 -1.14 1.16 0c40.49,0 53.21,-13.05 53.33,-13.18l0.99 -1.05 0.98 1.05c0.12,0.13 12.85,13.18 53.34,13.18l1.16 0 0.17 1.14c0.09,0.63 8.65,63.61 -55.04,96.12l-0.61 0.31z"/>
   <polygon class="fil9" points="472.22,390.79 550.82,390.79 550.82,382.74 472.22,382.74 "/>
   <polygon class="fil9" points="572.81,451.39 629.56,451.39 629.56,443.34 572.81,443.34 "/>
   <polygon class="fil10" points="638.41,451.39 676.06,451.39 676.06,443.34 638.41,443.34 "/>
   <polygon class="fil10" points="715.34,694.68 753,694.68 753,686.63 715.34,686.63 "/>
   <polygon class="fil10" points="473.11,603.78 510.77,603.78 510.77,595.73 473.11,595.73 "/>
   <polygon class="fil9" points="683.5,451.39 774.42,451.39 774.42,443.34 683.5,443.34 "/>
   <polygon class="fil9" points="473.11,573.26 531.54,573.26 531.54,565.21 473.11,565.21 "/>
   <polygon class="fil9" points="630.1,634.08 688.52,634.08 688.52,626.03 630.1,626.03 "/>
   <polygon class="fil9" points="848.33,694.68 906.75,694.68 906.75,686.63 848.33,686.63 "/>
   <polygon class="fil9" points="554.55,634.08 590.22,634.08 590.22,626.03 554.55,626.03 "/>
   <polygon class="fil10" points="473.11,634.08 543.78,634.08 543.78,626.03 473.11,626.03 "/>
   <polygon class="fil9" points="473.11,664.38 512.09,664.38 512.09,656.33 473.11,656.33 "/>
   <polygon class="fil11" points="566.11,390.79 621.91,390.79 621.91,382.74 566.11,382.74 "/>
   <polygon class="fil10" points="566.11,481.69 621.91,481.69 621.91,473.64 566.11,473.64 "/>
   <polygon class="fil9" points="538.21,511.99 562.05,511.99 562.05,503.94 538.21,503.94 "/>
   <polygon class="fil11" points="514.37,542.74 567.92,542.74 567.92,534.69 514.37,534.69 "/>
   <polygon class="fil10" points="576.02,542.74 649.94,542.74 649.94,534.69 576.02,534.69 "/>
   <polygon class="fil10" points="810.12,664.38 884.05,664.38 884.05,656.33 810.12,656.33 "/>
   <polygon class="fil10" points="473.11,512.21 528.91,512.21 528.91,504.16 473.11,504.16 "/>
   <polygon class="fil10" points="473.11,542.74 506.22,542.74 506.22,534.69 473.11,534.69 "/>
   <polygon class="fil12" points="573.3,512.21 604.53,512.21 604.53,504.16 573.3,504.16 "/>
   <polygon class="fil12" points="474.05,694.68 505.29,694.68 505.29,686.63 474.05,686.63 "/>
   <polygon class="fil11" points="472.89,451.39 528.69,451.39 528.69,443.34 472.89,443.34 "/>
   <polygon class="fil11" points="522.23,603.78 578.03,603.78 578.03,595.73 522.23,595.73 "/>
   <polygon class="fil11" points="522.92,664.38 578.72,664.38 578.72,656.33 522.92,656.33 "/>
   <polygon class="fil11" points="622.04,664.38 677.84,664.38 677.84,656.33 622.04,656.33 "/>
   <polygon class="fil11" points="472.89,481.69 552.43,481.69 552.43,473.64 472.89,473.64 "/>
   <polygon class="fil11" points="845.61,390.79 901.41,390.79 901.41,382.74 845.61,382.74 "/>
   <polygon class="fil11" points="646.84,694.68 702.64,694.68 702.64,686.63 646.84,686.63 "/>
   <polygon class="fil11" points="918.76,390.79 956.11,390.79 956.11,382.74 918.76,382.74 "/>
   <polygon class="fil11" points="1045.13,421.09 1082.48,421.09 1082.48,413.04 1045.13,413.04 "/>
   <polygon class="fil10" points="636.93,390.79 708.02,390.79 708.02,382.74 636.93,382.74 "/>
   <polygon class="fil10" points="918.76,694.68 989.85,694.68 989.85,686.63 918.76,686.63 "/>
   <polygon class="fil10" points="517.08,694.68 588.16,694.68 588.16,686.63 517.08,686.63 "/>
   <polygon class="fil10" points="913.91,421.09 984.99,421.09 984.99,413.04 913.91,413.04 "/>
   <polygon class="fil10" points="826.72,451.39 897.81,451.39 897.81,443.34 826.72,443.34 "/>
   <polygon class="fil10" points="764.95,694.68 836.04,694.68 836.04,686.63 764.95,686.63 "/>
   <polygon class="fil10" points="754.01,634.08 825.1,634.08 825.1,626.03 754.01,626.03 "/>
   <polygon class="fil10" points="734.17,481.69 805.26,481.69 805.26,473.64 734.17,473.64 "/>
   <polygon class="fil12" points="601.38,634.08 616.71,634.08 616.71,626.03 601.38,626.03 "/>
   <polygon class="fil11" points="906.75,451.39 957.29,451.39 957.29,443.34 906.75,443.34 "/>
   <polygon class="fil12" points="760.6,390.79 831.68,390.79 831.68,382.74 760.6,382.74 "/>
   <polygon class="fil12" points="679.48,481.69 721.16,481.69 721.16,473.64 679.48,473.64 "/>
   <polygon class="fil12" points="646.84,604.23 688.52,604.23 688.52,596.18 646.84,596.18 "/>
   <polygon class="fil9" points="721.16,390.79 747.18,390.79 747.18,382.74 721.16,382.74 "/>
   <polygon class="fil9" points="636.93,481.69 662.95,481.69 662.95,473.64 636.93,473.64 "/>
   <polygon class="fil9" points="1002.14,421.09 1028.16,421.09 1028.16,413.04 1002.14,413.04 "/>
   <polygon class="fil10" points="472.22,421.09 512.93,421.09 512.93,413.04 472.22,413.04 "/>
   <polygon class="fil10" points="580.84,573.48 612.98,573.48 612.98,565.43 580.84,565.43 "/>
   <polygon class="fil10" points="522.92,421.09 536.07,421.09 536.07,413.04 522.92,413.04 "/>
   <polygon class="fil9" points="792.77,421.09 901.41,421.09 901.41,413.04 792.77,413.04 "/>
   <polygon class="fil9" points="688.52,664.38 797.16,664.38 797.16,656.33 688.52,656.33 "/>
   <polygon class="fil12" points="545.73,421.09 559.14,421.09 559.14,413.04 545.73,413.04 "/>
   <polygon class="fil10" points="747.18,421.09 782.72,421.09 782.72,413.04 747.18,413.04 "/>
   <polygon class="fil12" points="782.72,451.39 818.27,451.39 818.27,443.34 782.72,443.34 "/>
   <polygon class="fil12" points="703.39,634.08 738.93,634.08 738.93,626.03 703.39,626.03 "/>
   <polygon class="fil12" points="599.95,694.68 635.5,694.68 635.5,686.63 599.95,686.63 "/>
   <polygon class="fil10" points="662.14,421.09 737.77,421.09 737.77,413.04 662.14,413.04 "/>
   <polygon class="fil10" points="838.11,634.08 913.74,634.08 913.74,626.03 838.11,626.03 "/>
   <polygon class="fil10" points="591.75,604.23 635.94,604.23 635.94,596.18 591.75,596.18 "/>
   <polygon class="fil10" points="588.91,664.38 611,664.38 611,656.33 588.91,656.33 "/>
   <polygon class="fil11" points="625.39,421.09 651.41,421.09 651.41,413.04 625.39,413.04 "/>
   <polygon class="fil12" points="893.74,664.38 919.76,664.38 919.76,656.33 893.74,656.33 "/>
   <polygon class="fil12" points="537.81,451.39 563.83,451.39 563.83,443.34 537.81,443.34 "/>
   <polygon class="fil12" points="543,573.48 569.02,573.48 569.02,565.43 543,565.43 "/>
   <polygon class="fil10" points="570.13,421.09 615.47,421.09 615.47,413.04 570.13,413.04 "/>
   <polygon class="fil0" points="476.92,509.53 279.46,509.53 279.46,364.44 282.14,364.44 282.14,506.85 476.92,506.85 "/>
   <polygon class="fil0" points="872.24,447.37 869.55,447.37 869.55,255.34 1013.94,255.34 1013.94,129.51 1016.62,129.51 1016.62,258.01 872.24,258.01 "/>
   <polygon class="fil13" points="462.26,718.03 462.23,718.02 "/>
   <polygon class="fil0" points="1104.05,180.07 1081.03,180.07 1081.03,177.39 1101.37,177.39 1101.37,157.08 1104.05,157.08 "/>
   <polygon class="fil0" points="949.27,180.07 926.25,180.07 926.25,157.08 928.93,157.08 928.93,177.39 949.27,177.39 "/>
   <polygon class="fil0" points="928.94,25.3 926.26,25.3 926.26,2.28 949.25,2.28 949.25,4.96 928.94,4.96 "/>
   <polygon class="fil0" points="1104.05,25.29 1101.37,25.29 1101.37,4.97 1081.03,4.97 1081.03,2.29 1104.05,2.29 "/>
   <polygon class="fil0" points="1101.37,122.7 1104.05,122.7 1104.05,59.66 1101.37,59.66 "/>
   <polygon class="fil0" points="926.25,122.7 928.93,122.7 928.93,59.66 926.25,59.66 "/>
   <path class="fil0" d="M280.8 348.76c-3.96,0 -7.17,3.21 -7.17,7.17 0,3.95 3.21,7.17 7.17,7.17 3.95,0 7.17,-3.22 7.17,-7.17 0,-3.96 -3.22,-7.17 -7.17,-7.17zm0 17.02c-5.44,0 -9.85,-4.42 -9.85,-9.85 0,-5.43 4.41,-9.85 9.85,-9.85 5.43,0 9.85,4.42 9.85,9.85 0,5.43 -4.42,9.85 -9.85,9.85z"/>
   <path class="fil0" d="M238.06 850.64c-3.95,0 -7.16,3.21 -7.16,7.16 0,3.95 3.21,7.17 7.16,7.17 3.96,0 7.17,-3.22 7.17,-7.17 0,-3.95 -3.21,-7.16 -7.17,-7.16zm0 17.01c-5.43,0 -9.85,-4.41 -9.85,-9.85 0,-5.43 4.42,-9.85 9.85,-9.85 5.44,0 9.85,4.42 9.85,9.85 0,5.44 -4.41,9.85 -9.85,9.85z"/>
   <path class="fil0" d="M1015.28 113.83c-3.95,0 -7.17,3.22 -7.17,7.17 0,3.95 3.22,7.17 7.17,7.17 3.95,0 7.17,-3.22 7.17,-7.17 0,-3.95 -3.22,-7.17 -7.17,-7.17zm0 17.02c-5.43,0 -9.85,-4.42 -9.85,-9.85 0,-5.43 4.42,-9.85 9.85,-9.85 5.43,0 9.85,4.42 9.85,9.85 0,5.43 -4.42,9.85 -9.85,9.85z"/>
   <path class="fil0" d="M280.3 80.54l62.26 0 0 -62.26 -62.26 0 0 62.26zm64.95 2.69l-67.63 0 0 -67.63 67.63 0 0 67.63z"/>
   <polygon class="fil0" points="310.09,65.55 312.77,65.55 312.77,34.03 310.09,34.03 "/>
   <polygon class="fil0" points="295.67,51.13 327.19,51.13 327.19,48.45 295.67,48.45 "/>
   <path class="fil0" d="M1281.82 162.12l91.31 0 0 -63.64 -91.31 0 0 63.64zm93.99 2.68l-96.67 0 0 -69.01 96.67 0 0 69.01z"/>
   <polygon class="fil0" points="1327.48,137.59 1279.63,98.17 1281.33,96.1 1327.48,134.12 1373.61,96.1 1375.32,98.17 "/>
   <polygon class="fil0" points="1373.49,164.38 1338.8,127.8 1340.74,125.96 1375.44,162.54 "/>
   <polygon class="fil0" points="1281.46,164.38 1279.51,162.54 1314.21,125.96 1316.15,127.8 "/>
   <path class="fil0" d="M514.88 211.34c-1.86,0 -3.7,0.87 -4.85,2.49 -0.92,1.29 -1.28,2.87 -1.02,4.43 0.26,1.56 1.12,2.93 2.41,3.85l0 0c2.67,1.9 6.38,1.27 8.28,-1.39 1.9,-2.67 1.27,-6.38 -1.39,-8.28 -1.04,-0.75 -2.25,-1.1 -3.43,-1.1zm-0.03 13.88c-1.59,0 -3.2,-0.48 -4.6,-1.47 -1.73,-1.23 -2.87,-3.06 -3.22,-5.16 -0.35,-2.09 0.13,-4.19 1.36,-5.92 2.54,-3.58 7.51,-4.41 11.09,-1.87 3.56,2.54 4.4,7.51 1.86,11.08 -1.55,2.18 -4,3.34 -6.49,3.34zm-4.97 3.35l0.59 0.23c1.06,0.4 2.18,0.66 3.33,0.76l0.63 0.05 0.86 2.25 3.95 -0.66 0.08 -2.42 0.58 -0.25c1.05,-0.47 2.02,-1.08 2.9,-1.81l0.48 -0.41 2.2 0.98 2.33 -3.27 -1.65 -1.75 0.23 -0.6c0.4,-1.06 0.66,-2.18 0.76,-3.33l0.05 -0.63 2.26 -0.86 -0.67 -3.96 -2.41 -0.08 -0.26 -0.57c-0.47,-1.05 -1.08,-2.02 -1.81,-2.9l-0.41 -0.48 0.98 -2.2 -3.27 -2.33 -1.75 1.65 -0.59 -0.23c-1.07,-0.41 -2.19,-0.66 -3.34,-0.76l-0.62 -0.05 -0.87 -2.26 -3.96 0.67 -0.07 2.41 -0.58 0.26c-1.05,0.47 -2.02,1.07 -2.9,1.81l-0.48 0.41 -2.2 -0.99 -2.33 3.28 1.65 1.75 -0.22 0.59c-0.41,1.07 -0.67,2.19 -0.77,3.34l-0.05 0.62 -2.26 0.87 0.67 3.96 2.41 0.07 0.26 0.58c0.47,1.05 1.08,2.02 1.81,2.9l0.41 0.48 -0.98 2.2 3.26 2.33 1.77 -1.65zm4.11 5.55l-1 -2.62c-0.9,-0.12 -1.79,-0.33 -2.65,-0.61l-2.05 1.92 -5.96 -4.23 1.15 -2.58c-0.55,-0.71 -1.03,-1.49 -1.44,-2.3l-2.81 -0.09 -1.21 -7.21 2.63 -1c0.11,-0.9 0.32,-1.79 0.6,-2.64l-1.93 -2.06 4.24 -5.95 2.58 1.14c0.71,-0.55 1.48,-1.03 2.29,-1.44l0.09 -2.81 7.21 -1.22 1.01 2.63c0.9,0.12 1.79,0.32 2.64,0.61l2.05 -1.93 5.96 4.24 -1.14 2.57c0.55,0.72 1.03,1.49 1.44,2.3l2.81 0.09 1.21 7.21 -2.63 1.01c-0.11,0.9 -0.32,1.78 -0.6,2.64l1.92 2.06 -4.24 5.95 -2.56 -1.14c-0.72,0.55 -1.49,1.03 -2.31,1.44l-0.09 2.81 -7.21 1.21z"/>
   <path class="fil0" d="M459.55 190.09c-0.81,0 -1.64,0.06 -2.46,0.2 -3.87,0.65 -7.25,2.77 -9.52,5.96 -4.69,6.59 -3.15,15.78 3.45,20.46 6.59,4.7 15.77,3.15 20.46,-3.44 2.27,-3.19 3.17,-7.08 2.52,-10.95 -0.66,-3.86 -2.77,-7.24 -5.97,-9.51 -2.51,-1.79 -5.45,-2.72 -8.48,-2.72zm-0.05 32.02c-3.48,0 -6.99,-1.04 -10.04,-3.21 -7.8,-5.55 -9.63,-16.4 -4.08,-24.2 2.69,-3.78 6.69,-6.28 11.26,-7.05 4.57,-0.77 9.17,0.28 12.95,2.98 7.79,5.54 9.62,16.4 4.07,24.19 -3.38,4.76 -8.73,7.29 -14.16,7.29zm-11.26 9.84l0.78 0.3c2.55,0.98 5.22,1.59 7.96,1.83l0.83 0.07 2.06 5.37 10.72 -1.81 0.18 -5.75 0.77 -0.34c2.5,-1.12 4.83,-2.57 6.91,-4.33l0.65 -0.54 5.25 2.35 6.3 -8.85 -3.94 -4.2 0.3 -0.79c0.98,-2.54 1.59,-5.22 1.82,-7.95l0.08 -0.84 5.37 -2.05 -1.8 -10.72 -5.75 -0.18 -0.35 -0.77c-1.11,-2.5 -2.57,-4.83 -4.32,-6.92l-0.55 -0.64 2.35 -5.25 -8.85 -6.3 -4.2 3.94 -0.78 -0.31c-2.55,-0.97 -5.23,-1.59 -7.96,-1.82l-0.84 -0.07 -2.05 -5.37 -10.72 1.8 -0.18 5.75 -0.77 0.34c-2.5,1.12 -4.83,2.58 -6.92,4.33l-0.64 0.55 -5.25 -2.35 -6.3 8.85 3.93 4.2 -0.3 0.78c-0.97,2.55 -1.58,5.22 -1.82,7.95l-0.07 0.84 -5.37 2.06 1.8 10.71 5.75 0.19 0.34 0.77c1.12,2.5 2.58,4.82 4.33,6.92l0.54 0.64 -2.34 5.25 8.85 6.29 4.2 -3.93zm9.91 10.58l-2.25 -5.87c-2.4,-0.27 -4.77,-0.81 -7.04,-1.61l-4.58 4.3 -12.43 -8.85 2.56 -5.73c-1.51,-1.89 -2.8,-3.95 -3.84,-6.13l-6.28 -0.2 -2.54 -15.05 5.87 -2.25c0.27,-2.41 0.81,-4.77 1.62,-7.04l-4.3 -4.58 8.85 -12.43 5.73 2.55c1.89,-1.5 3.94,-2.79 6.13,-3.83l0.2 -6.28 15.05 -2.54 2.24 5.87c2.41,0.27 4.78,0.81 7.05,1.62l4.58 -4.3 12.43 8.85 -2.56 5.73c1.51,1.89 2.79,3.94 3.84,6.13l6.28 0.2 2.53 15.05 -5.86 2.24c-0.27,2.41 -0.82,4.77 -1.62,7.05l4.3 4.58 -8.85 12.43 -5.74 -2.56c-1.88,1.51 -3.94,2.79 -6.13,3.84l-0.19 6.27 -15.05 2.54z"/>
   <path class="fil0" d="M51.26 569.47c-23.76,0 -43.09,-19.34 -43.09,-43.1 0,-23.76 19.33,-43.09 43.09,-43.09 23.76,0 43.09,19.33 43.09,43.09l-2.68 0c0,-22.28 -18.13,-40.4 -40.41,-40.4 -22.28,0 -40.41,18.12 -40.41,40.4 0,22.28 18.13,40.41 40.41,40.41l0 2.69zm0 6.95c-27.6,0 -50.05,-22.45 -50.05,-50.05l2.68 0c0,26.12 21.25,47.37 47.37,47.37 26.12,0 47.36,-21.25 47.36,-47.37 0,-26.11 -21.24,-47.36 -47.36,-47.36l0 -2.69c27.6,0 50.05,22.46 50.05,50.05 0,27.6 -22.45,50.05 -50.05,50.05z"/>
   <polygon class="fil0" points="45.13,542.95 27.08,524.9 28.97,523 45.13,539.16 73.55,510.74 75.44,512.64 "/>
   <path class="fil0" d="M180.23 906.15c-0.56,0 -0.9,-0.01 -1,-0.02l-0.05 0c-0.24,0.02 -3.16,0.1 -7.85,-0.36l0.25 -2.67c5.52,0.47 9.82,0.47 15.34,0l0.25 2.67c-3.26,0.32 -5.66,0.38 -6.94,0.38zm-46.37 64.61l0.15 31.66c0.04,6.29 4.32,11.78 10.42,13.34l1.01 0.26 0.01 3.75c0.03,4.85 3.94,8.71 8.83,8.74l50.37 -0.25c4.84,-0.02 8.76,-3.98 8.74,-8.82l-0.02 -3.76 1 -0.26c6.09,-1.62 10.32,-7.16 10.29,-13.45l-0.16 -31.66 -6.78 0.04 0.07 -1.42c2.2,-42.94 34.04,-102.72 35.39,-105.24 9.63,-14.6 14.69,-31.45 14.69,-48.85 0,-48.87 -39.75,-88.62 -88.62,-88.62 -48.86,0 -88.61,39.75 -88.61,88.62 0,17.39 5.05,34.25 14.62,48.74 0.3,0.44 33.44,62.3 35.47,105.75l0.07 1.39 -6.94 0.04zm20.37 60.44c-6.29,0 -11.43,-5.11 -11.46,-11.41l-0.01 -1.72c-6.74,-2.19 -11.4,-8.48 -11.43,-15.64l-0.17 -34.34 6.82 -0.03c-2.64,-42.72 -34.7,-102.5 -35.02,-103.11 -9.8,-14.83 -15.01,-32.19 -15.01,-50.11 0,-50.35 40.96,-91.31 91.3,-91.31 50.34,0 91.3,40.96 91.3,91.31 0,17.93 -5.21,35.29 -15.06,50.22 -1.27,2.37 -32.16,60.35 -34.94,102.59l6.62 -0.03 0.17 34.34c0.03,7.16 -4.56,13.49 -11.28,15.75l0.01 1.72c0.03,6.32 -5.09,11.48 -11.41,11.51l-50.37 0.26 -0.06 0z"/>
   <polygon class="fil0" points="153.71,970.75 204.27,970.75 204.27,968.06 153.71,968.06 "/>
   <polygon class="fil0" points="176.3,694.94 181.67,694.94 181.67,649.09 176.3,649.09 "/>
   <polygon class="fil0" points="238.42,706.33 234.63,702.54 267.05,670.12 270.84,673.91 "/>
   <polygon class="fil0" points="119.55,706.33 87.13,673.91 90.92,670.12 123.34,702.54 "/>
   <polygon class="fil0" points="152.4,922.74 140.06,870.12 142.67,869.5 155.01,922.12 "/>
   <polygon class="fil0" points="205.57,922.74 202.96,922.12 215.31,869.5 217.92,870.12 "/>
   <path class="fil0" d="M281.46 815.42l-2.68 0c0,-55.02 -44.77,-99.79 -99.79,-99.79l0 -2.68c56.5,0 102.47,45.97 102.47,102.47z"/>
   <path class="fil0" d="M258.53 815.42l-2.69 0c0,-42.38 -34.47,-76.86 -76.85,-76.86 -42.38,0 -76.86,34.48 -76.86,76.86l-2.68 0c0,-43.86 35.68,-79.54 79.54,-79.54 43.85,0 79.54,35.68 79.54,79.54z"/>
   <polygon class="fil0" points="351.47,859.15 246.57,859.15 246.57,856.46 348.79,856.46 348.79,742.45 386.34,742.45 386.34,745.14 351.47,745.14 "/>
   <path class="fil14" d="M1201.16 729.76c0,0 -1.75,-6.61 0.11,-9.47 1.86,-2.87 2.95,-7.48 3.22,-8.94 0.36,-1.95 3.72,-7.85 1.24,-7.99 -2.48,-0.13 -5.98,9.52 -7.11,11.46 -1.13,1.93 -4.21,-6.54 -6.1,-7.48 -1.88,-0.95 -16.78,6.8 -13.93,12.29 2.85,5.48 9.88,8.99 10.17,10.08 0.29,1.09 1.89,4.09 1.89,4.09l10.51 -4.04z"/>
   <path class="fil14" d="M1193.52 708.42c0,0 -9.95,-16.06 -11.61,-16.46 -1.66,-0.41 -2.6,0.29 -1.74,1.84 0.86,1.55 9.11,15.86 9.11,15.86 0,0 -15.34,-16.63 -16.59,-17.26 -0.73,-0.37 -2.61,0.89 -2.24,1.77 0.37,0.88 14.49,18.35 14.49,18.35 0,0 -14.36,-15.49 -15.61,-15.69 -1.09,-0.18 -2.58,1.37 -1.61,2.6 0.97,1.24 13.35,16.47 13.35,16.47 0,0 -11.26,-10.53 -12.51,-10.08 -0.76,0.29 -2.43,1.31 0.57,3.93 3.01,2.61 9.34,9.61 9.34,9.61l15.05 -10.94z"/>
   <path class="fil15" d="M1446.92 722.03l-246.31 0c0.13,-0.66 0.34,-1.25 0.66,-1.74 1.86,-2.87 2.95,-7.48 3.22,-8.94 0.36,-1.95 3.72,-7.85 1.24,-7.99 -0.02,0 -0.03,0 -0.05,0 -2.47,0 -5.93,9.54 -7.06,11.46 -0.11,0.2 -0.25,0.29 -0.4,0.29 -1.17,0 -3.33,-5.24 -5,-7.16 -1.65,-2.65 -9.82,-15.63 -11.31,-15.99 -0.31,-0.08 -0.59,-0.12 -0.84,-0.12 -1.11,0 -1.6,0.7 -0.9,1.96 0.7,1.26 6.3,10.99 8.36,14.56 -0.11,0.05 -0.22,0.1 -0.32,0.15 -3.51,-3.78 -14.47,-15.58 -15.52,-16.11 -0.09,-0.04 -0.19,-0.07 -0.31,-0.07 -0.85,0 -2.26,1.07 -1.93,1.84 0.3,0.73 9.93,12.7 13.32,16.91 -0.04,0.03 -0.07,0.05 -0.11,0.07 -3.54,-3.79 -13.31,-14.16 -14.33,-14.32 -0.05,-0.01 -0.12,-0.02 -0.18,-0.02 -1.06,0 -2.35,1.45 -1.43,2.62 0.79,1 9.08,11.22 12.19,15.04 -0.06,0.07 -0.11,0.14 -0.17,0.2 -2.94,-2.69 -9.82,-8.86 -11.09,-8.86 -0.03,0 -0.06,0 -0.09,0.01 -0.76,0.29 -2.43,1.31 0.57,3.93 3.01,2.61 9.34,9.61 9.34,9.61l0 0c0.04,0.09 0.08,0.18 0.12,0.27 0.44,0.84 0.98,1.65 1.58,2.4l-18.42 0 0 -97.88 285.17 0c8.76,0 15.87,7.11 15.87,15.87l0 66.13c0,8.77 -7.11,15.88 -15.87,15.88z"/>
   <g style="clip-path:url(#id0)">
    <image x="1131.08" y="621.19" width="32.96" height="103.68" xlink:href="BONECOS_Images\BONECOS_ImgID1.png"/>
   </g>
   <g style="clip-path:url(#id1)">
    <image x="1008.7" y="621.19" width="127.36" height="103.68" xlink:href="BONECOS_Images\BONECOS_ImgID2.png"/>
   </g>
   <path class="fil16" d="M1200.61 722.03l-20.44 0c-0.6,-0.75 -1.14,-1.56 -1.58,-2.4 -0.04,-0.09 -0.08,-0.18 -0.12,-0.27l15.05 -10.94c0,0 -0.1,-0.17 -0.3,-0.47 1.67,1.92 3.83,7.16 5,7.16 0.15,0 0.29,-0.09 0.4,-0.29 1.13,-1.92 4.59,-11.46 7.06,-11.46 0.02,0 0.03,0 0.05,0 2.48,0.14 -0.88,6.04 -1.24,7.99 -0.27,1.46 -1.36,6.07 -3.22,8.94 -0.32,0.49 -0.53,1.08 -0.66,1.74zm-19.54 -6.13c0,0 -0.51,-0.48 -1.33,-1.23 0.06,-0.06 0.11,-0.13 0.17,-0.2 0.72,0.89 1.16,1.43 1.16,1.43zm3.87 -3.38c0,0 -0.49,-0.52 -1.28,-1.37 0.04,-0.02 0.07,-0.04 0.11,-0.07 0.73,0.9 1.17,1.44 1.17,1.44zm4.34 -2.86c0,0 -0.4,-0.43 -1.07,-1.15 0.1,-0.05 0.21,-0.1 0.32,-0.15 0.46,0.81 0.75,1.3 0.75,1.3z"/>
   <path class="fil17" d="M1178.47 719.36c0,0 -6.33,-7 -9.34,-9.61 -3,-2.62 -1.33,-3.64 -0.57,-3.93 0.03,-0.01 0.06,-0.01 0.09,-0.01 1.27,0 8.15,6.17 11.09,8.86 0.82,0.75 1.33,1.23 1.33,1.23 0,0 -0.44,-0.54 -1.16,-1.43 -3.11,-3.82 -11.4,-14.04 -12.19,-15.04 -0.92,-1.17 0.37,-2.62 1.43,-2.62 0.06,0 0.13,0.01 0.18,0.02 1.02,0.16 10.79,10.53 14.33,14.32 0.79,0.85 1.28,1.37 1.28,1.37 0,0 -0.44,-0.54 -1.17,-1.44 -3.39,-4.21 -13.02,-16.18 -13.32,-16.91 -0.33,-0.77 1.08,-1.84 1.93,-1.84 0.12,0 0.22,0.03 0.31,0.07 1.05,0.53 12.01,12.33 15.52,16.11 0.67,0.72 1.07,1.15 1.07,1.15 0,0 -0.29,-0.49 -0.75,-1.3 -2.06,-3.57 -7.66,-13.3 -8.36,-14.56 -0.7,-1.26 -0.21,-1.96 0.9,-1.96 0.25,0 0.53,0.04 0.84,0.12 1.49,0.36 9.66,13.34 11.31,15.99 0.2,0.3 0.3,0.47 0.3,0.47l-15.05 10.94 0 0z"/>
   <polygon class="fil9" points="1035.22,661.67 1108.36,661.67 1108.36,654.18 1035.22,654.18 "/>
   <polygon class="fil9" points="1122.59,661.67 1174.52,661.67 1174.52,654.18 1122.59,654.18 "/>
   <polygon class="fil9" points="1122.59,689.87 1171.08,689.87 1171.08,682.38 1122.59,682.38 "/>
   <polygon class="fil11" points="1382.71,661.67 1434.64,661.67 1434.64,654.18 1382.71,654.18 "/>
   <polygon class="fil10" points="1188.5,661.67 1254.66,661.67 1254.66,654.18 1188.5,654.18 "/>
   <polygon class="fil18" points="1303.59,661.67 1369.75,661.67 1369.75,654.18 1303.59,654.18 "/>
   <polygon class="fil9" points="1266.89,661.67 1291.11,661.67 1291.11,654.18 1266.89,654.18 "/>
   <polygon class="fil11" points="1035.22,689.87 1073.1,689.87 1073.1,682.38 1035.22,682.38 "/>
   <polygon class="fil10" points="1082.4,689.87 1094.63,689.87 1094.63,682.38 1082.4,682.38 "/>
   <polygon class="fil9" points="1333.53,689.87 1434.64,689.87 1434.64,682.38 1333.53,682.38 "/>
   <polygon class="fil19" points="1103.62,689.87 1116.11,689.87 1116.11,682.38 1103.62,682.38 "/>
   <polygon class="fil10" points="1291.11,689.87 1324.19,689.87 1324.19,682.38 1291.11,682.38 "/>
   <polygon class="fil11" points="1211.97,689.87 1282.35,689.87 1282.35,682.38 1211.97,682.38 "/>
   <polygon class="fil9" points="1177.77,689.87 1201.98,689.87 1201.98,682.38 1177.77,682.38 "/>
   <path class="fil20" d="M1189.48 1062.33c0,0 -9.55,9.59 -17.76,10.62 -8.22,1.04 -17.75,4.12 -18.86,10.31 -1.12,6.19 24.32,12.76 34.34,7.92 14.96,-7.22 19.3,-4.35 21.58,-8.78 2.28,-4.43 1.86,-19.71 2.2,-21.18 0.44,-1.81 -21.5,1.11 -21.5,1.11z"/>
   <path class="fil20" d="M1358.17 1035.2c0,0 -2.76,13.12 -8.85,18.15 -6.08,5.04 -12.17,12.51 -9.89,18.44 2.28,5.92 23.98,5.22 31.74,-10.44 4.9,-9.91 10.6,-11.62 10.16,-16.61 -0.44,-4.98 -8.02,-15.65 -8.5,-17.1 -0.58,-1.79 -14.66,7.56 -14.66,7.56z"/>
   <path class="fil21" d="M1254.01 847.38c0,0 -32.91,68.17 -40.34,85.45 -6.89,16.02 -13.97,44.78 -14.92,56.03 -1.19,14.15 -14.74,71.7 -15.58,75.83 -0.83,4.14 28.69,1.65 28.69,1.65 0,0 25.72,-98.03 32.53,-111.93 4.55,-9.28 38.7,-71.03 41.72,-67.2 3.02,3.83 21.38,49.97 23.62,61.04 2.23,11.07 44.29,93.37 44.29,93.37 0,0 19.63,-1.43 23.49,-8.92 0,0 -31.36,-83.41 -34.85,-98.59 -1.77,-7.73 -8.27,-56.4 -16.46,-93.71 -4.21,-19.19 -72.19,6.98 -72.19,6.98z"/>
   <path class="fil22" d="M1337.38 743.57c0,0 -11.31,34.05 -11.06,42.16 0.25,8.1 -6.28,-39.63 11.06,-42.16z"/>
   <path class="fil23" d="M1257.03 756.16c0,0 -1.4,4.7 -4.06,10.36l0 0c-0.97,2.07 -2.12,4.26 -3.42,6.39 -0.22,0.38 -0.46,0.75 -0.7,1.13 -0.92,1.43 -1.91,2.83 -2.98,4.12 -3.37,4.09 -7.44,7.21 -12.16,7.56 -9.67,0.71 -44.41,-52.4 -44.41,-52.4l16.59 -7.54c0,0 21.99,31.74 25.41,30 3.41,-1.75 6.94,-14.63 6.94,-14.63 4.04,-2.23 10.2,3.94 14.36,9.03 0.27,0.33 0.53,0.66 0.78,0.98 2.19,2.77 3.65,5 3.65,5z"/>
   <path class="fil23" d="M1328.21 845.85c-18.8,16.85 -78.89,11.27 -78.89,11.27 0.87,-2.08 6.96,-64.73 4.83,-78.88 -2.13,-14.15 -0.93,-26.18 -2.81,-26.73 -1.89,-0.55 -14.81,-5.06 -14.81,-5.06 0,0 6.87,-21.84 9.75,-26.58 2.87,-4.74 23.46,-11.66 23.46,-11.66 0,0 15.98,-5.73 32.93,-3.73 28.32,3.35 31.72,11.69 31.72,11.69l-6.58 42.06c0,0 0,0.16 -0.01,0.46 -0.04,0.94 -0.12,3.3 -0.24,6.55 -0.48,13.52 -1.49,42.48 -1.63,49.38 -0.22,11.08 2.28,31.23 2.28,31.23z"/>
   <path class="fil24" d="M1307.34 705.24c-1.16,2.14 -2.39,4 -3.65,5.62 -8.83,11.4 -19.09,10.99 -19.09,10.99 -6.27,-0.55 -9.61,-4.6 -11.36,-8.25 -1.51,-3.16 -1.82,-6 -1.82,-6l3.73 -1.35c0.29,-0.95 0.46,-2.28 0.55,-3.78 0.05,-0.8 0.07,-1.65 0.08,-2.51 0,-0.75 -0.01,-1.51 -0.03,-2.25 -0.01,-0.29 -0.02,-0.59 -0.03,-0.88 -0.11,-3.17 -0.36,-5.81 -0.36,-5.81 0,0 26.83,-14.5 24.64,-4.28 -1,4.68 -0.84,8.35 -0.17,11.05 0.79,3.23 2.31,5.08 3.47,5.64 2.55,1.23 4.04,1.81 4.04,1.81z"/>
   <path class="fil14" d="M1230.28 725.91c0,0 -1.48,-1.32 -1.65,-2.9 -0.28,-2.74 2.45,-6.25 -0.69,-8.73 -3.14,-2.49 -14.38,5.09 -15.53,7.44 -1.15,2.35 1.93,6.93 9.17,11.32 7.22,4.4 8.7,-7.13 8.7,-7.13z"/>
   <path class="fil14" d="M1228.87 715.26c0,0 -2.62,-5.26 -6.29,-10.75 -3.22,-4.82 -7.75,-9.93 -9.06,-9.05 -1.79,1.2 2.3,4.8 5.14,9.79 2.63,4.6 1.29,4.15 1.29,4.15 0,0 0.39,0.1 -3.51,-4.35 -4.19,-4.77 -9.32,-9.84 -10.5,-8.78 -0.74,0.66 -0.9,0.68 0.32,2.66 -0.96,-0.99 -1.39,-0.87 -1.87,-0.51 -2.5,1.86 2.48,9.84 4.47,13.01 -1.54,-2.43 -2.94,-4.04 -3.73,-1.97 -0.9,2.37 6.69,13.32 9,17.51 2.53,4.57 14.74,-11.71 14.74,-11.71z"/>
   <path class="fil23" d="M1336.75 748.48c12.15,-14.8 -2.89,-33.13 -2.89,-33.13 -8.89,-7.58 -28.35,24.22 -30.81,27.33 -2.45,3.11 -21.07,19.75 -26.26,25.36 -2.66,2.87 -13.8,-9.35 -18.91,-14.23 -3.07,-2.92 -26.99,-30.99 -26.99,-30.99 0,0 -16.48,11.9 -15.09,10.89 1.38,-1 48.77,61.05 57.56,61.52 0,0 34.04,-11.01 63.39,-46.75z"/>
   <path class="fil22" d="M1249.55 772.91c-0.22,0.38 -0.46,0.75 -0.7,1.13 -0.92,1.43 -1.91,2.83 -2.98,4.12 -2.29,-2.73 -10.93,-22.25 -11.07,-22.55l14.75 17.3z"/>
   <path class="fil22" d="M1323.4 762.9c0,0 -15.24,13.67 -23.51,18.72 -8.28,5.05 -22.08,11.93 -23.62,12.53 0,0 36.56,-7.13 47.13,-31.25z"/>
   <path class="fil14" d="M1261.13 653.57c0,0 -5.82,10.8 -2.93,12.48 2.38,1.39 -2.79,11.98 -3.47,13.72 -0.68,1.73 4.32,2.99 5.38,4.1 1.06,1.11 4.21,14.83 8.32,15.24 4.12,0.41 22.67,-6.04 27.72,-11.29 5.05,-5.25 9.2,-28.97 5.82,-38.98 -3.37,-10.01 -30.56,-14.13 -40.84,4.73z"/>
   <path class="fil25" d="M1259.97 655.91c0,0 -5.95,-11.66 4.86,-20.31 10.8,-8.66 30.71,6.53 32.96,7.11 2.24,0.58 14.98,1.45 8.55,23.81 -5.53,19.2 -6.3,20.01 -6.3,20.01 0,0 -4.12,-11.12 -6.45,-12.82 -3.65,-2.65 -11.65,-2.01 -11.65,-2.01 0,0 3.82,-10.12 -2.14,-11.55 -5.96,-1.43 -13.8,-6.48 -19.83,-4.24z"/>
   <path class="fil14" d="M1288.29 665.91c0.52,-1.39 2.22,-7.36 7.34,-3.85 5.12,3.5 -3.19,14.74 -4.09,14.88 -0.89,0.15 -7.68,0.64 -3.25,-11.03z"/>
   <path class="fil26" d="M1295.61 688.34c0,0 -4.36,8.61 -19.91,14.13 0.05,-0.8 0.07,-1.65 0.08,-2.51 0,-0.75 -0.01,-1.51 -0.03,-2.25 0,0 11.99,-3.28 19.86,-9.37z"/>
   <path class="fil27" d="M727.49 478.88c0,0 1.18,9.67 2.75,13.94 1.57,4.27 10.11,14.11 6.5,23.57 -3.91,10.26 -20.97,0.37 -27.92,-2.75 -6.96,-3.14 -5.38,-8.81 -6.12,-15.77 -0.74,-6.96 -4.14,-7.15 -2.88,-12.03 1.25,-4.89 8.86,-14.26 8.86,-14.26l18.81 7.3z"/>
   <path class="fil14" d="M711.96 466.53l-4.24 6.27c0.12,0.17 18.7,11.49 20,7.81 1.02,-2.91 1.45,-7.14 1.45,-7.14l-17.21 -6.94z"/>
   <path class="fil27" d="M648.96 485.72c0,0 -5.67,4.97 -10.76,12.61 -5.09,7.63 -18.61,8.04 -19.19,18.47 -0.58,10.42 18.38,10.74 28.33,7.35 9.95,-3.39 11.45,-13.58 17.47,-16.12 6.02,-2.55 9.15,-4.61 8.68,-9.58 -0.46,-4.97 -3.79,-13.04 -3.79,-13.04 0,0 -3.74,1.2 -5.94,1.44 -2.19,0.24 -9.59,0.33 -14.8,-1.13z"/>
   <path class="fil23" d="M717.18 203.26c0,0 -3.82,22.68 -6.9,37.66l0 0.01c-1.24,6.07 -2.37,10.88 -3.07,12.39 -0.87,1.91 -8.03,9.6 -16.8,18.62 -15.37,15.83 -35.68,35.76 -35.68,35.76l-7.94 -15.08c0,0 18.04,-21.15 30.27,-35.26 5.66,-6.53 10.08,-11.56 10.89,-12.28 2.55,-2.28 5.52,-24.83 9.69,-43.4 4.17,-18.58 12.53,-28.84 12.53,-28.84l7.01 30.42z"/>
   <path class="fil14" d="M690.41 271.94c-15.37,15.83 -35.68,35.76 -35.68,35.76l-7.94 -15.08c0,0 18.04,-21.15 30.27,-35.26 3.75,1.84 10.63,6.22 13.35,14.58z"/>
   <path class="fil14" d="M649.85 478.78l-0.89 6.94c0,0 9.87,3.49 20.74,-0.31l0.22 -6.18 -20.07 -0.45z"/>
   <path class="fil23" d="M789.93 304.63c0.57,2.02 -104.52,0 -104.52,0 0,0 29.07,-21.16 30.96,-26.81 1.88,-5.65 -7.41,-39.57 -8.61,-50.6 -0.97,-8.83 -3.4,-48.34 2.41,-54.38 6.09,-6.3 28,-12.92 28,-12.92l31.94 1.19c0,0 5.27,1.1 9.04,2.85 3.77,1.75 25.31,9.43 28.81,20.19 3.51,10.77 -21.49,45.39 -21.49,45.39 0,0 -0.06,1.56 -0.13,4.1 -0.1,3.4 -0.24,8.57 -0.37,14.17 -0.17,7.26 -0.31,15.25 -0.31,21.09 0,13.73 3.71,33.71 4.27,35.73z"/>
   <path class="fil21" d="M789.93 304.63c0,0 14.3,21 14.5,35.33 0.2,14.33 -25.37,62.33 -29.23,69.2 -11.64,20.65 -43.54,65.18 -43.54,65.18 0,0 -5.5,-0.15 -22.66,-6.8 0,0 21.23,-58.83 23.92,-64.94 11.41,-25.89 17.77,-44.26 13.94,-48.7 -3.84,-4.44 -14.3,-8.9 -17.32,-11.52 -3.03,-2.63 -55.78,9.96 -61.31,11.4 -14.31,3.71 -7.79,28.61 -4.62,39.78 5.29,18.68 9.93,86.13 9.93,86.13 0,0 -10.19,4.35 -27.27,0.67 0,0 -33.53,-121.79 -34.61,-133.91 -1.07,-12.11 -1.6,-32.08 81.03,-47.26l97.24 5.44z"/>
   <path class="fil14" d="M746.93 90.53c0,0 -27.72,-6.25 -21.39,28.64 6.33,34.89 13,37.63 29.73,30.41 16.73,-7.22 15.23,-29.58 16.07,-40.54 0.84,-10.96 -15.56,-18.13 -24.41,-18.51z"/>
   <path class="fil14" d="M739.6 168.88c0,0 12.28,13.02 31.68,1.19 0,0 -4.34,-28.21 -2.05,-41.95 2.28,-13.75 -25.32,21.28 -25.32,21.28 0.36,0.2 0.6,1.51 0.66,3.37 0.04,1.59 -0.04,3.56 -0.3,5.6 -0.57,4.56 -1.98,9.39 -4.67,10.51z"/>
   <path class="fil28" d="M769.99 126.95c0,0 -0.72,-10.99 -4.73,-11.34 -4.02,-0.34 -4.64,4.08 -4.64,4.08l-4.05 0.77c0,0 1.28,-9.64 -2.73,-11.32 -4.01,-1.68 -25.98,5.31 -29.19,2.48 -3.22,-2.83 -1.71,-22.38 4.11,-25.05 5.82,-2.68 21.89,-8.67 33.68,-0.7 0,0 9.18,-1.04 10.54,6.37 1.36,7.4 -0.49,29.2 -2.99,34.71z"/>
   <path class="fil26" d="M744.27 158.37c20.03,-6.17 21.54,-18.23 21.56,-18.42 -6.6,11.33 -21.26,12.82 -21.26,12.82 0.04,1.59 -0.04,3.56 -0.3,5.6z"/>
   <path class="fil14" d="M779.48 164.12c0,0 -14.66,29.18 -38.35,27.3 -23.69,-1.89 -4.04,-31.22 -2.96,-31.5 1.18,-0.29 24.29,-6.05 41.31,4.2z"/>
   <path class="fil22" d="M673.39 303.15c0,0 72.58,8.95 116.54,1.48l-84.01 -10.5c0,0 -0.5,2.15 -32.53,9.02z"/>
   <path class="fil14" d="M727.67 290.83l-5.41 2.74c0,0 1.24,8.59 4.2,11.19l6.07 -1.55c0,0 -1.27,-9.42 -4.86,-12.38z"/>
   <path class="fil23" d="M811.65 273.24c-1.08,1.26 -15.35,6.99 -31.46,13.2l-0.01 0c-22.02,8.49 -46.85,16.51 -46.85,16.51l-5.66 -12.12c0,0 26.01,-14.14 43.59,-24.05 8.3,-4.68 14.72,-8.42 15.63,-9.28 2.82,-2.69 3.56,-7.01 1.48,-14.54 -2.08,-7.53 -6.87,-42.12 -7.4,-46.16 -0.54,-4.04 1.34,-14.8 11.44,-15.34 10.09,-0.54 15.23,2.31 15.23,2.31 0,0 2.53,1.05 4.41,25.55 1.89,24.49 2.16,60.96 -0.4,63.92z"/>
   <path class="fil22" d="M786.34 233.64l0 0c-0.1,3.4 -0.24,8.57 -0.37,14.17 -9.85,-24.14 -4.16,-43.42 -4.06,-43.74 -1.07,6.55 4.35,29.25 4.43,29.57z"/>
   <path class="fil22" d="M710.28 240.92l0 0.01c-1.24,6.07 -2.37,10.88 -3.07,12.39 -3.36,-16.28 -0.33,-37.13 -0.33,-37.13 0.45,9.96 3.4,24.73 3.4,24.73z"/>
   <path class="fil14" d="M780.19 286.44l-0.01 0c-22.02,8.49 -47.65,16.77 -47.65,16.77l-4.86 -12.38c0,0 26.01,-14.14 43.59,-24.05 0,0 6.39,3.12 8.93,19.66z"/>
   <polygon class="fil29" points="726.11,303.93 622.95,302.41 675.03,328.85 "/>
   <polygon class="fil30" points="675.03,328.85 726.11,309.07 726.11,303.93 671,323.81 "/>
   <path class="fil14" d="M723.44 293.76c0,0 -6.45,-1.01 -10.9,-2.05 -3.45,-0.8 -12.02,0.31 -14.2,2.52 -2.18,2.21 -9.13,17.62 -10.44,18.56 -1.31,0.95 0.68,3.12 2.98,2.03 0,0 2.12,6.74 7.34,4.21 5.22,-2.52 8.77,-8.03 11.51,-9 2.73,-0.97 18.67,-5.87 18.67,-5.87 0,0 -0.86,-12.05 -4.96,-10.4z"/>
   <path class="fil14" d="M699.91 293.22c0,0 -4.14,2 -5.22,2.89 -1.08,0.89 -5.46,4.17 -6.52,4.94 -1.06,0.77 1.6,2.97 9.43,-0.43 7.83,-3.39 2.31,-7.4 2.31,-7.4z"/>
   <polygon class="fil4" points="675.03,328.85 644.35,245.08 545.44,246.69 574.68,323.9 "/>
   <path class="fil14" d="M760.71 115.04c0.37,-3.08 6.45,-4.21 6.94,0.41 0.49,4.61 -2.76,12.71 -5.07,11.91 -2.32,-0.79 -2.37,-8.08 -1.87,-12.32z"/>
   <path class="fil2" d="M658.15 49.9l-56.1 0c-1.1,0 -1.99,-0.89 -1.99,-1.99l0 -2.25c0,-1.11 0.89,-2 1.99,-2l56.1 0c1.1,0 1.99,0.89 1.99,2l0 2.25c0,1.1 -0.89,1.99 -1.99,1.99z"/>
   <path class="fil2" d="M652.34 62.21l-50.29 0c-1.1,0 -1.99,-0.89 -1.99,-1.99l0 -2.25c0,-1.1 0.89,-1.99 1.99,-1.99l50.29 0c1.1,0 1.99,0.89 1.99,1.99l0 2.25c0,1.1 -0.89,1.99 -1.99,1.99z"/>
   <path class="fil2" d="M639.76 74.85l-37.71 0c-1.1,0 -1.99,-0.89 -1.99,-1.99l0 -2.25c0,-1.1 0.89,-2 1.99,-2l37.71 0c1.1,0 1.99,0.9 1.99,2l0 2.25c0,1.1 -0.89,1.99 -1.99,1.99z"/>
   <path class="fil14" d="M508.46 879.67c0,0 5.47,2.44 8.07,1.34 2.59,-1.11 6.61,-1.33 7.88,-1.33 1.69,0 6.99,-1.89 6.9,0.18 -0.09,2.07 -8.61,3.52 -10.35,4.16 -1.74,0.65 5.21,4.48 5.86,6.18 0.64,1.7 -7.2,12.87 -11.64,9.69 -4.43,-3.19 -6.82,-9.54 -7.72,-9.94 -0.91,-0.4 -3.33,-2.19 -3.33,-2.19l4.33 -8.09z"/>
   <path class="fil14" d="M525.98 889.21c0,0 12.84,10.65 13.04,12.08 0.2,1.44 -0.47,2.11 -1.72,1.17 -1.25,-0.94 -12.74,-9.92 -12.74,-9.92 0,0 12.87,15.19 13.3,16.32 0.26,0.66 -0.97,2.03 -1.69,1.59 -0.72,-0.44 -14.4,-14.75 -14.4,-14.75 0,0 11.98,14.21 12.05,15.27 0.05,0.93 -1.39,1.94 -2.36,0.94 -0.96,-0.98 -12.89,-13.53 -12.89,-13.53 0,0 8.02,10.92 7.52,11.88 -0.3,0.59 -1.31,1.82 -3.29,-1.06 -1.97,-2.88 -7.4,-9.17 -7.4,-9.17l10.58 -10.82z"/>
   <path class="fil21" d="M419.96 1110.61c0,0 -0.49,17.44 2,18.49 2.49,1.05 11.92,-5.01 16.08,-11.01 4.16,-6.01 -5.21,-19.97 -6.75,-27.67 -0.65,-3.23 -7.97,-9.03 -11.54,-7.37 -3.58,1.67 -6.19,5.93 -6.19,5.93 0,0 9.09,6.23 6.4,21.63z"/>
   <path class="fil31" d="M413.56 1088.98c0,0 3.1,5.95 4.69,10.57 1.59,4.62 1.89,17.41 2.89,18.3 1,0.89 8.9,-3.1 9.96,-7.88 1.05,-4.79 -2.15,-14.34 -5.2,-19.37 -3.05,-5.03 -6.15,-7.55 -6.15,-7.55 0,0 -5.39,1.05 -6.19,5.93z"/>
   <polygon class="fil21" points="431.29,1090.42 439.78,1102.81 438.17,1103.91 431.61,1094.34 "/>
   <path class="fil31" d="M383.07 976.87c0,0 4.84,25.69 4.84,31.83 0,6.14 1.67,16.19 5.58,23.63 3.91,7.45 21.06,58.3 22.55,64.23 1.49,5.92 2.76,11.52 2.76,11.52 0,0 8.57,-3.91 8.57,-9.49 0,-5.59 -7.45,-51.74 -8.75,-60.86 -1.31,-9.12 -12.1,-55.83 -12.1,-55.83l-23.45 -5.03z"/>
   <path class="fil14" d="M410.43 975.2c0,0 -1.67,21.4 -1.49,26.98 0.19,5.59 2.79,18.24 2.79,21.59 0,3.35 0.01,72.76 -2.77,81.14 -2.78,8.37 7.79,2.61 7.79,2.61 0,0 18.43,-45.66 18.43,-64.7 0,-19.05 -2.23,-28.54 -0.93,-40.64 1.3,-12.09 9.49,-28.09 9.49,-28.09l-33.31 1.11z"/>
   <path class="fil14" d="M407.4 694.88c0,0 -17.12,17.25 -11.29,39.46 5.83,22.21 15.21,22.33 25.53,12.77 10.33,-9.55 16.41,-19.6 17.78,-30.77 1.36,-11.16 -16.38,-36.84 -32.02,-21.46z"/>
   <path class="fil14" d="M404.06 768.96c0,0 2.53,-5.81 4.31,-12.36 0.31,-1.15 0.6,-2.33 0.85,-3.5 0.87,-4.11 1.24,-8.17 0.29,-10.94 -2.73,-8.07 17.12,-2.49 17.12,-2.49 0,0 -3.84,21.34 0,28.54 3.85,7.2 -22.57,0.75 -22.57,0.75z"/>
   <path class="fil21" d="M438.3 872.18c0,0 12.33,18.15 14.93,34.35 2.6,16.19 -2.29,40.28 -4.32,49.12 -1.77,7.75 -4.42,31.83 -4.61,34.44 0,0 -38.71,10.05 -64.02,2.05 0,0 -3.92,-39.77 -5.41,-54.47 -1.49,-14.7 8.83,-64.37 8.83,-64.37l54.6 -1.12z"/>
   <path class="fil32" d="M511.92 880.62l-6.95 7.85c0,0 -41.5,-33.68 -43.37,-38.15 -1.85,-4.47 -15.91,-29.61 -16.47,-32.21 0,0 -2.69,6.96 -4.94,13.74 -0.92,2.82 -2.13,7.95 -2.68,10.19 -1.86,7.62 -2.07,19.85 0.79,30.14 0,0 -33.63,12.54 -54.6,1.12 0,0 2.24,-18.24 -1.11,-30.02 -3.36,-11.79 -20.85,-52.86 -20.85,-52.86 0,0 9.31,-17.25 18.99,-20.59 9.67,-3.36 20.72,-5.86 20.72,-5.86l22.94 0c0,0 15.1,3.93 18.48,5 6.04,1.91 11.66,9.57 12.78,16.46 1.12,6.88 16.94,53.91 18.8,55.22 1.86,1.3 37.47,39.97 37.47,39.97z"/>
   <path class="fil14" d="M375.97 858.25c0,0 14.89,0.58 17.2,0 2.32,-0.58 17.77,-7.28 18.7,-13.9 0.93,-6.62 -35.9,5.93 -35.9,5.93l0 7.97z"/>
   <path class="fil33" d="M400.22 1126.02c0,0 -11.5,13.42 -10.21,15.83 1.29,2.42 12.58,3.65 19.68,1.57 7.1,-2.08 8.61,-19.04 12.31,-26.09 1.54,-2.95 -0.53,-12.18 -4.4,-13.15 -3.88,-0.97 -8.64,0.73 -8.64,0.73 0,0 3.19,10.69 -8.74,21.11z"/>
   <path class="fil14" d="M408.96 1104.91c0,0 -1.36,6.66 -3.05,11.3 -1.69,4.66 -9.6,14.92 -9.38,16.26 0.23,1.34 8.99,3.23 12.86,0.14 3.88,-3.1 7.45,-12.67 8.25,-18.57 0.8,-5.9 0.37,-9.71 0.37,-9.71 0,0 -5.32,-2.76 -9.05,0.58z"/>
   <polygon class="fil33" points="422,1117.33 420.79,1132.5 418.82,1132.34 419.76,1120.62 "/>
   <polygon class="fil34" points="422.17,837.57 361.74,830.5 389.04,852.71 "/>
   <path class="fil4" d="M377.79 849.73c0,0 -0.62,7.69 0,9.31 0,0 -37.27,-3.73 -40.74,-8.94 -3.47,-5.21 -3.35,-11.54 -3.35,-11.54l44.09 11.17z"/>
   <path class="fil35" d="M412.99 707.29c0,0 8.19,14.89 13.27,20.22 5.09,5.34 4.49,9.57 4.49,9.57 0,0 19.83,-24.46 5.69,-39.22 -14.15,-14.77 -32.38,-8.81 -37.72,4.09 -5.34,12.91 -3.38,28.67 -3.38,28.67 0,0 0.15,-15.15 17.65,-23.33z"/>
   <path class="fil35" d="M418.39 691.7c0,0 -1.98,-10.9 15.11,-15.23 17.1,-4.34 24.77,15.35 22.67,27.37 -2.11,12.01 -16.72,42.48 -8.8,46.44 7.93,3.97 11.03,-4.58 11.03,-4.58 0,0 -2.48,14.99 -13.5,11.52 -11.03,-3.47 -9.54,-27.82 -7.88,-37.53 1.66,-9.71 -18.63,-27.99 -18.63,-27.99z"/>
   <path class="fil36" d="M401.45 763.97c0,0 1.57,-4.57 1.4,-5.64 0,0 21.59,-1.34 27.13,-0.52 0,0 0.44,6.11 0.39,7.49 -0.05,1.38 -25.03,5.56 -28.92,-1.33z"/>
   <polygon class="fil13" points="389.04,852.71 422.17,841.42 422.17,837.57 387.92,848.55 "/>
   <polygon class="fil13" points="389.04,852.71 371.42,787.19 304.42,780.12 322.78,840.42 "/>
   <path class="fil26" d="M423.9 744.96c-0.07,0.15 -4.39,10.1 -15.53,11.64 0.31,-1.15 0.6,-2.33 0.85,-3.5 0,0 6.11,1.24 14.68,-8.14z"/>
   <path class="fil36" d="M445.13 818.11c0,0 -2.69,6.96 -4.94,13.74 -2.27,-19.04 0.8,-34.19 0.8,-34.19 0.24,10.17 4.14,20.45 4.14,20.45z"/>
   <path class="fil37" d="M421.05 689.41c0,0 12.14,2.33 18.18,12.22 0,0 -1.22,-8.95 -7.26,-11.54 -6.04,-2.57 -10.92,-0.68 -10.92,-0.68z"/>
   <path class="fil3" d="M597.85 277.15c2.29,0 4.59,0 6.88,0 2.3,0 4.59,0 6.89,0 1.33,0 2.53,0.55 3.4,1.42 0.88,0.87 1.42,2.08 1.42,3.4 0,2.31 0,4.61 0,6.91 0,2.3 0,4.61 0,6.91 -2.27,0 -4.55,0 -6.81,0 -2.27,0 -4.55,0 -6.82,0 -1.36,0 -2.6,-0.56 -3.5,-1.46 -0.9,-0.9 -1.46,-2.14 -1.46,-3.5 0,-2.28 0,-4.56 0,-6.84 0,-2.28 0,-4.56 0,-6.84zm11.74 1.64c1.08,0 2.08,0.38 2.8,0.99 1.27,1.08 1.88,2.86 1.55,4.45 -0.33,1.59 -1.62,3 -4.14,3.32 0.55,1.1 1.1,2.21 1.64,3.3 0.55,1.1 1.09,2.21 1.64,3.31 -1.25,0 -2.5,0 -3.75,0 -0.78,-1.58 -1.57,-3.16 -2.35,-4.74 -0.78,-1.58 -1.56,-3.16 -2.34,-4.74 0.82,0 1.64,0 2.46,0 0.82,0 1.64,0 2.46,0 2.04,0 2.21,-2.89 -0.13,-2.89 -1.23,0 -2.46,0 -3.68,0 -1.23,0 -2.45,0 -3.68,0 -0.94,0 -1.72,-0.51 -1.72,-1.24 0,-0.58 0,-1.17 0,-1.76 1.54,0 3.08,0 4.62,0 1.54,0 3.08,0 4.62,0z"/>
  </g>
 </g>
</svg>
