<?xml version="1.0" encoding="UTF-8"?>
<!DOCTYPE svg PUBLIC "-//W3C//DTD SVG 1.1//EN" "http://www.w3.org/Graphics/SVG/1.1/DTD/svg11.dtd">
<!-- Creator: CorelDRAW 2020 (64 Bit) -->
<svg xmlns="http://www.w3.org/2000/svg" xml:space="preserve" width="25.6538mm" height="23.7066mm" version="1.1" style="shape-rendering:geometricPrecision; text-rendering:geometricPrecision; image-rendering:optimizeQuality; fill-rule:evenodd; clip-rule:evenodd"
viewBox="0 0 2565.38 2370.66"
 xmlns:xlink="http://www.w3.org/1999/xlink"
 xmlns:xodm="http://www.corel.com/coreldraw/odm/2003">
 <defs>
  <style type="text/css">
   <![CDATA[
    .fil0 {fill:#E60000}
   ]]>
  </style>
 </defs>
 <g id="Camada_x0020_1">
  <metadata id="CorelCorpID_0Corel-Layer"/>
  <g id="_1777944174624">
   <path class="fil0" d="M2310.55 1434.17l148.96 0 0 141.87 -148.96 0 0 -141.87zm-2213.16 0l141.87 0 0 141.87 -141.87 0 0 -141.87zm1106.57 -1255.54l148.98 0 0 141.87 -148.98 0 0 -141.87zm-85.11 28.37l-510.73 0c-29.62,0 -21.28,24.63 -21.28,85.13l255.36 0 -70.93 35.47c-86.35,43.23 -126.64,70.68 -204.75,128.64 -155.71,115.52 -253.39,263.49 -339.18,434.01 -57.41,114.13 -101.57,311.44 -101.57,458.8l-113.51 0 0 312.12 312.12 0 0 -312.12 -113.49 0c0,-158.56 35.46,-283.75 82,-400.34 35.81,-89.68 120.89,-231.28 189.18,-300.27 42.04,-42.47 76.84,-79.27 123.8,-117.38 121.46,-98.59 361.74,-221.38 512.98,-224.75l0 99.32 312.11 0 0 -99.32c195.97,4.37 517.68,187.27 639.47,339.43 80.59,100.69 138.25,173.38 189.56,299.89 24.26,59.84 44.26,112.59 58.32,182.86l20.67 163.76c1.48,31.9 6.34,25.75 7.03,56.8l-120.58 0 0 290.84c0,16.34 4.93,21.28 21.27,21.28l276.65 0c16.34,0 21.29,-4.94 21.29,-21.28l0 -290.84 -113.5 0c-11.7,-140.51 -28.22,-257.55 -68.19,-371.61 -85.52,-244.04 -231.24,-412.98 -430.29,-562.79 -69.54,-52.34 -209.58,-115.24 -217.96,-122.52l255.36 0c0,-60.5 8.34,-85.13 -21.28,-85.13l-517.82 0 0 -113.49 -312.11 0 0 113.49z"/>
   <path class="fil0" d="M771.27 1739.2l125.32 229.34c57.18,107.18 73.3,98.41 73.3,196.25 97.45,0 85.11,11.61 85.11,-63.83 0,-40.65 -142.57,-268.34 -173.32,-330.91 -16.4,-33.4 -4.74,-43.62 12.34,-71.22l380.88 -640.61 360.43 597.19c70.06,116.07 70.39,53.84 -43.48,258.86 -81.06,145.96 -89.95,128.87 -89.95,250.52l85.11 0c0,-66.31 -4.63,-65.48 34.1,-129.04l129.02 -232.76c35.18,-68 46.49,-42.43 4.9,-111.21l-114.34 -190.7c-24.38,-40.52 -341.7,-581.26 -365.79,-598.92 -87.73,131.03 -287.51,477.49 -375.56,624.62l-128.07 212.42z"/>
   <polygon class="fil0" points="891.86,2278.29 1665.04,2278.29 1665.04,2200.26 891.86,2200.26 "/>
   <path class="fil0" d="M1196.87 1717.91l0 63.84 35.47 0 0 361.77c0,29.61 24.62,21.27 85.13,21.27l0 -383.04 42.56 0c0,-105.89 24.82,-85.12 -141.87,-85.12 -16.35,0 -21.29,4.94 -21.29,21.28z"/>
   <path class="fil0" d="M397.2 92.35c87.22,0 157.93,70.71 157.93,157.93 0,87.22 -70.71,157.93 -157.93,157.93 -87.21,0 -157.93,-70.71 -157.93,-157.93 0,-87.22 70.72,-157.93 157.93,-157.93zm0 84.61c40.5,0 73.33,32.82 73.33,73.32 0,40.5 -32.83,73.32 -73.33,73.32 -40.49,0 -73.32,-32.82 -73.32,-73.32 0,-40.5 32.83,-73.32 73.32,-73.32z"/>
   <path class="fil0" d="M2156.19 92.35c87.21,0 157.93,70.71 157.93,157.93 0,87.22 -70.72,157.93 -157.93,157.93 -87.21,0 -157.93,-70.71 -157.93,-157.93 0,-87.22 70.72,-157.93 157.93,-157.93zm0 84.61c40.5,0 73.32,32.82 73.32,73.32 0,40.5 -32.82,73.32 -73.32,73.32 -40.5,0 -73.32,-32.82 -73.32,-73.32 0,-40.5 32.82,-73.32 73.32,-73.32z"/>
  </g>
 </g>
</svg>
