<?xml version="1.0" encoding="UTF-8"?>
<!DOCTYPE svg PUBLIC "-//W3C//DTD SVG 1.1//EN" "http://www.w3.org/Graphics/SVG/1.1/DTD/svg11.dtd">
<!-- Creator: CorelDRAW 2020 (64 Bit) -->
<svg xmlns="http://www.w3.org/2000/svg" xml:space="preserve" width="102.023mm" height="27.0932mm" version="1.1" style="shape-rendering:geometricPrecision; text-rendering:geometricPrecision; image-rendering:optimizeQuality; fill-rule:evenodd; clip-rule:evenodd"
viewBox="0 0 10202.32 2709.32"
 xmlns:xlink="http://www.w3.org/1999/xlink"
 xmlns:xodm="http://www.corel.com/coreldraw/odm/2003">
 <defs>
  <style type="text/css">
   <![CDATA[
    .fil0 {fill:#E60000}
    .fil2 {fill:#949494;fill-rule:nonzero}
    .fil1 {fill:#E60000;fill-rule:nonzero}
   ]]>
  </style>
 </defs>
 <g id="Camada_x0020_1">
  <metadata id="CorelCorpID_0Corel-Layer"/>
  <path class="fil0" d="M16.93 19.48l1972.02 0c379.52,0 690.03,310.68 690.03,690.41l0 1979.96 -1951.24 0c-390.95,0 -710.81,-320.04 -710.81,-711.2l0 -1959.17zm1680.74 234.18c154.78,0 297.89,53.89 401.45,142.1 363.6,309.72 351.36,1020.56 -370.54,1113.34l469.58 946.75 -537.34 0 -671.19 -1357.84 704.46 0c291.55,0 315.38,-414.12 -19.29,-414.12l-1053.08 0c-134.85,0 -246.42,-72.84 -246.42,-177.17l0 -253.06 1322.37 0z"/>
  <path class="fil1" d="M4254.64 825.24c0,283.97 -136.01,439.01 -407.19,465.55l400.87 694.74 -428.23 0 -398.35 -691.37 -30.74 0 0 691.37 -370.13 0 0 -1728.21 740.26 0c328.87,0 493.51,156.72 493.51,469.34l0 98.58zm-493.51 123.45c82.11,0 123.38,-41.29 123.38,-123.45l0 -98.58c0,-82.58 -41.27,-123.45 -123.38,-123.45l-370.13 0 0 345.48 370.13 0zm1215.61 0l616.88 0 0 345.47 -616.88 0 0 345.9 740.25 0 0 345.47 -1110.38 0 0 -1728.21 1110.38 0 0 345.89 -740.25 0 0 345.48zm1553.74 370.33l310.75 0 -155.37 -543.07 -155.38 543.07zm409.29 345.47l-508.25 0 -90.96 321.04 -370.13 0 493.52 -1728.21 443.81 0 493.51 1728.21 -370.13 0 -91.37 -321.04zm1157.92 -24.43l616.87 0 0 345.47 -616.87 0c-328.87,0 -493.51,-156.31 -493.51,-468.92l0 -789.95c0,-312.62 164.64,-469.34 493.51,-469.34l616.87 0 0 345.89 -616.87 0c-82.12,0 -123.39,40.87 -123.39,123.45l0 789.95c0,82.16 41.27,123.45 123.39,123.45zm1338.98 -1036.85l-370.13 0 0 -345.89 1110.39 0 0 345.89 -370.13 0 0 1382.32 -370.13 0 0 -1382.32z"/>
  <path class="fil2" d="M4564.46 2260.68l172.93 0c52.3,0 89.14,17.69 110.5,53.07 21.37,35.38 32.05,85.87 32.05,151.47 0,68.92 -11.79,120.24 -35.37,153.96 -23.56,33.72 -59.29,50.58 -107.18,50.58l-172.93 0 0 -409.08zm164.65 335.56c24.67,0 42.35,-10.78 53.04,-32.34 10.67,-21.56 16.02,-54.45 16.02,-98.68 0,-34.64 -2.49,-61.45 -7.46,-80.43 -4.97,-18.98 -12.43,-32.16 -22.37,-39.53 -9.95,-7.37 -23.03,-11.06 -39.23,-11.06l-82.88 0 0 262.04 82.88 0zm561.03 -335.56l81.78 0 0 409.08 -81.78 0 0 -409.08zm617.4 411.84c-32.42,0 -57.83,-8.29 -76.24,-24.87 -18.42,-16.59 -31.23,-39.9 -38.4,-69.93 -7.19,-30.04 -10.78,-67.54 -10.78,-112.5 0,-47.17 4.14,-85.69 12.43,-115.54 8.29,-29.85 23.4,-52.79 45.31,-68.82 21.91,-16.03 52.94,-24.05 93.09,-24.05 26.16,0 49.74,1.57 70.72,4.7 21,3.13 43.47,7.65 67.42,13.54l0 63.02c-14.37,-1.84 -32.69,-3.59 -54.98,-5.25 -22.29,-1.66 -45.03,-2.49 -68.24,-2.49 -23.57,0 -41.25,4.15 -53.04,12.44 -11.78,8.3 -19.89,21.93 -24.3,40.91 -4.43,18.98 -6.64,46.34 -6.64,82.09 0,35.75 2.21,62.93 6.64,81.54 4.41,18.61 11.6,31.6 21.54,38.98 9.95,7.37 24.13,11.05 42.54,11.05 14,0 27.82,-1.1 41.44,-3.31 13.63,-2.22 25.42,-4.98 35.36,-8.3l0 -79.6 -73.48 0 0 -64.68c11.05,-1.47 25.51,-2.76 43.37,-3.87 17.87,-1.11 34.9,-1.66 51.11,-1.66 22.84,0 41.99,0.55 57.46,1.66l0 232.18 -61.33 0 -11.05 -27.64c-13.63,8.11 -30.11,15.2 -49.45,21.28 -19.34,6.08 -39.51,9.12 -60.5,9.12zm603.03 -411.84l81.77 0 0 409.08 -81.77 0 0 -409.08zm588.12 73.52l-112.17 0 0 -73.52 306.64 0 0 73.52 -112.71 0 0 335.56 -81.76 0 0 -335.56zm663.25 -73.52l103.32 0 128.18 409.08 -85.09 0 -25.97 -85.69 -139.23 0 -25.42 85.69 -83.97 0 128.18 -409.08zm101.1 249.87l-50.27 -179.66 -50.28 179.66 100.55 0zm621.81 159.21c-32.78,0 -57.09,-7.56 -72.93,-22.67 -15.84,-15.11 -23.75,-39.8 -23.75,-74.07l0 -312.34 81.77 0 0 299.07c0,23.96 12.16,35.93 36.46,35.93l129.29 0 0 74.08 -150.84 0z"/>
 </g>
</svg>
