<?xml version="1.0" encoding="UTF-8"?>
<!DOCTYPE svg PUBLIC "-//W3C//DTD SVG 1.1//EN" "http://www.w3.org/Graphics/SVG/1.1/DTD/svg11.dtd">
<!-- Creator: CorelDRAW 2020 (64 Bit) -->
<svg xmlns="http://www.w3.org/2000/svg" xml:space="preserve" width="25.6538mm" height="23.7066mm" version="1.1" style="shape-rendering:geometricPrecision; text-rendering:geometricPrecision; image-rendering:optimizeQuality; fill-rule:evenodd; clip-rule:evenodd"
viewBox="0 0 2565.38 2370.66"
 xmlns:xlink="http://www.w3.org/1999/xlink"
 xmlns:xodm="http://www.corel.com/coreldraw/odm/2003">
 <defs>
  <style type="text/css">
   <![CDATA[
    .fil0 {fill:#E60000}
   ]]>
  </style>
 </defs>
 <g id="Camada_x0020_1">
  <metadata id="CorelCorpID_0Corel-Layer"/>
  <g id="_1781365842480">
   <path class="fil0" d="M1699.17 2122.78c-50.24,0 -227.33,8.47 -257.17,-12.64 -34.28,-24.25 -34.28,-69.37 0,-93.62 29.84,-21.11 206.93,-12.64 257.17,-12.64 115.78,0 115.78,118.9 0,118.9zm-164.63 -251.51c0,-35.81 23.81,-59.45 50.3,-59.45l265.24 0c68.09,0 66.5,114.32 -4.58,114.32l-256.08 0c-27.47,0 -54.88,-27.4 -54.88,-54.87zm370.41 -141.76l-260.66 0c-67.56,0 -67.76,-114.33 4.58,-114.33l246.94 0c89.1,0 77.48,114.33 9.14,114.33zm-32.01 -192.07c-50.07,0 -218.76,7.27 -250.89,-9.77 -41.6,-22.07 -51.53,-109.12 54.25,-109.12l196.64 0c118.08,0 118.08,118.89 0,118.89zm-128.04 -196.63c-75.65,0 -142,-11.62 -193.42,39.8 -29,29.01 -39.8,63.51 -39.8,106.53 0,39.8 25.27,67.75 41.15,91.46 -23.97,16.06 -41.15,56.97 -41.15,96.03 0,35.29 12.35,47.68 18.29,73.17 -38.64,9 -77.74,69.46 -77.74,118.9 0,25.24 9.4,40.92 13.72,59.44l-301.82 0c-8.84,-106.25 -31.39,-160.06 -90.77,-233.91 -11.06,-13.76 -44.09,-45.32 -60.13,-49.61 17.99,-24.56 126.51,-41.81 147.96,-204.59 4.65,-35.31 -9.58,-60.64 -51.93,-60.64l-297.24 0 0 -388.7 -82.32 0 0 379.55c0,27.41 -26.83,-2.09 -74.34,39.98 -18.92,16.76 -39.98,45.4 -39.98,78.92l0 868.86 77.74 0 0 -845.99c0,-67.36 63.01,-50.31 164.63,-50.31 73.16,0 146.33,0 219.5,0 -18.36,38.25 -23.61,66.78 -74.54,94.66 -94.47,51.73 -231.85,-19.85 -231.85,60.82 0,61.47 59.64,17.35 166.26,71.54 82.86,42.11 134.29,123.26 144.09,217.17 12.59,120.66 -47.37,99.99 265.84,99.99 -2.25,26.99 -23.36,63.32 4.44,123.61 16.06,34.84 66.89,73.03 119.03,73.03l0 155.48 82.31 0 0 -155.48 178.35 0c72.05,0 132.61,-67.02 132.61,-123.47 0,-34.5 2.53,-39.32 -13.71,-73.17 74.08,0 132.61,-64.05 132.61,-137.18 0,-32.1 -16.25,-48.69 -18.29,-73.17 47.88,-12.79 92.12,-88.36 68.29,-164.33 -6.91,-22.05 -19.77,-37.35 -31.71,-55.17 24.51,-36.6 59.09,-76.46 28.96,-147.86 -5.59,-13.24 -10.11,-21.52 -18.56,-31.74 -53.91,-65.22 -103.51,-53.62 -184.17,-53.62l0 -535.04c0,-21.47 -28.09,-13.72 -82.31,-13.72l0 548.76z"/>
   <path class="fil0" d="M2339.38 636.57l-475.59 0c-22.12,0 -36.58,-14.46 -36.58,-36.58l0 -192.07c90.69,0 76.62,-5.88 86.54,23.21 36.68,107.52 158.66,157.18 251.84,118.53 63.51,-26.34 106.46,-68.62 123.49,-141.74l82.31 0 0 178.35c0,22.01 -12.54,50.3 -32.01,50.3zm-356.69 -265.23c0,-37.18 7.82,-61.03 32.95,-85.95 62.8,-62.28 195.7,-40.18 195.7,85.95 0,100.58 -126.49,145.93 -195.65,76.76 -15.06,-15.06 -33,-48.2 -33,-76.76zm-86.88 -45.73l-68.6 0 0 -201.21c0,-19.47 28.3,-32.01 50.3,-32.01l439.01 0c37.63,0 54.87,17.24 54.87,54.88l0 178.34 -82.31 0c-35.44,-152.09 -214.66,-205.21 -323.63,-104.12 -22.83,21.18 -40.18,47.76 -50.59,77.45 -5,14.27 -3.43,26.67 -19.05,26.67zm-150.91 -196.63l0 466.44c0,70.7 52.76,123.47 123.47,123.47l466.44 0c55.99,0 114.32,-54.38 114.32,-109.76l0 -480.15c0,-62.97 -51.26,-114.33 -114.32,-114.33l-480.16 0c-55.38,0 -109.75,58.33 -109.75,114.33z"/>
   <path class="fil0" d="M1008.65 1038.99l0 -480.16c0,-23.59 19.04,-36.58 41.16,-36.58l457.29 0c22.12,0 41.16,12.99 41.16,36.58l0 480.16c0,14.82 -19.87,27.44 -36.58,27.44l-466.44 0c-16.71,0 -36.59,-12.62 -36.59,-27.44zm-82.31 -484.73l0 480.16c0,32.57 21.4,67.46 39.88,83.58 22.26,19.41 52.59,30.74 92.74,30.74l439 0c76.76,0 132.61,-50.75 132.61,-114.32l0 -480.16c0,-52.45 -52.74,-109.75 -105.17,-109.75l-493.88 0c-52.44,0 -105.18,57.3 -105.18,109.75z"/>
   <path class="fil0" d="M185.52 773.76l0 -425.28c0,-32.89 8.55,-59.45 41.16,-59.45l461.87 0c22.11,0 41.15,12.99 41.15,36.58l0 471.02c0,23.59 -19.04,36.58 -41.15,36.58l-452.73 0c-40.06,0 -50.3,-19.72 -50.3,-59.45zm-77.74 -457.29l0 489.3c0,71.84 69.18,109.75 146.34,109.75l411.56 0c83.62,0 146.34,-42.94 146.34,-123.47l0 -461.86c0,-81.08 -62.85,-123.47 -146.34,-123.47l-416.14 0c-43.56,0 -71.14,7.42 -96.8,26.66 -20.64,15.47 -44.96,48.49 -44.96,83.09z"/>
   <path class="fil0" d="M491.91 636.57l-96.03 0c0,-58.88 -31.33,-43.35 -45.73,-105.17 25.7,12.33 150.3,58.13 155.44,-22.91 2.69,-42.47 -9.44,-46.87 22.9,-63.98 26.16,6.09 25.16,11.42 33.01,35.58 7.85,24.17 18.1,22.88 31.01,42.16 -38.59,25.85 -23.26,27.93 -36.97,68.2 -9.18,26.96 -26.85,46.12 -63.63,46.12zm-73.17 -169.2c-53.06,0 -90.73,-57.72 -127.75,-45.64 -34.31,11.2 -27.73,37.75 -27.73,77.65 0,65.32 29.62,93.6 36.59,123.47 -12.44,18.58 -36.59,28.64 -36.59,54.88 0,22.6 18.56,41.16 41.16,41.16 79.11,0 203.34,10.99 259.29,-19.67 69.61,-38.13 67.42,-100.3 82.36,-118.84 24.84,-30.83 84.24,-61.98 17.05,-110.44 -23.68,-17.09 -20.93,-11.9 -32.65,-40.52 -33.54,-81.9 -156.27,-85.89 -195.91,-1.11 -6.27,13.41 -5.06,39.06 -15.82,39.06z"/>
   <path class="fil0" d="M885.18 220.44l0 68.59 786.55 0c0,-54.22 7.75,-82.31 -13.72,-82.31l-759.11 0c-10.53,0 -13.72,3.18 -13.72,13.72z"/>
   <path class="fil0" d="M1237.3 650.29l0 105.18 -77.74 0 0 77.74 77.74 0 0 146.33c0,20.32 21.35,13.72 68.59,13.72 10.54,0 13.72,-3.18 13.72,-13.72l0 -146.33 77.74 0 0 -77.74 -77.74 0 0 -77.74 77.74 0 0 -77.74c-106.84,0 -160.05,-17.78 -160.05,50.3z"/>
   <polygon class="fil0" points="1237.3,1692.92 1319.61,1692.92 1319.61,1615.18 1237.3,1615.18 "/>
  </g>
 </g>
</svg>
