<?xml version="1.0" encoding="UTF-8"?>
<!DOCTYPE svg PUBLIC "-//W3C//DTD SVG 1.1//EN" "http://www.w3.org/Graphics/SVG/1.1/DTD/svg11.dtd">
<!-- Creator: CorelDRAW 2020 (64 Bit) -->
<svg xmlns="http://www.w3.org/2000/svg" xml:space="preserve" width="25.6538mm" height="23.7066mm" version="1.1" style="shape-rendering:geometricPrecision; text-rendering:geometricPrecision; image-rendering:optimizeQuality; fill-rule:evenodd; clip-rule:evenodd"
viewBox="0 0 2565.38 2370.66"
 xmlns:xlink="http://www.w3.org/1999/xlink"
 xmlns:xodm="http://www.corel.com/coreldraw/odm/2003">
 <defs>
  <style type="text/css">
   <![CDATA[
    .fil0 {fill:#E60000}
   ]]>
  </style>
 </defs>
 <g id="Camada_x0020_1">
  <metadata id="CorelCorpID_0Corel-Layer"/>
  <g id="_1777944183504">
   <path class="fil0" d="M180.76 525.64l4.55 -2.13c16.59,-3.66 1714.12,-1.04 1899.2,-1.04 31.07,0 99.14,-3.6 125.83,1.4 5.06,21.88 1.7,757.73 1.7,840.44 0,33.37 -3.31,90.19 1.36,120.74 72.97,14.06 79.17,55.84 93.53,69.52 28.31,-11.32 38.76,-13.53 74.07,-10.69l-0.23 -1405.85c-4.68,-6.48 -2.3,-1.36 -5.19,-11.84 -1.01,-3.68 -2.06,-9.07 -3.13,-12.96 -6.12,-41.8 -55.46,-83.84 -102.05,-94.58 -37.78,-8.7 -524.35,-3.63 -586.23,-3.63l-1378.94 0c-112.19,0 -252.59,-26.92 -289.76,103.14 -11.03,38.59 -5.74,145.13 -5.74,191.42l0 1578.92c0,50.57 -5.88,145.91 9.85,187.23 45.6,119.82 187.38,90.98 304.7,90.98l1381.02 -0.03c-6.4,-54.21 -25.88,-41.71 13.31,-119.34 -8.02,-9.74 -15.83,-12.77 -24.23,-22.93 -6.85,-8.27 -12.07,-23.21 -22.92,-28.83l-1490.7 0 0 -1469.94z"/>
   <path class="fil0" d="M2135.98 1846.09c70.6,-10 128.25,42.9 136.3,102.8 9.81,73.08 -41.54,129.65 -103.2,138.33 -159.17,22.4 -195.83,-218.07 -33.1,-241.13zm-52.76 -168.54l-68.61 23.65c-9.07,-10.42 -16.74,-17.98 -25.41,-28.72 -40.99,-50.81 -32.4,-59.32 -120.73,19.08 -10.49,9.31 -19.81,19.22 -8.36,36.78l50.44 61.68 -35.74 61.47c-28.67,-0.89 -69.02,-16.71 -95.28,-10.08 -11.91,7.36 -25.22,101.31 -25.09,107.78 0.72,34.38 68.44,28.75 96.32,37.31l12.04 70.42c-28.43,27 -88.01,33.81 -77.82,67.55 2.24,7.43 21.07,38.18 26.27,46.86 8.23,13.72 17.62,36.73 31.79,44.81 26.47,3.96 66.24,-31.64 88.96,-40.23 9.5,8.54 15.28,14.47 26.31,23.06 9.6,7.49 20.12,14.63 28.34,23.11 -5.35,25.09 -30.83,68.25 -25.73,92.13 10.16,14.15 25.75,16.04 45.81,23.56 70.46,26.42 70.46,32.53 88.34,-16.28 6,-16.37 11.27,-39.31 21.22,-53l69.9 0.42c13.54,21.38 17.38,49.98 28.65,73.88 13.4,28.4 45.31,7.51 69.06,-0.67 24.03,-8.27 62.39,-14.37 58.12,-43.12 -2.77,-18.63 -20.97,-54.25 -26.68,-76.92l55.13 -46.24c22.96,10.18 63.97,45.56 92.45,39.43 11.02,-10.76 20.73,-32.11 30.32,-48.31 53.44,-90.26 6.6,-59.37 -54.62,-110.08 1.56,-11.03 4.75,-20.86 6.97,-33.28 1.15,-6.42 1.6,-12.53 2.44,-19.08l3.07 -13.23c5.62,-14.26 49.92,-10.28 78.8,-19.41 29.89,-9.45 15.86,-42.32 11.01,-69.74 -5.33,-30.09 -3.67,-62.9 -30.26,-63.41 -23.87,-0.47 -56.74,12.78 -82.99,12.15l-35.2 -60.86c8.57,-17.16 36.44,-41.96 48.74,-59.54 20.74,-29.61 -17.8,-47.71 -34.49,-62.43 -69.02,-60.86 -50.39,-39.22 -118.85,33.3 -6.93,-1.2 -57.14,-19.65 -68.37,-24.06 -1.2,-22.79 2.55,-64.75 -1.21,-84.12 -4.96,-25.54 -39.3,-18.23 -67.04,-18.23 -28.16,0 -61.79,-7.37 -66.77,18.33 -3.8,19.63 0.17,61.14 -1.25,84.28z"/>
   <path class="fil0" d="M1304.24 699.87c-49.86,12.11 -54.83,47.92 -70.11,97 -13.06,41.95 -26.83,82.2 -40.41,124.8 -22.17,69.55 -198.59,598.39 -198.8,626.87 -0.33,46.29 42.83,84.24 94.11,72.13 46.61,-11.01 52.54,-51.21 67.86,-97.52l201.55 -624.22c8.56,-26.37 37.82,-105.15 37.46,-128.7 -0.71,-45.7 -42.37,-82.33 -91.66,-70.36z"/>
   <path class="fil0" d="M1664.92 1160.97c-12.14,11.33 -87.24,42.79 -109.06,52.82 -39.08,17.97 -74.33,34.45 -112.67,52.59 -40.86,19.33 -71.06,50.84 -53.38,99.76 14.31,39.61 60.06,61.32 107.26,39.88l336.16 -156.29c41.15,-19.02 80.6,-31.69 81.65,-85.5 1.07,-55.52 -36.86,-70.1 -76.38,-87.66l-336.03 -156.42c-49.97,-23.29 -92.91,-7.3 -110.21,31.64 -19.2,43.24 0.07,82.95 47.15,104.36 75.35,34.28 151.27,72.02 225.51,104.82z"/>
   <path class="fil0" d="M726.66 1159.97l224.27 -103.07c21.06,-9.97 33.41,-17.43 44.12,-35.31 11.61,-19.38 14.02,-46.63 4.25,-68.65 -18.57,-41.85 -62.01,-54.97 -111.1,-31.84l-334.04 155.2c-41.01,18.36 -79.05,33.05 -77.98,87.88 1.06,54.23 39.12,64.88 78.61,84.07l336.06 156.38c102.1,48.01 168.22,-89.97 58.61,-137.99l-166.99 -77.7c-9.32,-4.34 -18.62,-8.62 -28.37,-12.95 -12.36,-5.49 -19.65,-6.49 -27.44,-16.02z"/>
   <path class="fil0" d="M2380.77 138.03c-0.54,-4.58 -0.82,-9.75 -2.14,-14.33 -3.93,-13.59 -2.79,-7.04 -6.18,-10.47 1.07,3.88 2.12,9.29 3.13,12.96 2.88,10.48 0.5,5.35 5.19,11.84z"/>
  </g>
 </g>
</svg>
