<?xml version="1.0" encoding="UTF-8"?>
<!DOCTYPE svg PUBLIC "-//W3C//DTD SVG 1.1//EN" "http://www.w3.org/Graphics/SVG/1.1/DTD/svg11.dtd">
<!-- Creator: CorelDRAW 2020 (64 Bit) -->
<svg xmlns="http://www.w3.org/2000/svg" xml:space="preserve" width="25.6538mm" height="23.7066mm" version="1.1" style="shape-rendering:geometricPrecision; text-rendering:geometricPrecision; image-rendering:optimizeQuality; fill-rule:evenodd; clip-rule:evenodd"
viewBox="0 0 2565.38 2370.66"
 xmlns:xlink="http://www.w3.org/1999/xlink"
 xmlns:xodm="http://www.corel.com/coreldraw/odm/2003">
 <defs>
  <style type="text/css">
   <![CDATA[
    .str1 {stroke:white;stroke-width:7.06;stroke-miterlimit:22.9256}
    .str0 {stroke:white;stroke-width:8.92;stroke-miterlimit:10}
    .fil0 {fill:#E60000;fill-rule:nonzero}
   ]]>
  </style>
 </defs>
 <g id="Camada_x0020_1">
  <metadata id="CorelCorpID_0Corel-Layer"/>
  <g id="_1777694967376">
   <path class="fil0 str0" d="M377.9 869.05c6.67,6.68 15.44,10.03 24.2,10.03 8.77,0 17.54,-3.34 24.23,-10.03 13.37,-13.37 13.37,-35.06 0,-48.44l-83.16 -83.16 83.16 -83.14c13.37,-13.39 13.37,-35.06 0,-48.44 -13.37,-13.37 -35.06,-13.37 -48.43,0l-107.38 107.37c-6.42,6.43 -10.03,15.14 -10.03,24.21 0,9.09 3.61,17.8 10.03,24.23l107.38 107.37z"/>
   <path class="fil0 str0" d="M717.76 737.45l-83.17 83.16c-13.37,13.38 -13.37,35.07 0.02,48.44 6.68,6.68 15.45,10.03 24.21,10.03 8.77,0 17.54,-3.35 24.21,-10.03l107.39 -107.39c13.37,-13.37 13.37,-35.06 0,-48.42l-107.39 -107.38c-13.37,-13.38 -35.04,-13.38 -48.42,0 -13.39,13.39 -13.39,35.06 0,48.43l83.15 83.16z"/>
   <path class="fil0 str0" d="M479.41 876.71c4.11,1.61 8.36,2.37 12.52,2.37 13.67,0 26.58,-8.24 31.88,-21.72l84.36 -214.76c6.93,-17.61 -1.75,-37.48 -19.36,-44.41 -17.58,-6.91 -37.47,1.75 -44.38,19.36l-84.37 214.76c-6.91,17.6 1.75,37.49 19.35,44.4z"/>
   <path class="fil0 str0" d="M314.12 1080.01l230.72 0c18.91,0 34.25,-15.34 34.25,-34.26 0,-18.91 -15.34,-34.25 -34.25,-34.25l-230.72 0c-18.92,0 -34.24,15.34 -34.24,34.25 0,18.92 15.32,34.26 34.24,34.26z"/>
   <path class="fil0 str0" d="M1076.24 1011.5l-405.64 0c-18.9,0 -34.24,15.34 -34.24,34.25 0,18.92 15.34,34.26 34.24,34.26l405.64 0c18.92,0 34.26,-15.34 34.26,-34.26 0,-18.91 -15.34,-34.25 -34.26,-34.25z"/>
   <path class="fil0 str0" d="M314.12 1224.46l98.28 0c18.91,0 34.25,-15.33 34.25,-34.26 0,-18.91 -15.34,-34.24 -34.25,-34.24l-98.28 0c-18.92,0 -34.24,15.33 -34.24,34.24 0,18.93 15.32,34.26 34.24,34.26z"/>
   <path class="fil0 str0" d="M950.94 1155.96c-18.92,0 -34.24,15.33 -34.24,34.24 0,18.93 15.32,34.26 34.24,34.26l59.85 0c18.92,0 34.26,-15.33 34.26,-34.26 0,-18.91 -15.34,-34.24 -34.26,-34.24l-59.85 0z"/>
   <path class="fil0 str0" d="M860.8 1190.2c0,-18.91 -15.34,-34.24 -34.24,-34.24l-293.98 0c-18.93,0 -34.24,15.33 -34.24,34.24 0,18.93 15.31,34.26 34.24,34.26l293.98 0c18.9,0 34.24,-15.33 34.24,-34.26z"/>
   <path class="fil0 str0" d="M1085.15 1190.2c0,18.93 15.34,34.26 34.24,34.26l112.1 0c18.93,0 34.26,-15.33 34.26,-34.26 0,-18.91 -15.33,-34.24 -34.26,-34.24l-112.1 0c-18.9,0 -34.24,15.33 -34.24,34.24z"/>
   <path class="fil0 str0" d="M898.63 764.93l118.24 0c18.93,0 34.27,-15.34 34.27,-34.26 0,-18.91 -15.34,-34.24 -34.27,-34.24l-118.24 0c-18.92,0 -34.26,15.33 -34.26,34.24 0,18.92 15.34,34.26 34.26,34.26z"/>
   <path class="fil0 str0" d="M1149.31 764.93l721.48 0c18.93,0 34.24,-15.34 34.24,-34.26 0,-18.91 -15.31,-34.24 -34.24,-34.24l-721.48 0c-18.92,0 -34.26,15.33 -34.26,34.24 0,18.92 15.34,34.26 34.26,34.26z"/>
   <path class="fil0 str0" d="M1761.21 847.11l-292.26 0c-18.91,0 -34.25,15.34 -34.25,34.26 0,18.91 15.34,34.24 34.25,34.24l292.26 0c18.91,0 34.24,-15.33 34.24,-34.24 0,-18.92 -15.33,-34.26 -34.24,-34.26z"/>
   <path class="fil0 str0" d="M1359.36 847.11l-100.46 0c-18.92,0 -34.25,15.34 -34.25,34.26 0,18.91 15.33,34.24 34.25,34.24l100.46 0c18.92,0 34.25,-15.33 34.25,-34.24 0,-18.92 -15.33,-34.26 -34.25,-34.26z"/>
   <path class="fil0 str0" d="M898.63 915.61l246.11 0c18.91,0 34.25,-15.33 34.25,-34.24 0,-18.92 -15.34,-34.26 -34.25,-34.26l-246.11 0c-18.92,0 -34.26,15.34 -34.26,34.26 0,18.91 15.34,34.24 34.26,34.24z"/>
   <path class="fil0 str0" d="M826.98 1299.2l-230.7 0c-18.93,0 -34.26,15.33 -34.26,34.24 0,18.91 15.33,34.25 34.26,34.25l230.7 0c18.91,0 34.25,-15.34 34.25,-34.25 0,-18.91 -15.34,-34.24 -34.25,-34.24z"/>
   <path class="fil0 str0" d="M491.37 1299.2l-177.25 0c-18.92,0 -34.24,15.33 -34.24,34.24 0,18.91 15.32,34.25 34.24,34.25l177.25 0c18.93,0 34.25,-15.34 34.25,-34.25 0,-18.91 -15.32,-34.24 -34.25,-34.24z"/>
   <path class="fil0 str0" d="M1245.21 1299.2l-301.39 0c-18.93,0 -34.25,15.33 -34.25,34.24 0,18.91 15.32,34.25 34.25,34.25l301.39 0c18.9,0 34.24,-15.34 34.24,-34.25 0,-18.91 -15.34,-34.24 -34.24,-34.24z"/>
   <path class="fil0 str0" d="M1652.79 1123.27l-164.81 0c-18.91,0 -34.25,15.34 -34.25,34.24 0,18.93 15.34,34.26 34.25,34.26l164.81 0c18.92,0 34.24,-15.33 34.24,-34.26 0,-18.9 -15.32,-34.24 -34.24,-34.24z"/>
   <path class="fil0 str0" d="M1938.76 1191.77l232.65 0c18.93,0 34.27,-15.33 34.27,-34.26 0,-18.9 -15.34,-34.24 -34.27,-34.24l-232.65 0c-18.92,0 -34.24,15.34 -34.24,34.24 0,18.93 15.34,34.26 34.24,34.26z"/>
   <path class="fil0 str0" d="M1822.43 1123.27l-53.31 0c-18.93,0 -34.26,15.34 -34.26,34.24 0,18.93 15.33,34.26 34.26,34.26l53.31 0c18.92,0 34.25,-15.33 34.25,-34.26 0,-18.9 -15.33,-34.24 -34.25,-34.24z"/>
   <path class="fil0 str0" d="M1487.98 1564.99l164.81 0c18.92,0 34.24,-15.32 34.24,-34.25 0,-18.91 -15.32,-34.24 -34.24,-34.24l-164.81 0c-18.91,0 -34.25,15.33 -34.25,34.24 0,18.93 15.34,34.25 34.25,34.25z"/>
   <path class="fil0 str0" d="M1938.76 1564.99l232.65 0c18.93,0 34.27,-15.32 34.27,-34.25 0,-18.91 -15.34,-34.24 -34.27,-34.24l-232.65 0c-18.92,0 -34.24,15.33 -34.24,34.24 0,18.93 15.34,34.25 34.24,34.25z"/>
   <path class="fil0 str0" d="M1769.12 1564.99l53.31 0c18.92,0 34.26,-15.32 34.26,-34.25 0,-18.91 -15.34,-34.24 -34.26,-34.24l-53.31 0c-18.93,0 -34.24,15.33 -34.24,34.24 0,18.93 15.31,34.25 34.24,34.25z"/>
   <path class="fil0 str0" d="M1652.79 1869.72l-164.81 0c-18.91,0 -34.25,15.35 -34.25,34.25 0,18.91 15.34,34.25 34.25,34.25l164.81 0c18.92,0 34.24,-15.34 34.24,-34.25 0,-18.9 -15.32,-34.25 -34.24,-34.25z"/>
   <path class="fil0 str0" d="M2171.41 1869.72l-232.65 0c-18.92,0 -34.24,15.35 -34.24,34.25 0,18.91 15.32,34.25 34.24,34.25l232.65 0c18.93,0 34.27,-15.34 34.27,-34.25 0,-18.9 -15.34,-34.25 -34.27,-34.25z"/>
   <path class="fil0 str0" d="M1822.43 1869.72l-53.31 0c-18.93,0 -34.26,15.35 -34.26,34.25 0,18.91 15.33,34.25 34.26,34.25l53.31 0c18.92,0 34.25,-15.34 34.25,-34.25 0,-18.9 -15.33,-34.25 -34.25,-34.25z"/>
   <path class="fil0 str1" d="M2377.43 413.8l-2198 0 0 -246.65c0,-45.32 36.89,-82.21 82.24,-82.21l2033.53 0c45.34,0 82.23,36.89 82.23,82.23l0 246.63zm-71.5 -397.15l-2054.91 0c-79.35,4.24 -142.61,70.12 -142.61,150.52l0 1657.12c0,83.11 67.63,150.72 150.74,150.72l128.89 0c18.9,0 34.24,-15.32 34.24,-34.25 0,-18.9 -15.34,-34.24 -34.24,-34.24l-128.89 0c-45.35,0 -82.23,-36.88 -82.23,-82.23l0 -129.92 1247.73 0 0 59.02 -27.15 0c-37.16,0 -67.37,30.21 -67.37,67.37l0 85.76 -733.87 0c-18.91,0 -34.24,15.34 -34.24,34.24 0,18.93 15.33,34.25 34.24,34.25l329.3 0 0 122.83 -103.41 0c-68.99,0 -125.1,56.13 -125.1,125.1l0 73.99c0,31.48 25.6,57.08 57.07,57.08l1046.08 0c31.48,0 57.08,-25.6 57.08,-57.08l0 -73.99c0,-68.97 -56.11,-125.1 -125.1,-125.1l-103.41 0 0 -43.29 633.15 0c37.13,0 67.34,-30.21 67.34,-67.36l0 -16.13c66.75,-15.49 116.65,-75.39 116.65,-146.77l2.59 -1657.14c0.02,-80.38 -63.22,-146.26 -142.57,-150.5zm71.5 1609.23l-49.28 0c0.69,-3.87 1.13,-178.35 1.13,-178.35 0,-37.16 -30.23,-67.37 -67.36,-67.37l-27.16 0 0 -72.05 27.16 0c37.13,0 67.36,-30.23 67.36,-67.36l0 -166.45c0,-37.14 -30.23,-67.37 -67.36,-67.37l-193.45 0c-18.93,0 -34.24,15.34 -34.24,34.27 0,18.91 15.31,34.24 34.24,34.24l192.3 0 0 164.17 -862.13 0 0 -164.17 456.73 0c18.92,0 34.24,-15.33 34.24,-34.24 0,-18.93 -15.32,-34.27 -34.24,-34.27l-457.87 0c-37.16,0 -67.37,30.23 -67.37,67.37l0 166.45c0,37.13 30.21,67.36 67.37,67.36l27.15 0 0 72.05 -27.15 0c-37.16,0 -67.37,30.23 -67.37,67.37 0,0 0.43,174.48 1.13,178.35l-1154.34 0 0 -1143.57 2200.51 0 0 1143.57zm0 198.41c0,33.17 -19.79,61.75 -48.15,74.74l0 -78.29c0,-37.14 -30.23,-67.35 -67.36,-67.35l-27.16 0 0 -59.02 142.67 0 0 129.92zm-116.66 161.76l-862.13 0 0 -164.15 862.13 0 0 164.15zm-528.57 180.3c31.21,0 56.59,25.39 56.59,56.59l0 62.58 -1023.26 0 0 -62.58c0,-31.2 25.41,-56.59 56.62,-56.59l910.05 0zm-738.16 -191.34l336.09 0 0 12.19c0,37.14 30.21,67.35 67.37,67.35l162.79 0 0 43.29 -566.25 0 0 -122.83zm1172.21 -293.69l0 72.07 -673.11 0 0 -72.07 673.11 0zm-673.11 -301.16l0 -72.05 673.11 0 0 72.05 -673.11 0zm-94.5 232.67l0 -164.16 862.13 0 0 164.16 -862.13 0z"/>
   <path class="fil0 str0" d="M360.99 280.4c-17.64,0 -32.01,-14.35 -32.01,-32.01 0,-17.64 14.37,-32.01 32.01,-32.01 17.65,0 32.01,14.37 32.01,32.01 0,17.66 -14.36,32.01 -32.01,32.01zm0 -132.51c-55.42,0 -100.5,45.08 -100.5,100.5 0,55.42 45.08,100.51 100.5,100.51 55.41,0 100.51,-45.09 100.51,-100.51 0,-55.42 -45.1,-100.5 -100.51,-100.5z"/>
   <path class="fil0 str0" d="M616.88 280.4c-17.66,0 -32.01,-14.35 -32.01,-32.01 0,-17.64 14.35,-32.01 32.01,-32.01 17.64,0 32.01,14.37 32.01,32.01 0,17.66 -14.37,32.01 -32.01,32.01zm0 -132.51c-55.41,0 -100.51,45.08 -100.51,100.5 0,55.42 45.1,100.51 100.51,100.51 55.42,0 100.5,-45.09 100.5,-100.51 0,-55.42 -45.1,-100.5 -100.5,-100.5z"/>
   <path class="fil0 str0" d="M872.76 280.4c-17.64,0 -32.01,-14.35 -32.01,-32.01 0,-17.64 14.37,-32.01 32.01,-32.01 17.66,0 32.01,14.37 32.01,32.01 0,17.66 -14.35,32.01 -32.01,32.01zm0 -132.51c-55.42,0 -100.5,45.08 -100.5,100.5 0,55.42 45.08,100.51 100.5,100.51 55.42,0 100.52,-45.09 100.52,-100.51 0,-55.42 -45.1,-100.5 -100.52,-100.5z"/>
  </g>
 </g>
</svg>
